<?xml version="1.0" encoding="UTF-8" standalone="no"?>
<!-- Created with Inkscape (http://www.inkscape.org/) -->

<svg
   version="1.1"
   id="svg18"
   width="156.29408"
   height="272.60651"
   viewBox="0 0 156.29408 272.60651"
   sodipodi:docname="arvorepetvetorizada.svg"
   inkscape:version="1.2.2 (b0a8486541, 2022-12-01)"
   xmlns:inkscape="http://www.inkscape.org/namespaces/inkscape"
   xmlns:sodipodi="http://sodipodi.sourceforge.net/DTD/sodipodi-0.dtd"
   xmlns="http://www.w3.org/2000/svg"
   xmlns:svg="http://www.w3.org/2000/svg">
  <style>
  path { fill: #003366; }
  @media (prefers-color-scheme: dark) {
    path { fill: #ffffff; }
  }
</style>
  <defs
     id="defs22">
    <clipPath
       clipPathUnits="userSpaceOnUse"
       id="clipPath34">
      <path
         d="M 0,500 H 500 V 0 H 0 Z"
         id="path32" />
    </clipPath>
  </defs>
  <sodipodi:namedview
     id="namedview20"
     pagecolor="#505050"
     bordercolor="#eeeeee"
     borderopacity="1"
     inkscape:showpageshadow="0"
     inkscape:pageopacity="0"
     inkscape:pagecheckerboard="0"
     inkscape:deskcolor="#505050"
     showgrid="false"
     inkscape:zoom="0.4124259"
     inkscape:cx="-412.19526"
     inkscape:cy="358.85234"
     inkscape:window-width="1600"
     inkscape:window-height="838"
     inkscape:window-x="0"
     inkscape:window-y="0"
     inkscape:window-maximized="1"
     inkscape:current-layer="g26"
     showguides="false">
    <inkscape:page
       x="0"
       y="0"
       id="page24"
       width="156.29408"
       height="272.60651" />
  </sodipodi:namedview>
  <g
     id="g26"
     inkscape:groupmode="layer"
     inkscape:label="Page 1"
     transform="matrix(1.3333333,0,0,-1.3333333,-221.74136,534.58133)">
    <g
       id="g28"
       style=""
       transform="translate(-50.224201,4.9929328)">
      <g
         id="g30"
         clip-path="url(#clipPath34)"
         style="">
        <g
           id="g36"
           transform="translate(260.3691,374.3042)"
           style="">
          <path
             id="path38"
             style=";fill-opacity:1;fill-rule:nonzero;stroke:none"
             d="m 29.798876,21.625988 c -2.38682,0.159047 -4.724547,-1.161922 -5.831543,-3.524414 -1.461996,-3.115988 -0.108898,-6.60625 3.14209,-7.948242 0.754996,-0.311 1.00398,-0.7241872 0.97998,-1.513184 -0.051,-1.6159936 -0.04982,-3.2370339 0.01318,-4.8530275 0.036,-0.951996 -0.25743,-1.664104 -0.94043,-2.3291016 -2.197992,-2.13999132 -4.330746,-4.347407 -6.531738,-6.4833986 -0.858996,-0.8339964 -1.255188,-1.7649189 -1.242188,-2.9619141 0.041,-3.8089842 0.0299,-7.6172622 0.0249,-11.4272462 -10e-4,-0.347 0.119425,-0.735246 -0.288575,-1.198242 -1.067996,1.110992 -2.101531,2.210789 -3.165527,3.279785 -0.51,0.512996 -0.730492,1.094012 -0.729492,1.812012 0.01,6.4379728 0.01298,12.8764554 -0.0029,19.3154298 -0.002,0.7409968 0.17502,1.2351891 0.89502,1.6171875 2.094988,1.1119956 2.94166,3.1816607 2.305664,5.3686527 -0.632,2.170992 -2.593286,3.611187 -4.759278,3.492187 -2.183992,-0.119 -3.9305445,-1.566805 -4.3315429,-3.591797 -0.480021,-2.4149888 0.5701955,-4.5929135 2.7421879,-5.4829099 0.687996,-0.2819988 0.903484,-0.6603778 0.896484,-1.359375 -0.028,-2.4599904 -0.0046,-4.9203575 -0.01758,-7.3813479 -0.002,-0.3199984 0.169078,-0.7817117 -0.169922,-0.9287109 -0.399996,-0.1729992 -0.63098,0.2950633 -0.875976,0.5390625 C 9.6906568,-1.719615 7.4885228,0.51158264 5.2715316,2.7265736 4.737534,3.2585716 4.4823754,3.869014 4.4863754,4.6250112 c 0.012,2.2249912 0.046238,4.4518386 -0.030762,6.6738278 -0.038,1.115996 0.1848833,1.87629 1.2758789,2.44629 1.3229948,0.689996 1.628925,2.005234 1.3989258,3.407226 -0.2229992,1.356996 -1.0570521,2.229215 -2.3730469,2.616211 -1.7149932,0.503 -3.4783584,-0.226125 -4.2143556,-1.724121 -0.82199672,-1.670992 -0.35621214,-3.396031 1.3007813,-4.478027 0.7009972,-0.458 1.0096559,-0.987661 0.9726563,-1.826661 -0.095,-2.1869892 -0.080403,-4.3814382 -0.2124024,-6.5654294 -0.092,-1.504994 0.4236099,-2.6417619 1.4956055,-3.6767579 2.6899892,-2.5999896 5.3100852,-5.2724481 7.9760747,-7.8984377 0.689996,-0.6789972 1.125602,-1.4468556 1.016602,-2.4228516 -0.245,-2.1859914 -0.05584,-4.3799024 -0.131836,-6.5668944 -0.057,-1.628996 0.518465,-2.906379 1.772461,-3.984375 1.351992,-1.163996 2.574332,-2.475848 3.861328,-3.714844 0.731996,-0.705 1.049359,-1.581481 0.943359,-2.563477 -0.136,-1.279996 -0.229539,-2.570965 -0.102539,-3.834961 0.188,-1.884992 -0.670457,-3.077031 -1.939453,-4.374023 -1.880992,-1.923996 -4.750422,-3.1792 -4.857422,-6.492188 -0.616996,0.283 -0.905586,0.810367 -1.350586,1.151367 -0.879996,0.675996 -1.143957,1.536047 -1.105957,2.644043 0.082,2.390992 0.05465,4.787676 0.01465,7.180664 -0.014,0.855 0.116676,1.523098 1.013672,1.850098 0.206,0.075 0.380739,0.276637 0.531739,0.452637 0.997996,1.155996 0.805699,3.007125 -0.404297,3.974121 -1.201996,0.960996 -3.063223,0.702676 -3.9492194,-0.549316 -0.938996,-1.326996 -0.6587131,-3.03454 0.7382813,-3.85254 0.7549968,-0.442996 0.9845426,-0.986082 0.956543,-1.809082 -0.049,-1.414992 -0.014648,-2.832051 -0.014648,-4.248047 0.001,-1.024996 0.00146,-2.051129 0.00146,-3.328125 -1.6659936,1.586996 -3.1103616,2.992383 -4.5893556,4.359375 -0.5649976,0.522 -0.8042696,1.117004 -0.8012696,1.875 0.02,5.02298 0.029508,10.045868 0.020508,15.068848 -0.001,0.616 0.2186508,0.965555 0.7646484,1.268555 1.6479936,0.915996 2.3281074,2.745477 1.7871094,4.6054691 -0.5259976,1.8069924 -1.9697346,2.8172731 -3.9697266,2.7802735 -1.78999296,-0.033 -3.21792762,-1.1806245 -3.6489259,-2.9326173 -0.468998,-1.9029923 0.2583623,-3.6619763 1.96435552,-4.5219723 0.64499758,-0.325 0.84196098,-0.740762 0.83496098,-1.426758 -0.03,-2.494992 -5.076e-4,-4.989899 -0.020508,-7.483887 -0.003,-0.41 0.2419905,-1.005989 -0.2080079,-1.187989 -0.33799848,-0.135996 -0.667755,0.373786 -0.94775388,0.654786 -1.80599282,1.814992 -3.59635112,3.645945 -5.40234392,5.460937 -0.3699984,0.371 -0.4404531,0.808926 -0.4394531,1.294922 0.005,3.606988 0.00739,7.2152805 0.00439,10.8222661 0,0.517998 0.016184,1.0676891 0.3881836,1.4296875 1.1079956,1.0769956 1.9110433,2.5572528 3.9360353,2.260254 1.46598038,-0.2149992 2.6943629,1.3485217 2.5473633,2.85351567 C 1.1381016,1.8369972 -0.44959624,3.0011939 -2.0775896,2.7631947 -3.538584,2.5491959 -4.6258338,1.0566773 -4.1298358,-0.36131706 c 0.3779984,-1.07999564 0.059294,-1.71203374 -0.7207031,-2.33203134 -0.2879988,-0.2289988 -0.5120165,-0.5372277 -0.7910157,-0.7822265 -0.921996,-0.8119968 -1.2839762,-1.7983448 -1.2509766,-3.04834 0.078,-2.8969884 0.045551,-5.7977891 0.039551,-8.6967771 -10e-4,-0.339 0.1508344,-0.740297 -0.243164,-1.050293 -0.6189976,0.461996 -0.713379,1.121293 -0.713379,1.800293 -0.003,7.8549668 0.00414,15.711438 -0.00586,23.5664064 -10e-4,0.6109976 0.2167914,0.9845976 0.758789,1.2875976 1.1779956,0.657996 1.5902133,1.782614 1.2202149,3.09961 -0.3319988,1.181992 -1.4102158,2.008836 -2.616211,2.006836 -1.2029952,-0.003 -2.2570987,-0.824348 -2.6000987,-2.027344 -0.366996,-1.288996 0.05486,-2.509399 1.2348643,-3.108399 0.7359972,-0.3739976 0.8882305,-0.8781198 0.8862305,-1.620117 -0.018,-6.3039748 -0.00811,-12.6086236 -0.016113,-18.912598 0,-0.252 0.1046121,-0.53827 -0.1713867,-0.80127 -1.2019961,0.932996 -2.2674961,1.9017221 -1.9584961,3.6577153 0.08,0.458998 0.0129,0.9415762 0.0249,1.4135742 0.019,0.7509972 -0.251945,1.3591154 -0.793945,1.8911134 -2.020992,1.983992 -3.996559,4.01364078 -6.039551,5.9736329 -0.642996,0.6169976 -1.011336,1.2329568 -0.79834,2.1269532 0.089,0.3739984 0.01309,0.7364508 -0.128906,1.0854492 -0.572996,1.4099944 -2.17741,2.1222129 -3.587402,1.5952149 -1.415996,-0.5299976 -2.119227,-2.0158963 -1.636231,-3.4628907 0.492,-1.471994 1.865262,-2.2271035 3.385254,-1.6831055 0.898996,0.3209988 1.433274,0.07061 2.030274,-0.5463867 1.756992,-1.81799288 3.528082,-3.6239839 5.351074,-5.3759767 0.660996,-0.6339976 1.062176,-1.2870584 0.930176,-2.2060548 -0.315,-2.1919912 0.321809,-3.9807967 2.195801,-5.2587887 0.11,-0.074 0.1825041,-0.202321 0.2915033,-0.278321 0.8559968,-0.592996 1.0325813,-1.388699 0.8715821,-2.387695 -0.1339996,-0.827996 -0.107173,-1.689867 0.5698242,-2.359863 2.2519912,-2.228992 4.514009,-4.44888 6.7500002,-6.692872 3.6879852,-3.699984 3.0808907,-2.093227 3.0878907,-7.387207 0,-0.068 0.00307,-0.136613 -0.00293,-0.203613 -0.093,-1.060996 0.3492138,-1.862594 1.116211,-2.57959 3.2509868,-3.038988 6.338424,-6.242649 9.4204095,-9.452637 0.557,-0.58 0.767114,-1.201653 0.766114,-1.993653 -0.016,-9.67496 -0.0062,-19.350919 -0.01318,-29.025879 0,-0.311 0.132336,-0.667817 -0.32666,-1.111817 -1.069996,1.133996 -2.104758,2.28254 -3.1977536,3.373536 -0.5889976,0.588996 -0.8611875,1.235433 -0.8671875,2.065429 -0.029,4.177984 -0.083766,8.356685 -0.1347656,12.534669 -0.018,1.408992 0.2701009,2.673562 1.1000977,3.893554 1.603992,2.359992 1.11739,5.354016 -1.0166016,7.333008 -2.007992,1.860996 -5.3145715,2.091012 -7.47656271,0.52002 -2.06999159,-1.503992 -2.95491129,-4.212125 -2.21191409,-6.766113 0.67599716,-2.324992 2.7694359,-3.993661 5.3364259,-4.076661 0.977996,-0.032 1.1835508,-0.401488 1.1645508,-1.271484 -0.045,-2.088992 -0.00704,-4.180004 -0.019043,-6.270996 -0.001,-0.413 0.1046551,-0.852434 -0.1523437,-1.31543 -0.2279992,0.209 -0.4058247,0.358484 -0.5698243,0.521484 -2.7489888,2.733992 -5.4858707,5.482348 -8.2558595,8.194336 -0.6259976,0.614 -0.9094141,1.275997 -0.8994141,2.145997 0.03,2.763988 0.036336,5.528492 0.00732,8.29248 -0.007,0.768 0.1809134,1.19675 0.9829102,1.489746 2.0669916,0.755 3.25481972,2.661669 3.09082036,4.826661 -0.1479994,1.949992 -1.25444476,3.214965 -3.02343756,3.938965 -0.6369976,0.260996 -1.1419957,0.581 -1.0209961,1.395996 0.2139992,1.438992 -0.4192267,2.491078 -1.4282227,3.476074 -3.4259864,3.342988 -6.8030009,6.734153 -10.1879889,10.119141 -1.083996,1.083996 -1.035102,2.193527 0.08789,3.061523 1.144996,0.885 1.479117,2.013766 0.974121,3.301758 -0.424,1.079996 -1.487981,1.71795 -2.750977,1.64795 -1.221996,-0.066 -2.253207,-0.884192 -2.512207,-1.992188 -0.315,-1.348996 0.157875,-2.404008 1.442871,-3.104004 0.45,-0.245 0.824324,-0.512875 0.757324,-1.067871 -0.158996,-1.321996 0.524184,-2.201317 1.40918,-3.070313 3.485988,-3.424984 6.93315,-6.891207 10.3901374,-10.346191 1.064996,-1.063996 0.7285335,-2.831836 -0.6474609,-3.402832 -0.7029972,-0.292 -1.2912794,-0.734758 -1.7592774,-1.322754 -0.3909984,-0.489 -0.7077204,-0.479358 -1.1367191,-0.02637 -0.948996,1.004996 -1.971395,1.938919 -2.900391,2.961915 -0.734996,0.809996 -1.563879,1.19514 -2.671875,1.11914 -1.073996,-0.072 -2.157844,-0.005 -3.23584,-0.02197 -0.538996,-0.009 -0.941613,0.161898 -1.328613,0.566894 -1.304996,1.363996 -2.638028,2.702282 -3.999024,4.009278 -0.498996,0.478996 -0.75507,0.977785 -0.74707,1.675781 0.028,2.325992 0.0109,4.652524 0.0249,6.978516 0.005,0.806996 -0.169113,1.527629 -0.766113,2.119629 -1.003996,0.995996 -1.926863,2.086679 -3.005859,2.992675 -0.949996,0.798 -1.162914,1.502012 -0.711914,2.729004 1.278992,3.476988 -2.456485,6.5123685 -5.459473,5.7553717 -2.661988,-0.6709972 -4.271879,-3.1867049 -3.629883,-5.7626957 0.652996,-2.623988 3.1825,-4.107097 5.875488,-3.350097 0.8,0.223996 1.327145,0.09381 1.869141,-0.492188 0.846996,-0.914996 1.706723,-1.825301 2.636719,-2.654297 0.695996,-0.618996 0.941851,-1.314172 0.922851,-2.222168 -0.043,-2.122992 -0.02676,-4.246614 -0.0088,-6.370606 0.007,-0.808996 0.07377,-1.601211 0.717774,-2.241211 1.194996,-1.186992 2.460586,-2.329 3.496582,-3.645996 1.701992,-2.161992 3.816211,-2.791039 6.429199,-2.269043 0.972996,0.194 1.857407,-0.114191 2.566407,-0.867187 0.946996,-1.005996 1.89007,-2.018778 2.893066,-2.967774 0.565,-0.532996 0.951731,-1.096469 1.073731,-1.876465 0.2149979,-1.373992 0.8970009,-2.468769 2.1459961,-3.134765 0.6819972,-0.364 0.9069492,-0.875161 0.8979492,-1.639161 -0.034,-2.999988 -0.00665,-6.000477 -0.014648,-9.001465 -0.004,-1.161996 0.297695,-2.171652 1.1586914,-3.014648 3.3239868,-3.252988 6.60709176,-6.549313 9.9550784,-9.779297 0.7709968,-0.745 1.1349684,-1.5062 1.0429688,-2.575196 -0.1399996,-1.610992 0.4455755,-2.91607 1.6845703,-4.018066 1.5849936,-1.408996 3.0131517,-2.995793 4.5981448,-4.404785 1.017996,-0.906 1.427488,-1.888747 1.375488,-3.260743 -0.129996,-3.433984 -0.143273,-6.872586 -0.155273,-10.30957 -0.031,-8.629963 0.04122,-17.257763 0.09522,-25.886723 0.082,-13.07992 0.04151,-26.16031 0.02051,-39.24023 -0.003,-1.49 0.440457,-2.68704 1.564453,-3.66504 0.812996,-0.708 1.50498,-1.57094 2.375976,-2.18994 1.619996,-1.153 1.560122,-3.12068 1.078126,-4.97168 -0.17,-0.655 -0.363817,-1.28375 -0.361817,-1.96875 0.007,-3.303 -0.04375,-6.60814 0.01025,-9.91114 0.046,-2.84996 -0.69366,-2.91898 3.007324,-2.85498 1.241996,0.021 1.352938,0.14584 1.335938,1.4458 -0.055,4.077 -0.124895,8.15345 -0.191895,12.23145 -0.004,0.234 0.0093,0.48873 -0.07471,0.69873 -0.492996,1.239 -0.393996,2.53534 -0.270996,3.79834 0.093,0.977 -0.18368,1.70586 -0.84668,2.35986 -1.150992,1.137 -2.266644,2.31363 -3.452636,3.41163 -0.753,0.69696 -1.040786,1.47302 -1.029786,2.49902 0.088,8.45996 0.04512,16.91892 0.120118,25.37988 0.115,13.11096 0.142812,26.22596 -0.117188,39.336917 -0.025,1.219996 0.344543,2.096297 1.227539,2.925293 1.842992,1.728996 3.589563,3.562504 5.393555,5.333496 0.43,0.424 0.68382,0.880215 0.736816,1.491211 0.148,1.717996 0.143712,3.433001 -0.0293,5.145997 -0.091,0.886996 0.07688,1.486738 1.004882,1.927734 2.310992,1.096996 3.135692,3.071864 2.387696,5.526856 -0.228,0.747996 -0.09611,1.223394 0.46289,1.77539 3.787988,3.743988 7.536751,7.526962 11.302735,11.293946 0.342,0.341 0.703801,0.706848 0.695801,1.193848 -0.014,0.837996 0.502441,1.114226 1.148437,1.428222 1.668996,0.814 2.484547,2.24909 2.560547,4.059082 0.077,1.835996 -0.6935,3.37395 -2.333496,4.168946 -1.095996,0.532996 -1.307711,1.193445 -1.303711,2.273437 0.014,4.010984 -0.01658,8.023243 -0.121582,12.032227 -0.023,0.886996 0.134977,1.530254 0.771973,2.15625 3.265988,3.216988 6.48034,6.487349 9.757324,9.694337 0.82,0.802996 1.193266,1.68832 1.072266,2.799316 -0.205,1.882992 -0.06281,3.774696 -0.153809,5.658692 -0.059,1.2079936 0.337665,2.1678193 1.180665,2.9868161 0.386996,0.3759984 0.773511,0.7530446 1.145507,1.144043 0.549,0.5759976 0.987532,0.7707355 1.769532,0.1567383 1.694992,-1.3289948 3.844211,-1.2048073 5.512207,0.1171875 1.705992,1.3539944 2.359535,3.5649295 1.602539,5.41992197 C 60.798644,1.1373855 58.584494,2.4596189 56.564502,2.0996205 54.64751,1.7566217 52.326689,0.10625024 52.556689,-2.593739 c 0.082,-0.959996 -0.304238,-1.6858501 -0.990234,-2.3188477 -0.816,-0.7549968 -1.580883,-1.5673857 -2.400879,-2.3173829 -0.767,-0.6999972 -1.036219,-1.5866212 -0.949219,-2.5576172 0.179,-1.9859922 0.02416,-3.9779222 0.13916,-5.9619142 0.06,-1.029996 -0.317434,-1.783559 -1.044434,-2.497559 -2.912988,-2.854988 -5.74907,-5.789617 -8.685058,-8.620605 -1.163996,-1.123996 -2.147,-2.228915 -1.875,-3.982911 0.007,-0.041 -0.07672,-0.09609 -0.115723,-0.142089 -1.502996,1.040992 -2.497492,2.262027 -2.229492,4.270019 0.128,0.959996 0.320312,1.741586 1.091308,2.371582 0.57,0.466 1.063243,1.031387 1.573243,1.567383 1.862992,1.950992 3.713336,3.91518 5.736328,5.701172 0.505996,0.446 0.718844,0.919246 0.714844,1.573242 -0.017,2.123992 0.02382,4.249079 -0.01318,6.3720708 -0.014,0.8149968 0.07784,1.2187301 1.089844,1.0737305 1.616992,-0.2299992 2.972887,1.0700651 2.983887,2.6850587 0.011,1.5979936 -1.379528,2.9090621 -2.95752,2.7890625 -1.595992,-0.1209992 -2.792063,-1.5684908 -2.518067,-3.1464844 0.164,-0.9389964 0.19536,-1.8763631 0.19336,-2.8183595 -0.004,-2.0559916 -0.06037,-4.1124656 -0.02637,-6.1684576 0.016,-0.915996 -0.292039,-1.578566 -0.936035,-2.226562 -2.473992,-2.482992 -5.126575,-4.785075 -7.476563,-7.393067 -0.395,-0.439996 -0.668309,-0.905117 -0.716309,-1.516113 -0.175,-2.195992 -0.06167,-4.265246 2.090332,-5.594238 0.28,-0.173 0.469028,-0.484731 0.728028,-0.698731 1.184992,-0.978996 0.85248,-2.235942 0.79248,-3.585938 -2.143992,2.104992 -4.204746,4.042505 -6.156738,6.083497 -1.018996,1.064996 -0.673289,3.241574 0.449707,4.30957 3.124988,2.972988 6.228754,5.968563 9.260742,9.039551 0.909996,0.921996 1.251328,1.921 1.236328,3.166992 -0.041,3.3039884 -0.01895,6.6081467 -0.04395,9.9111335 -0.005,0.7219972 0.135891,1.2455993 0.837891,1.6625977 1.181992,0.70299716 1.539281,1.9026732 1.113281,3.159668 -0.378,1.1169956 -1.449567,1.9055509 -2.601563,1.9145509 -1.174992,0.01 -2.287789,-0.8941416 -2.633789,-2.1401368 -0.338996,-1.21899512 0.07134,-2.28321388 1.277344,-2.991211 0.579996,-0.3399988 0.761789,-0.7531392 0.758789,-1.3901368 -0.015,-3.4039864 -0.01803,-6.8093699 0.02197,-10.2143555 0.011,-0.839996 -0.242778,-1.502082 -0.821778,-2.080078 -2.861988,-2.857992 -5.718137,-5.722067 -8.578125,-8.581055 -0.137,-0.137 -0.279047,-0.357602 -0.498047,-0.266602 -0.281996,0.117 -0.178203,0.405492 -0.158203,0.625488 0.066,0.771 0.595285,1.265098 1.113281,1.746094 2.370992,2.202992 4.684157,4.466911 6.952149,6.774903 0.691996,0.703996 1.171508,1.473773 1.145508,2.488769 -0.025,0.975996 -0.174318,1.964297 -0.07031,2.9252934 0.183,1.6649932 -0.323394,2.9460389 -1.671386,3.9360353 -0.888996,0.6549972 -1.299215,1.4826689 -1.220215,2.6806641 0.109,1.6659932 -1.330411,2.87173363 -2.941407,2.67773443 -1.641992,-0.19699924 -2.662046,-1.65026083 -2.373046,-3.38525403 0.259996,-1.5659936 1.71764,-2.4309746 3.348632,-2.0009766 0.382,0.1009996 0.747344,0.338359 1.17334,0.1933594 0.776996,-0.2639988 2.481953,-2.4327728 2.501953,-3.2387696 0.029,-1.2129952 0.0163,-2.4276054 0.0293,-3.6416014 0.005,-0.497 -0.160472,-0.926926 -0.480468,-1.294922 -2.280992,-2.620992 -4.823048,-4.982821 -7.41504,-7.382813 0.067,1.052996 -0.732867,2.231442 0.703125,3.023438 1.167996,0.643996 1.570313,1.995957 1.195313,3.251953 -0.33,1.104996 -1.375215,1.847352 -2.616211,1.860352 -1.228996,0.013 -2.301297,-0.720946 -2.654297,-1.814942 -0.421,-1.308996 -0.06294,-2.43766 1.185059,-3.222656 0.643996,-0.404 0.807804,-0.876176 0.799804,-1.576172 -0.032,-2.797988 0.02459,-5.598032 -0.04541,-8.39502 -0.033,-1.287996 0.40611,-2.265164 1.308106,-3.13916 2.009992,-1.946992 3.981176,-3.933934 5.972168,-5.898926 0.342996,-0.338 0.615433,-0.678246 0.669433,-1.198242 0.19,-1.848992 0.168809,-3.700696 0.153809,-5.554688 -0.004,-0.717996 -0.281055,-1.220887 -0.977051,-1.483887 -0.956996,-0.360996 -1.644238,-1.024668 -2.115234,-1.930664 -1.293996,-2.490988 -0.502391,-5.011641 2.037597,-6.452637 1.046996,-0.592996 1.079653,-0.821433 0.222657,-1.690429 -0.662,-0.672 -1.337586,-1.333305 -1.996582,-2.008301 -2.869992,-2.941988 -5.646536,-5.975989 -8.686524,-8.750977 -0.511,-0.465 -0.951262,-0.626008 -1.614258,-0.312012 -0.729996,0.345 -1.509543,0.548899 -2.352539,0.399903 -2.157992,-0.383 -3.745664,-1.951739 -4.07666,-4.073731 -0.313,-2.007992 0.687629,-3.917215 2.661621,-4.866211 0.723996,-0.348 0.973824,-0.787922 0.944824,-1.565918 -0.051,-1.413996 -0.0083,-2.83059 -0.0073,-4.246582 0,-0.404 0.05648,-0.843016 -0.228516,-1.166016 -1.482992,-1.684992 -3.093035,-3.243809 -4.853027,-4.924805 -0.035,0.436 -0.06738,0.660301 -0.06738,0.883301 -0.005,6.135976 9.48e-4,12.271251 -0.01904,18.407227 -0.001,0.741996 0.293414,1.277856 0.79541,1.776856 2.130992,2.111992 4.229938,4.256106 6.37793,6.350098 0.930996,0.906996 1.373148,1.920773 1.327148,3.238769 -0.078,2.221992 -0.02592,4.44984 -0.06592,6.673828 -0.013,0.716 0.197863,1.2132 0.859863,1.5542 0.650996,0.333996 1.104512,0.864047 1.249512,1.623047 0.271996,1.416992 -0.417762,2.724644 -1.697754,3.18164 -1.354996,0.485 -2.911653,-0.07098 -3.493653,-1.250976 -0.667996,-1.353996 -0.29907,-2.789407 1.023926,-3.587403 0.644996,-0.388996 0.844172,-0.864246 0.826172,-1.573242 -0.037,-1.413996 0.0028,-2.830586 -0.01318,-4.246582 -0.049,-4.451984 0.541937,-3.400602 -2.852051,-6.70459 -1.364992,-1.330996 -2.755644,-2.633676 -4.202636,-4.013672 -0.271,0.931996 -0.115485,1.626707 0.499511,2.220703 0.412,0.398 0.776684,0.8555 1.22168,1.208496 2.034992,1.614996 3.242856,3.537329 2.63086,6.278321 -0.233,1.040996 0.1663,1.818785 1.154296,2.425781 1.279996,0.785996 1.407758,2.675528 0.405762,3.811524 -1.047996,1.188992 -3.065414,1.243785 -4.17041,0.112793 -1.053996,-1.080996 -1.08693,-3.110497 0.164062,-3.833497 1.238996,-0.716996 1.408852,-1.649984 1.297852,-2.85498 -0.04,-0.434 -0.0049,-0.874969 -0.0029,-1.313965 0.006,-1.415996 -1.815777,-3.819485 -3.238769,-4.271485 -0.021,0.062 -0.06006,0.124504 -0.06006,0.1875 -0.005,6.471976 -0.0079,12.944529 -0.0059,19.416505 0,0.773996 0.271683,1.423469 0.846679,1.980469 1.572996,1.523992 3.085786,3.110195 4.675782,4.617187 0.950996,0.901996 1.319035,1.927309 1.311035,3.237305 -0.045,7.382972 -0.01281,14.766466 -0.0498,22.1484381 -0.006,1.1389952 0.375457,1.9695146 1.189453,2.7495118 2.167992,2.0739916 4.261841,4.2246687 6.402833,6.32666027 0.692996,0.67999728 1.023882,1.45457433 1.004882,2.43457033 -0.041,1.9879924 0.03187,3.9798519 -0.05713,5.9648439 -0.048,1.073996 0.28098,1.6765666 1.250976,2.2265626 2.027992,1.147996 2.902063,3.065012 2.789063,5.354004 -0.108,2.194992 -1.091829,3.958446 -3.090821,5.002442 -0.762746,0.398246 -1.564257,0.616418 -2.359863,0.669433 z M 3.7920394,18.800305 c 1.2009952,-0.01 2.0931915,-1.012477 2.0961915,-2.355469 0.003,-1.350996 -0.9094705,-2.285129 -2.2514649,-2.307129 -1.2329952,-0.02 -2.1700391,1.023207 -2.1650391,2.408203 0.004,1.286996 1.0113177,2.266395 2.3203125,2.254395 z M 29.473681,18.415051 c 1.461992,-0.012 2.490769,-1.185805 2.488769,-2.841797 -0.002,-1.637996 -1.091617,-2.711524 -2.724609,-2.686524 -1.459996,0.022 -2.617395,1.235379 -2.629395,2.755371 -0.011,1.520996 1.295239,2.78495 2.865235,2.77295 z M -8.4306171,14.218273 c 0.8759964,0.021 1.5022969,-0.598258 1.5292969,-1.510254 0.024,-0.871996 -0.5997494,-1.533637 -1.4897462,-1.577637 -0.8239964,-0.042 -1.6156526,0.740149 -1.6186526,1.598145 -0.002,0.829996 0.6741055,1.467746 1.5791019,1.489746 z M 14.037157,12.001965 c 1.391992,-0.017 2.346426,-1.077711 2.336426,-2.5957037 -0.009,-1.4119944 -1.072903,-2.4125547 -2.545899,-2.3935547 -1.368992,0.018 -2.411527,1.1249474 -2.415527,2.5649414 -0.004,1.434996 1.088004,2.443313 2.625,2.424317 z M -21.319778,5.7046011 c 0.809,-0.029 1.462012,-0.7779529 1.437012,-1.6479493 -0.021,-0.7549968 -0.76223,-1.4623789 -1.532226,-1.4633789 -0.814,-10e-4 -1.579411,0.8317145 -1.545411,1.6787109 0.032,0.8219968 0.768629,1.4636169 1.640625,1.4326173 z M 40.865771,2.2563588 c 0.855996,0.018 1.488437,-0.6168357 1.523437,-1.52783208 0.031,-0.84499664 -0.63582,-1.55163684 -1.486816,-1.57763676 -0.857996,-0.025 -1.534781,0.61381996 -1.571777,1.48681644 -0.039,0.9139964 0.61016,1.5976524 1.535156,1.6186524 z M -1.4140154,1.6279408 C -0.60501864,1.6319408 0.00555882,0.92849564 -4.4114703e-4,4.9935762e-4 -0.00544112,-0.85249724 -0.59517494,-1.4492741 -1.4491717,-1.4672741 c -0.8979964,-0.019 -1.573875,0.68300761 -1.546875,1.60400393 0.025,0.82899668 0.7250349,1.48821097 1.5820313,1.49121097 z M 57.223681,-0.14452018 c 1.369996,0.011 2.431965,-1.03727872 2.438965,-2.40527352 0.007,-1.455994 -1.100254,-2.5788008 -2.53125,-2.5708008 -1.378992,0.009 -2.436894,1.1104396 -2.441894,2.5444336 -0.004,1.3959944 1.062187,2.41964076 2.534179,2.43164072 z M 33.897509,-1.5639538 c 0.857996,0.004 1.467562,-0.634879 1.476562,-1.546875 0.009,-0.9099964 -0.561765,-1.4525899 -1.530761,-1.4545899 -0.887996,-0.002 -1.553707,0.6173122 -1.574707,1.4663086 -0.022,0.8539968 0.69591,1.5311563 1.628906,1.5351563 z m 10.951172,-2.2573243 c 0.833996,0 1.46159,-0.6811052 1.45459,-1.5791016 -0.007,-0.8769964 -0.634793,-1.5152266 -1.508789,-1.5322266 -0.835996,-0.017 -1.594664,0.7735853 -1.555664,1.6215821 0.036,0.7949968 0.784867,1.4887461 1.609863,1.4897461 z m -78.692873,-4.5981446 c 1.383996,10e-4 2.332637,-1.0567805 2.327637,-2.5927733 -0.004,-1.419996 -1.049395,-2.414809 -2.525391,-2.403809 -1.336996,0.011 -2.460727,1.168903 -2.469727,2.545899 -0.008,1.3389932 1.200485,2.4496833 2.667481,2.4506833 z M 2.4766097,-9.0976454 c 0.957996,0.011 1.7447696,-0.823706 1.7387696,-1.8457036 -0.005,-1.005996 -0.6908443,-1.673035 -1.7358399,-1.686035 -1.065996,-0.015 -1.77296889,0.672707 -1.79296881,1.741699 -0.019,0.980998 0.77904311,1.7790396 1.79003911,1.7900396 z M -17.795363,-13.956532 c 0.757996,0.005 1.376996,-0.685133 1.395996,-1.557129 0.021,-0.896996 -0.59368,-1.533875 -1.492676,-1.546875 -0.800996,-0.012 -1.567891,0.723906 -1.587891,1.524902 -0.02,0.754996 0.853571,1.574102 1.684571,1.579102 z m 47.458009,-0.178711 c 0.823996,-0.004 1.45166,-0.693219 1.45166,-1.595215 0.001,-0.826996 -0.708133,-1.51 -1.557129,-1.5 -0.776996,0.008 -1.520481,0.762922 -1.542481,1.565918 -0.024,0.829996 0.73495,1.534297 1.64795,1.529297 z M 9.7451646,-23.706532 c 0.7759964,-0.015 1.3580934,-0.679852 1.3710934,-1.568848 0.014,-0.944996 -0.541031,-1.516973 -1.478027,-1.521973 -0.9149964,-0.005 -1.5009298,0.586653 -1.5029298,1.514649 -0.001,0.890996 0.715867,1.593168 1.6098634,1.576172 z m -15.106934,-14.044923 c 1.488994,-0.013 2.4854454,-1.001945 2.4814454,-2.460937 -0.004,-1.391996 -1.182092,-2.468571 -2.663086,-2.434571 -1.3989944,0.031 -2.4591052,1.143227 -2.4331056,2.553223 0.025,1.355996 1.1397522,2.354285 2.6147462,2.342285 z m 29.1064464,-6.344238 c 0.820996,-0.027 1.498929,-0.741035 1.502929,-1.582031 0.003,-0.825 -0.698851,-1.489282 -1.568847,-1.488282 -0.883996,0.001 -1.533086,0.637399 -1.538086,1.504395 -0.005,0.884996 0.722008,1.593918 1.604004,1.565918 z m 14.334961,-2.942871 c 1.519992,-0.007 2.501699,-0.968973 2.491699,-2.438965 -0.009,-1.377996 -1.095059,-2.382766 -2.581055,-2.384766 -1.427992,-0.002 -2.480839,1.042731 -2.485839,2.469727 -0.006,1.409992 1.035199,2.361004 2.575195,2.354004 z M 4.2534652,-47.858877 c 1.6519936,0.007 2.7153985,-0.996527 2.7333985,-2.582519 0.019,-1.542996 -1.0844326,-2.616184 -2.7114258,-2.638184 -1.6659936,-0.022 -2.7864142,1.049375 -2.7744142,2.651367 0.012,1.558996 1.0864483,2.562336 2.7524415,2.569336 z m 15.5522468,-0.878906 c 0.866996,-0.031 1.471519,-0.692754 1.457519,-1.59375 -0.014,-0.880996 -0.689808,-1.527887 -1.549804,-1.483887 -0.901,0.045 -1.47859,0.6735 -1.45459,1.583496 0.022,0.884996 0.682879,1.524141 1.546875,1.494141 z m 2.289551,-19.464844 c 1.435992,-0.016 2.544941,-1.018852 2.564941,-2.318848 0.024,-1.468996 -1.064379,-2.611887 -2.484375,-2.608887 -1.509996,0.003 -2.524391,0.974067 -2.525391,2.414063 -0.002,1.466992 1.032829,2.529672 2.444825,2.513672 z" />
        </g>
        <g
           id="g40"
           transform="translate(400.5576,272.3071)"
           style="" />
        <g
           id="g44"
           transform="translate(144.3872,261.521)"
           style="" />
        <g
           id="g48"
           transform="translate(122.1953,250.4321)"
           style="" />
        <g
           id="g52"
           transform="translate(338.7383,227.4736)"
           style="" />
        <g
           id="g56"
           transform="translate(321.1094,316.1841)"
           style="">
          <path
             id="path58"
             style=";fill-opacity:1;fill-rule:nonzero;stroke:none"
             d="m -0.90333731,46.524896 c -0.14739629,0.0041 -0.29817199,-0.0039 -0.45117189,-0.0249 -1.3859986,-0.19 -2.2618634,-1.142494 -2.3598633,-2.604493 -0.036,-0.540999 -0.017977,-1.052379 -0.5009766,-1.463379 -2.5439975,-2.170997 -4.62303,-4.81383 -7.1030279,-7.048828 -0.619999,-0.558999 -0.892695,-1.233571 -0.887695,-2.05957 0.013,-1.820998 -0.05349,-3.644405 0.02051,-5.462403 0.041,-0.993999 -0.253794,-1.495985 -1.237793,-1.833984 -2.313998,-0.793999 -3.27177,-2.236737 -3.23877,-4.552735 0.029,-2.099998 1.123635,-3.57995 3.348633,-4.272949 0.886999,-0.277 1.119746,-0.722821 1.114746,-1.59082 -0.029,-5.392995 -0.05349,-10.7862053 0.02051,-16.17919995 0.023,-1.60999835 -0.497696,-2.77859885 -1.637695,-3.91259775 -4.135996,-4.1109959 -8.40329,-8.0874653 -12.467286,-12.2724613 -1.204999,-1.241999 -1.67698,-2.509201 -1.35498,-4.179199 0.288999,-1.493999 -0.193517,-2.679974 -1.353516,-3.771973 -2.772997,-2.609997 -5.275112,-5.522725 -8.162109,-7.990723 -2.370998,-2.026998 -3.046579,-4.307081 -3.017579,-7.330078 0.181,-18.640982 0.166297,-37.28429 0.0293,-55.926271 -0.008,-1.166999 0.382989,-2.090603 1.187988,-2.891602 2.171998,-2.167 4.335444,-4.3417 6.502442,-6.5127 0.857999,-0.861 1.134226,-3.26161 0.407227,-4.22461 -0.459,-0.609 -0.606981,-1.24707 -0.604981,-1.97607 0.008,-3.473 -0.01814,-6.94351 0.0059,-10.41651 0.022,-2.94799 -0.332931,-2.49832 2.518066,-2.52832 1.726998,-0.019 1.804082,0.0398 1.809082,1.82081 0.008,3.67399 -0.02088,7.34895 -0.04687,11.02294 -0.003,0.537 0.06369,1.20902 -0.341309,1.54102 -1.017999,0.831 -0.850761,1.91838 -0.780761,2.96338 0.094,1.431 -0.412802,2.53258 -1.445801,3.49658 -1.846998,1.726 -3.620123,3.53007 -5.474121,5.247074 -0.953999,0.883999 -1.414715,1.867361 -1.407715,3.193359 0.037,7.718993 0.02565,15.439188 0.01465,23.159181 -0.015,11.191989 -0.03203,22.383695 -0.08203,33.575684 -0.006,1.267999 0.332134,2.287556 1.286133,3.143555 0.926999,0.832999 1.812087,1.716466 2.663086,2.626465 0.609999,0.651999 1.285505,0.813086 2.166504,0.788086 2.660997,-0.078 5.325796,-0.06102 7.987793,-0.04102 0.701999,0.005 1.384524,0.129661 1.936523,0.70166 2.200998,2.278998 4.448069,4.513343 6.643067,6.79834 0.632999,0.659 1.208407,1.049633 2.191406,0.723633 1.130999,-0.374999 2.045962,0.149126 2.709961,1.078125 0.6719997,0.940999 0.6876678,1.961915 0.159668,2.961914 -0.526999,0.997999 -1.413391,1.385078 -2.52539,1.330079 -1.834999,-0.091 -2.989012,-1.610526 -2.562012,-3.436524 0.113,-0.477 0.217132,-0.856344 -0.213867,-1.277344 -2.312998,-2.262998 -4.599909,-4.551147 -6.878907,-6.848144 -0.558999,-0.563 -1.177005,-0.829383 -1.979004,-0.817383 -2.155998,0.031 -4.315147,0.0065 -6.473144,0.02051 -0.232,0.001 -0.534309,-0.142921 -0.716309,0.205079 0.441,0.360999 0.962055,0.314941 1.456055,0.314941 1.684998,10e-4 3.372177,0.0032 5.055176,-0.0498 0.985999,-0.031 1.745457,0.304603 2.418457,1.016602 0.949999,1.002999 1.909055,2.008786 2.956054,2.904785 0.85,0.726999 1.217313,1.579368 1.195313,2.651367 -0.023,1.046999 0.03213,2.061779 0.432129,3.071778 0.448999,1.128999 0.0071,2.130251 -0.856934,2.90625 -0.822999,0.740999 -1.79329,0.907777 -2.821289,0.446777 -1.082999,-0.485999 -1.676219,-1.318856 -1.699219,-2.526855 -0.028,-1.577999 0.931655,-2.544047 2.743653,-2.748047 0.392999,-0.045 0.868203,0.04215 0.908203,-0.547852 0.048,-0.709999 0.121913,-1.47395 -0.413086,-2.022949 -1.196999,-1.230999 -2.446083,-2.410122 -3.684082,-3.599121 -0.112,-0.107 -0.303032,-0.18943 -0.457031,-0.19043 -1.864999,-0.013 -3.731635,-0.0088 -5.598633,-0.0088 -0.053,0.091 -0.107133,0.179996 -0.161133,0.270996 0.589999,0.538 1.125786,1.15561 1.779785,1.59961 2.380998,1.616998 3.208879,3.842491 2.775879,6.625488 -0.143,0.913999 0.268598,1.606352 0.912598,2.235352 2.122998,2.070998 4.268689,4.124787 6.304687,6.279785 0.911999,0.964999 1.852783,1.482203 3.175782,1.283203 0.944999,-0.141 1.684172,0.226641 2.326172,0.9316407 0.769999,0.8469991 1.612387,1.6284306 2.421386,2.4404297 1.7359986,1.7449983 4.2986274,1.8556703 6.1406255,0.2636719 0.8999991,-0.7769992 2.2046144,-0.908265 3.20361338,-0.3222656 0.98699901,0.5779994 1.52248415,1.8249856 1.27148441,2.9589844 -0.28299972,1.2819988 -1.15831774,2.0855627 -2.42431649,2.2265626 -1.1779988,0.1319999 -2.1829732,-0.392427 -2.6469727,-1.5864258 -0.3149997,-0.8129992 -0.8020048,-1.0859961 -1.604004,-1.0209961 -0.4019995,0.033 -0.8129613,-0.017984 -1.2099609,0.041016 -1.2539988,0.1869998 -2.2278486,-0.2857353 -3.0688482,-1.1777344 -0.877999,-0.9319991 -1.784989,-1.8361182 -2.687988,-2.7451173 -0.544999,-0.5489994 -1.164329,-0.8790232 -1.986328,-0.6240234 0.058,0.4479995 0.41118,0.6386252 0.65918,0.890625 1.084999,1.1069989 2.254673,2.140013 3.263672,3.3120118 1.001999,1.1629988 2.1982355,1.4972849 3.6152341,1.2172852 1.0729989,-0.2119998 1.9173679,0.1339773 2.6513672,0.8759766 0.6159994,0.6229993 1.2000984,1.2822115 1.8500977,1.8662109 0.9459991,0.8499992 1.8064304,0.71301462 2.44042976,-0.3339843 0.44199955,-0.7279993 1.01815719,-1.2445431 1.91015634,-1.331543 1.5019985,-0.1469999 2.7217934,0.6305131 3.112793,1.99951173 C 4.5522757,0.59149891 3.905681,1.940454 2.6166823,2.5224534 1.2716837,3.1304528 0.04407195,2.7413388 -0.85792715,1.3813401 -1.0919269,1.0303405 -1.3162011,0.62768 -1.7632006,0.67967995 -3.346199,0.85967977 -4.2913695,-0.11939148 -5.1103687,-1.1923904 c -1.1609988,-1.5199985 -2.7249548,-1.5435038 -4.3769532,-1.4165039 -0.3579996,0.028 -0.5698941,0.169641 -0.5668941,0.5566406 0.003,0.3929996 0.2374726,0.5305977 0.5844722,0.5375977 0.5059995,0.009 1.0161138,0.05193 1.5161133,0.00293 1.063999,-0.1029998 1.8785203,0.2712665 2.5825196,1.0722657 0.8449992,0.95999904 1.769833,1.8503447 2.6528321,2.7773438 0.4039996,0.4239996 0.8215906,0.7855235 1.4545899,0.8115235 1.04299898,0.043 2.0839777,0.1151055 3.1259767,0.1831055 C 2.8632868,3.396512 3.7872809,3.2310779 4.65428,2.6630784 5.2482794,2.2730788 5.9410894,2.0814145 6.6830887,2.2324144 7.9740874,2.4974141 8.896327,3.5918532 8.902327,4.8808519 8.908327,6.2378506 7.8876186,7.4663092 6.5776199,7.674309 5.1436213,7.9033088 3.9654672,7.3326473 3.6464675,5.8476488 3.3534678,4.4856502 2.6388374,4.4150746 1.5268385,4.4340746 c -4.1239958,0.072 -4.1534013,0.066274 -6.8583986,-3.1157228 -0.950999,-1.11899884 -1.9887242,-1.71124205 -3.4907227,-1.57324218 -1.2249992,0.11199988 -1.6833202,0.84162221 -1.0283204,1.91162118 0.1729999,0.2819997 0.4295042,0.5178596 0.666504,0.7558594 1.6419983,1.6469983 3.3817633,3.2084979 4.9057618,4.9584962 1.2399988,1.4219985 2.599959,2.1385896 4.48095715,1.8295899 1.02499895,-0.1679999 1.80130545,0.2717859 2.48730475,1.0297847 0.9489991,1.048999 1.9795206,2.023412 2.9575196,3.045411 0.5349995,0.558999 1.080618,0.663054 1.8076172,0.331054 1.1239989,-0.511999 2.2845794,-0.570995 3.3925787,0.104004 1.604998,0.978999 2.228026,2.961178 1.478027,4.680176 C 11.546668,20.176104 9.7704776,21.1195 8.0834793,20.645501 6.0314814,20.070501 4.939839,18.516483 5.2768386,16.479485 5.4028385,15.718486 5.236717,15.216559 4.6777175,14.705559 3.7837184,13.88756 2.8994237,13.04132 2.1274245,12.111321 1.2814253,11.093322 0.26844658,10.793387 -0.99855215,10.879387 c -0.72699925,0.05 -1.00009375,0.265603 -0.99609375,1.016602 0.024,4.685995 0.015324,9.371645 0.00732,14.056641 -10e-4,0.500999 0.136723,0.919809 0.4907227,1.278808 1.39199857,1.418999 2.8032983,2.820811 4.1542969,4.278809 0.7909992,0.852999 1.44572,1.148722 2.6367189,0.490723 1.8979981,-1.047999 4.2595443,-0.299592 5.4565434,1.441406 1.244999,1.810998 1.037092,4.182978 -0.503906,5.750977 -1.4619991,1.486998 -3.8928072,1.709315 -5.6748054,0.549316 -1.7869982,-1.164999 -2.0869255,-2.877435 -1.7739259,-4.794434 0.091,-0.558999 -0.00309,-0.947191 -0.4130859,-1.346191 -1.54599846,-1.503998 -3.00186501,-3.108482 -4.6098634,-4.542481 -1.1169989,-0.996999 -1.4964219,-2.12936 -1.4824219,-3.568359 0.043,-4.685995 0.018578,-9.37211 0.017578,-14.058106 0,-0.500999 0.056156,-1.017617 -0.3398437,-1.432617 -1.001999,-1.046999 -1.993466,-2.1040207 -3.001465,-3.1450196 -0.1779998,-0.1829999 -0.3765042,-0.478957 -0.6665039,-0.3559571 -0.3009997,0.1269999 -0.1791758,0.4784925 -0.1801758,0.7294922 -0.01,2.1239979 0.066168,4.2516075 -0.027832,6.3706055 -0.056,1.232999 0.2828096,2.15677 1.2788086,2.86377 1.062999,0.753999 1.3988125,1.832892 1.3828126,3.08789 -0.018,1.381999 -0.028844,2.76551 0.035156,4.145508 0.05,1.062999 -0.3189422,1.902677 -1.0649414,2.617676 -0.6559994,0.63 -1.3216374,1.250763 -1.9526368,1.905762 -0.5549994,0.576999 -0.6632183,1.256594 -0.1992188,1.933594 0.4539996,0.659999 0.9524815,1.189507 1.9174806,0.770508 0.7689992,-0.333 1.5739461,-0.280144 2.2939453,0.276855 1.1529989,0.891999 1.5253862,2.263908 0.9213868,3.503906 -0.6119994,1.257999 -1.9631538,1.860168 -3.3061524,1.472168 -1.2839988,-0.370999 -2.0096601,-1.585611 -1.8266603,-3.099609 0.067,-0.549999 0.082972,-1.021282 -0.3530273,-1.488281 -1.741999,-1.864998 -1.709791,-3.074729 0.262207,-4.719727 1.4209986,-1.184999 2.2986951,-2.499225 2.0126954,-4.428223 -0.083,-0.559999 -0.056098,-1.153332 0.024902,-1.715332 0.2519998,-1.768998 -0.313603,-3.161497 -1.7666016,-4.208496 -0.7129993,-0.515 -0.9427109,-1.2317 -0.9287109,-2.116699 0.043,-2.863997 0.025367,-5.7297065 0.026367,-8.5957036 0,-0.6429994 -0.042806,-1.2726214 -0.7998047,-1.5366212 -0.052,0.098 -0.1073982,0.1549376 -0.1083982,0.2109375 -0.008,4.044996 -0.003,8.0912353 -0.02197,12.1362313 -0.003,0.530999 0.2860825,0.768812 0.6840821,1.007812 1.6619983,0.993999 2.2686991,2.544744 2.1166993,4.385742 -0.1499999,1.802999 -1.0037245,3.215318 -2.7407224,3.924317 -0.657,0.268 -0.940711,0.628122 -0.928711,1.349121 0.033,1.953998 0.006,3.910236 0,5.865234 -10e-4,0.516 0.05052,1.015716 0.436523,1.407715 2.1999979,2.232998 4.3288854,4.536436 6.6298831,6.669434 0.4899995,0.454 0.9265788,0.526625 1.5175782,0.140625 0.9259991,-0.606999 1.90179787,-0.625097 2.84179693,0.0249 1.12699887,0.781 1.49500727,2.094764 0.95800787,3.405762 -0.4348746,1.066624 -1.30904605,1.6996 -2.34082041,1.728516 z m 0.0996094,-1.305176 c 0.76699923,-0.074 1.36317576,-0.824091 1.30517581,-1.64209 -0.0569999,-0.818999 -0.82617667,-1.458996 -1.6801758,-1.395996 -0.8249992,0.059 -1.4721094,0.823993 -1.4121094,1.666992 0.062,0.857999 0.8481103,1.461094 1.78710939,1.371094 z M 7.1987137,38.755364 c 1.5329984,-0.014 2.6426055,-1.216798 2.6206055,-2.841796 -0.02,-1.537999 -1.2149665,-2.679918 -2.8139649,-2.690918 -1.4429986,-0.01 -2.7010313,1.308474 -2.7070313,2.834472 -0.007,1.531999 1.2633923,2.713242 2.9003907,2.698242 z M -5.7226734,35.069818 c 0.8109992,-0.005 1.4355469,-0.710978 1.4355469,-1.625977 0.001,-0.898999 -0.6284111,-1.498168 -1.5454101,-1.472168 -0.8649992,0.025 -1.4618009,0.684681 -1.4458009,1.59668 0.014,0.860999 0.682665,1.506465 1.5556641,1.501465 z M -11.766619,24.162591 c 1.277999,-0.017 2.2978909,-1.139803 2.3378909,-2.570801 0.038,-1.351999 -1.0885059,-2.428176 -2.5415039,-2.430176 -1.439999,-0.001 -2.408133,1.011927 -2.411133,2.523926 -0.004,1.414998 1.138748,2.496051 2.614746,2.477051 z M 9.0590653,18.940423 c 1.1029987,-0.015 1.8366167,-0.863728 1.8076177,-2.094727 -0.027,-1.173999 -0.805697,-1.908902 -2.0126958,-1.899902 -1.1649989,0.009 -1.9716368,0.875192 -1.9526368,2.096191 0.018,1.132999 0.9077161,1.915438 2.1577149,1.898438 z M 6.2084793,6.4174731 c 0.8709991,-0.017 1.4080391,-0.5817471 1.4150391,-1.4897462 0.008,-0.8999991 -0.6040439,-1.5078594 -1.519043,-1.5058594 -0.8559992,0.001 -1.5714259,0.675536 -1.5864259,1.4985352 -0.017,0.8329992 0.7534307,1.5160703 1.6904298,1.4970704 z M 1.5165846,1.52343 C 2.3785838,1.54143 2.9812878,0.90862431 2.9872878,-0.02637475 2.9932878,-0.91437386 2.3596814,-1.5711795 1.4916823,-1.5761795 0.66068311,-1.5801795 0.0114713,-0.89400667 4.71309e-4,-7.5641477e-6 -0.01052868,0.87499156 0.61558553,1.50443 1.5165846,1.52343 Z m -3.8056641,-4.8618166 c 0.7849992,-0.003 1.38639064,-0.6659462 1.40039063,-1.5439453 0.015,-0.8889991 -0.62628213,-1.5677071 -1.48828133,-1.5747071 -0.8129991,-0.007 -1.5721016,0.7325517 -1.5791016,1.5395508 -0.007,0.8069992 0.8119931,1.5831016 1.6669923,1.5791016 z M -20.495623,-18.300301 c 0.783999,-0.002 1.380926,-0.658017 1.398926,-1.541016 0.019,-0.885999 -0.623607,-1.558383 -1.495606,-1.567383 -0.775999,-0.009 -1.56489,0.763271 -1.58789,1.55127 -0.022,0.775999 0.825571,1.560129 1.68457,1.557129 z m 7.967285,-1.233398 c 0.798,0.035 1.477,-0.668736 1.5,-1.552735 0.022,-0.859999 -0.621676,-1.531664 -1.492675,-1.555664 -0.835,-0.023 -1.544356,0.635563 -1.589356,1.476563 -0.042,0.796999 0.730032,1.593836 1.582031,1.631836 z" />
        </g>
        <g
           id="g60"
           transform="translate(333.0732,272.3071)"
           style="" />
        <g
           id="g64"
           transform="translate(229.0298,337.3057)"
           style="">
          <path
             id="path66"
             style=";fill-opacity:1;fill-rule:nonzero;stroke:none"
             d="m -8.1005953,10.061987 c -1.4938138,-0.04206 -2.9506667,-0.8153168 -3.7587887,-2.1796876 -1.360997,-2.2959931 -0.48655,-5.1389725 2.002441,-6.2929689 0.7739979,-0.3599988 1.4467579,-0.64806557 1.4267579,-1.66406254 -0.006,-0.32799901 0.291204,-0.59296168 0.5332031,-0.83496096 2.1699937,-2.1669934 4.3453776,-4.3288427 6.5053713,-6.5068361 0.5809982,-0.5859982 1.26575637,-0.99482 2.07275394,-0.8408203 3.44698976,0.6569979 5.67067536,-1.0491051 8.03466816,-3.3500976 2.2589936,-2.200994 3.3836486,-4.376615 3.0146486,-7.495606 -0.217,-1.832994 -0.03951,-1.821012 -1.8955079,-1.812012 -2.2579934,0.013 -4.5154446,-0.02538 -6.7734377,-0.06738 -0.8989973,-0.017 -1.6161425,0.272035 -2.24414069,0.936035 -1.17999646,1.248997 -2.38474591,2.476323 -3.63574231,3.65332 -0.6159979,0.579 -0.6821238,1.077774 -0.328125,1.842774 0.8199976,1.776994 0.4530784,3.462398 -0.815918,4.8793943 -1.2549961,1.3999958 -2.8428456,2.0483342 -4.7358399,1.444336 -1.8919945,-0.6039982 -3.0622175,-1.9060103 -3.4702145,-3.8540043 -0.525,-2.504991 1.749102,-6.305137 5.7670895,-5.24414 0.8699976,0.229997 1.4350644,0.03469 2.0390626,-0.612305 1.3559958,-1.453997 2.8079222,-2.815123 4.19091806,-4.245117 0.60799817,-0.627 1.29904154,-0.891836 2.16503914,-0.881836 2.3599928,0.028 4.7181321,-5.69e-4 7.0781252,0.02344 0.8699973,0.01 1.5529285,-0.28646 2.1489255,-0.918457 0.855997,-0.905997 1.730368,-1.799184 2.651368,-2.638184 3.849988,-3.509988 3.485539,-3.050731 3.477539,-7.886719 -0.006,-3.908988 -3.19e-4,-3.896352 2.888672,-6.527343 1.007997,-0.918 2.0361,-1.833363 2.975097,-3.19336 -1.525994,0 -2.826073,0.04382 -4.12207,-0.01318 -0.986997,-0.044 -1.71002,0.281351 -2.39502,1.006348 -1.898994,2.007994 -3.834014,3.986073 -5.833008,5.893067 -0.818997,0.781997 -1.3265995,1.472268 -0.641601,2.572265 0.132,0.213 0.1446,0.517692 0.162597,0.783692 0.138,2.025994 -1.0277201,3.822397 -2.9077144,4.504394 -1.8609946,0.673 -3.9535894,0.08871 -5.1005861,-1.425293 -1.2139964,-1.602994 -1.2362669,-3.920267 -0.051269,-5.468261 1.2369961,-1.615997 3.2286777,-2.213685 5.138672,-1.429688 0.7489976,0.307 1.2171385,0.190997 1.7651367,-0.375 2.2299938,-2.297994 4.5074028,-4.549573 6.7543938,-6.830567 0.545,-0.551997 1.165386,-0.828613 1.942383,-0.953613 2.060994,-0.332 4.103745,0.114815 6.156739,0.0498 0.600997,-0.019 1.092018,-0.141403 1.541015,-0.587403 3.344991,-3.327988 6.693602,-6.653441 10.079591,-9.940429 0.906,-0.881 1.314036,-1.827191 1.311036,-3.117188 -0.033,-19.246943 -0.02925,-38.49473 -0.01025,-57.742683 0.001,-0.921 -0.284503,-1.61542 -0.9375,-2.23242 -1.909994,-1.805 -3.770967,-3.6645 -5.709961,-5.4375 -1.125997,-1.03 -1.557684,-2.21606 -1.325684,-3.70606 0.136,-0.87897 0.122071,-1.72452 -0.648926,-2.41552 -0.402997,-0.361 -0.481933,-0.95833 -0.481933,-1.50733 -0.001,-4.04497 0.01377,-8.08979 0.0088,-12.13476 0,-0.658 0.272108,-1.03762 0.933105,-1.05762 0.841997,-0.024 1.684859,-0.0217 2.526856,-0.003 0.548997,0.011 0.864765,0.29044 0.884765,0.87744 0.016,0.437 0.113582,0.87211 0.121581,1.30811 0.069,3.74097 -0.02781,7.48024 -0.153807,11.21924 -0.02,0.597 -0.23477,1.08859 -0.61377,1.55859 -0.640997,0.797 -0.573515,3.32142 0.146485,4.00342 1.884994,1.784 3.515114,3.82933 5.537108,5.46533 1.388998,1.125 1.994188,2.49092 1.992188,4.29492 -0.017,17.427956 0.01383,34.856264 0.02783,52.28321 0.002,2.157994 -0.02323,4.314686 -0.03223,6.47168 -0.004,1.033997 -0.302132,1.946226 -1.18213,2.553223 -0.992997,0.683997 -1.309202,1.604741 -1.283203,2.781738 0.062,2.762994 0.01852,5.528025 0.06152,8.291016 0.016,1.087997 -0.342001,1.959102 -1.125,2.704102 -1.072995,1.022997 -2.10239,2.08919 -3.171386,3.117187 -0.431,0.413 -0.583594,0.829942 -0.433594,1.439942 0.213,0.864997 0.228263,1.737378 -0.427734,2.484375 -0.939,1.070997 -2.277432,1.330458 -3.461426,0.647461 -1.212997,-0.699 -1.773849,-2.162398 -1.297852,-3.379395 0.509,-1.300997 1.778252,-2.039289 3.177246,-1.696289 0.770997,0.189 1.270183,0.0084 1.78418,-0.537598 0.948997,-1.004997 1.934085,-1.97669 2.934081,-2.929687 0.499001,-0.476 0.737423,-1.006292 0.732422,-1.696289 -0.018,-2.527994 -0.009,-5.05697 -0.02197,-7.584961 -0.001,-0.253 0.135586,-0.615817 -0.149414,-0.736817 -0.333997,-0.141 -0.529492,0.224805 -0.729492,0.424805 -4.794985,4.786985 -9.585203,9.578921 -14.367188,14.378906 -0.506997,0.51 -0.875539,1.099468 -0.852539,1.876465 0.036,1.212997 -0.141107,2.461816 0.08789,3.632813 0.440997,2.253994 -0.260376,3.962964 -2.005371,5.334961 -0.758,0.595997 -0.951895,1.372851 -0.941895,2.318848 0.044,4.044988 0.0055,8.091245 0.04248,12.13623 0.01,1.021997 -0.332407,1.775773 -1.066407,2.48877 -2.589991,2.5099928 -5.118509,5.0832656 -7.6875005,7.6142581 C 7.3380208,-2.0793597 7.1056954,-1.608714 7.4706942,-0.78371643 7.9796927,0.36528012 7.411394,1.6696998 6.3163973,2.3656977 5.2634003,3.0356956 3.8762265,2.8773005 2.9692292,1.9863032 2.1222319,1.1553056 1.8195546,0.00364003 2.2265534,-0.96535706 2.6975522,-2.0863537 3.6043852,-2.6727982 4.7753816,-2.5927985 c 1.0959967,0.075 1.8150413,-0.3614946 2.5400392,-1.1044922 2.3779928,-2.4359928 4.8010832,-4.8282925 7.2260742,-7.2172853 0.539,-0.53 0.821848,-1.105073 0.818848,-1.87207 -0.018,-3.673991 -0.0036,-7.347962 -0.01465,-11.02295 -0.001,-0.258 0.156775,-0.615762 -0.303222,-0.780762 -0.324,0.41 -0.243164,0.893657 -0.243164,1.347657 -0.001,2.796991 -0.01884,5.595096 0.03516,8.39209 0.02,1.019997 -0.286675,1.809461 -1.013672,2.522461 -2.166994,2.122994 -4.3498812,4.2342486 -6.4218752,6.448242 -1.0610027,1.1339967 -2.1375673,1.6992492 -3.7265625,1.4062501 -1.3149961,-0.2429994 -2.6141242,-0.1029847 -3.59912123,1.0620117 -0.44599865,0.5269985 -0.48052948,0.7977669 0.10546875,1.2597657 C 1.5746976,-1.0538838 1.651581,0.82634976 0.43358464,2.0053461 -0.72041188,3.1223428 -2.5275281,3.0094597 -3.6035248,1.7504633 c -1.1169967,-1.30499601 -0.868183,-2.9578156 0.6328125,-4.0078126 0.5249985,-0.3679988 1.1300715,-0.6570601 1.4970703,-1.1850586 1.31099616,-1.8929943 3.0975732,-2.5741239 5.3305666,-2.2031251 0.033,0.006 0.068074,-0.00207 0.1010742,0.00293 0.983997,0.1339997 1.7195295,-0.2416857 2.4155274,-0.9506836 2.0769937,-2.1169937 4.2110608,-4.1784244 6.3310548,-6.2534184 0.593997,-0.581997 0.818918,-1.282659 0.815918,-2.097656 -0.007,-2.358994 0.0055,-4.719134 -0.0015,-7.078125 0,-0.248 0.10416,-0.546511 -0.23584,-0.770508 -0.481997,0.382997 -0.449707,0.924733 -0.449707,1.44873 -10e-4,2.022994 -0.0032,4.046854 0.0088,6.068848 0.004,0.629997 -0.119332,1.175344 -0.590332,1.652344 -1.820994,1.847994 -3.6228568,3.7164551 -5.4228514,5.5854494 -0.5109985,0.5309985 -1.0972407,0.8440355 -1.8442383,0.9360352 -1.3799958,0.1709994 -2.7611176,0.056891 -4.1411134,0.087891 -0.58999823,0.014 -1.09334123,0.1112906 -1.54833988,0.5712891 -1.77699462,1.7969946 -3.59556022,3.5521071 -5.39355482,5.3291017 -0.3099991,0.30699913 -0.6369069,0.61319253 -0.8789063,0.97119145 -0.5229985,0.77999766 -0.3903176,1.19043845 0.4716797,1.52343755 0.7669979,0.2969991 1.4657948,0.6660802 1.987793,1.3300781 1.6209952,2.062994 1.1621536,5.1689146 -0.9858398,6.6079104 -0.7919736,0.5302475 -1.7008797,0.7679121 -2.5971681,0.7426761 z m 0.2182618,-1.7475587 c 1.5349952,-0.003 2.6108865,-1.182845 2.6088868,-2.8608399 -0.002,-1.5939952 -1.152462,-2.6957344 -2.7934572,-2.6777344 -1.5239952,0.017 -2.6386761,1.2424228 -2.6176761,2.878418 0.02,1.5959952 1.1432513,2.6631563 2.8022465,2.6601563 z M 4.8632723,1.5263422 c 0.7949976,0.055 1.5291289,-0.66297525 1.5571289,-1.52197267 0.027,-0.81299757 -0.5860845,-1.45878913 -1.4340821,-1.50878913 -0.923997,-0.055 -1.6467112,0.58774886 -1.6787109,1.48974616 -0.028,0.77999766 0.6796665,1.48101594 1.5556641,1.54101564 z M -1.5000092,1.4765375 C -0.57601184,1.5105375 -0.01700906,0.96197211 -9.1180052e-6,-2.5004858e-5 0.01699083,-0.93802219 -0.54110965,-1.5083493 -1.4751068,-1.5073493 c -0.8909973,0 -1.5035079,0.60593246 -1.5205079,1.50292976 -0.019,0.93899718 0.4916085,1.44295734 1.4956055,1.48095704 z M -7.268564,-10.296412 c 1.3469961,-0.026 2.2145469,-1.06189 2.1855469,-2.608887 -0.028,-1.481994 -1.0205084,-2.408117 -2.5415039,-2.370117 -1.3569961,0.033 -2.452949,1.217779 -2.397949,2.592773 0.054,1.351997 1.2789105,2.413231 2.753906,2.386231 z M 6.1215731,-30.900905 c 1.4779955,-0.042 2.5829961,-1.289732 2.5209961,-2.844726 -0.062,-1.545997 -1.3230556,-2.729735 -2.8520508,-2.677735 -1.5099955,0.05 -2.7489021,1.458328 -2.6499024,3.007325 0.099,1.540994 1.3089619,2.562136 2.9809571,2.515136 z m 23.4316409,-4.26416 c 0.857997,0.029 1.507297,-0.617046 1.529297,-1.519043 0.021,-0.807997 -0.719694,-1.565848 -1.533691,-1.568848 -0.792997,-0.003 -1.532875,0.747386 -1.546875,1.567383 -0.014,0.834997 0.654272,1.489508 1.551269,1.520508 z" />
        </g>
        <g
           id="g68"
           transform="translate(217.5015,244.9619)"
           style="" />
        <g
           id="g72"
           transform="translate(208.0747,272.8911)"
           style="" />
        <g
           id="g76"
           transform="translate(276.8398,163.0264)"
           style="" />
        <g
           id="g80"
           transform="translate(5.7266,174.2305)"
           style="" />
        <g
           id="g84"
           transform="translate(235.2671,162.3447)"
           style="" />
        <g
           id="g88"
           transform="translate(197.3818,178.0986)"
           style="" />
        <g
           id="g92"
           transform="translate(215.9189,163.5391)"
           style="" />
        <g
           id="g96"
           transform="translate(406.6182,163.5107)"
           style="" />
        <g
           id="g100"
           transform="translate(450.4893,162.6592)"
           style="" />
        <g
           id="g104"
           transform="translate(52.9058,164.5176)"
           style="" />
        <g
           id="g108"
           transform="translate(133.4888,162.6602)"
           style="" />
        <g
           id="g112"
           transform="translate(345.1396,162.6602)"
           style="" />
        <g
           id="g116"
           transform="translate(415.0469,162.3672)"
           style="" />
        <g
           id="g120"
           transform="translate(88.5356,161.8945)"
           style="" />
        <g
           id="g124"
           transform="translate(156.3574,153.7354)"
           style="" />
        <g
           id="g128"
           transform="translate(482.0596,153.7354)"
           style="" />
        <g
           id="g132"
           transform="translate(317.6719,164.9258)"
           style="" />
        <g
           id="g136"
           transform="translate(370.249,173.0771)"
           style="" />
        <g
           id="g140"
           transform="translate(102.875,173.0771)"
           style="" />
        <g
           id="g144"
           transform="translate(322.2324,161.9922)"
           style="" />
        <g
           id="g148"
           transform="translate(38.9385,163.333)"
           style="" />
        <g
           id="g152"
           transform="translate(464.625,163.4326)"
           style="" />
        <g
           id="g156"
           transform="translate(387.0703,163.3037)"
           style="" />
        <g
           id="g160"
           transform="translate(114.4854,163.4951)"
           style="" />
        <g
           id="g164"
           transform="translate(46.5112,177.0332)"
           style="" />
        <g
           id="g168"
           transform="translate(36.292,174.793)"
           style="" />
        <g
           id="g172"
           transform="translate(467.3418,179.71)"
           style="" />
        <g
           id="g176"
           transform="translate(384.457,174.7939)"
           style="" />
        <g
           id="g180"
           transform="translate(117.1357,174.7939)"
           style="" />
      </g>
    </g>
  </g>
</svg>

