<?xml version="1.0" encoding="UTF-8" standalone="no"?>
<svg
   version="1.1"
   id="svg2554"
   width="485.29385"
   height="451.85114"
   viewBox="0 0 485.29385 451.85114"
   xmlns="http://www.w3.org/2000/svg"
   xmlns:svg="http://www.w3.org/2000/svg">
  <style>
    /* Cor padrão para Modo Claro (Azul FURG) */
    .logo-dinamica { 
      fill: #003366; 
      transition: fill 0.3s ease; 
    }
    /* Cor para Modo Escuro (Branco) */
    @media (prefers-color-scheme: dark) {
      .logo-dinamica { 
        fill: #ffffff; 
      }
    }
  </style>
  <g id="g2560" transform="translate(-14,-31)">
    <path
       class="logo-dinamica"
       d="m 47.762263,481.92676 c -0.955755,-0.55683 -2.191289,-1.85988 -2.74563,-2.89568 C 44.462291,477.99528 40.65093,456.30205 36.54694,430.82391 32.442951,405.34576 25.690984,363.63405 21.54257,338.13122 17.394157,312.6284 14,290.51313 14,288.98618 c 0,-1.57351 0.974759,-3.71043 2.25,-4.93257 1.941348,-1.86052 54.64962,-25.14136 60.279168,-26.62485 1.699049,-0.44773 2.714861,0.75218 6.243988,7.37564 l 4.214822,7.91037 -26.933941,11.31786 c -26.196757,11.00808 -26.921242,11.38832 -26.469958,13.89261 0.25519,1.41612 2.258237,13.82476 4.451214,27.57476 2.192977,13.75 4.235109,26.20195 4.538072,27.67099 0.367311,1.78108 2.332908,3.89836 5.899501,6.35476 6.083264,4.18971 7.269028,6.73236 4.452921,9.54846 -2.206112,2.20612 -4.010771,2.44081 -5.70912,0.74246 -0.650834,-0.65084 -1.398445,-0.96823 -1.661359,-0.70531 -0.498644,0.49864 13.937198,90.71448 14.625822,91.4031 0.216237,0.21624 21.751443,-8.66652 47.85601,-19.73945 42.35472,-17.96587 48.00098,-20.11264 52.46286,-19.94698 2.75,0.10209 26.37456,1.94549 52.49902,4.09644 26.12447,2.15095 47.58103,3.82882 47.68125,3.7286 0.10022,-0.10022 -2.46903,-16.37566 -5.70944,-36.16765 -3.24041,-19.79198 -5.90946,-36.12471 -5.93124,-36.29495 -0.0218,-0.17023 -2.20605,1.51727 -4.85395,3.75 -4.92054,4.14906 -7.85561,4.98956 -9.98564,2.85953 -2.70596,-2.70596 -1.25919,-5.52466 5.8,-11.3 4.78891,-3.91796 6.98562,-6.40179 6.95447,-7.86346 -0.0683,-3.20624 -12.52278,-79.53818 -13.06626,-80.08167 -0.25848,-0.25847 -11.70156,-1.42739 -25.42908,-2.59761 -13.72752,-1.17022 -25.0943,-2.262 -25.25951,-2.42618 -0.16521,-0.16418 1.62329,-4.17728 3.97445,-8.918 4.13099,-8.32948 4.37662,-8.6038 7.30038,-8.15297 1.66405,0.25658 12.71911,1.21738 24.56679,2.13509 l 21.54123,1.66857 52.45877,-22.29048 52.45876,-22.29048 59,4.77038 c 32.45,2.62371 59.7875,5.18591 60.75,5.69378 0.9625,0.50787 2.41532,1.93881 3.22849,3.17986 2.21669,3.3831 31.84742,188.29563 30.78761,192.1321 -0.46888,1.69733 -2.11188,3.71495 -3.85346,4.73209 -2.94224,1.71835 -4.70303,1.6349 -56.97435,-2.70025 C 408.77223,406.0304 382.925,404.01553 381,404.01327 c -2.32911,-0.003 -20.89602,7.37484 -55.5,22.05295 l -52,22.05706 -57.04032,-4.6679 -57.04032,-4.66789 -27.00229,11.51634 C 53.44225,483.9862 52.135183,484.47446 47.762263,481.92676 Z M 332.5,403.22417 c 18.15,-7.73194 35.34297,-14.98118 38.20659,-16.10942 l 5.2066,-2.05135 51.5159,4.16247 c 28.33375,2.28936 51.72512,3.95325 51.98083,3.69754 0.39794,-0.39794 -8.47818,-57.28719 -9.93432,-63.67151 -0.28202,-1.23646 -2.30439,-3.43376 -4.49418,-4.88289 C 461.8327,322.28528 461,321.11641 461,318.78025 c 0,-2.36389 0.59928,-3.18018 3,-4.08635 1.65,-0.62281 2.98595,-1.37122 2.96878,-1.66314 -0.20193,-3.43288 -13.80879,-84.2041 -14.26142,-84.65673 -0.33963,-0.33963 -23.87543,-2.53429 -52.30178,-4.87702 l -51.68427,-4.25951 -47.99265,20.34658 c -26.39596,11.19062 -48.10608,20.47468 -48.2447,20.63125 -0.21383,0.24149 9.54492,61.79228 10.64012,67.10988 0.31579,1.53323 1.3863,1.01335 6.69215,-3.25 6.42943,-5.16616 8.84173,-6.01725 10.98377,-3.87521 2.82867,2.82867 1.27182,5.56171 -7.05,12.37628 -4.5375,3.71566 -8.34568,6.81423 -8.46263,6.8857 -0.17946,0.10968 11.49175,73.64729 13.21017,83.23426 l 0.57291,3.19624 10.21478,-4.30512 C 294.90335,419.21954 314.35,410.95611 332.5,403.22417 Z m -42.93515,-87.15251 c -2.96851,-3.28017 -1.13421,-5.57512 8.38616,-10.4922 10.20939,-5.27294 13.56405,-5.73788 15.21745,-2.10907 0.84317,1.85055 0.83181,2.82436 -0.0453,3.88116 C 311.72876,309.03175 294.43927,318 292.59454,318 c -0.70651,0 -2.06987,-0.86775 -3.02969,-1.92834 z m 149.07464,-6.48125 c -9.64805,-4.61028 -11.37156,-6.35401 -9.58319,-9.69561 1.59819,-2.98625 6.69236,-2.14333 16.62215,2.75045 8.1131,3.99844 10.02299,6.59972 7.27587,9.90979 -1.8447,2.22273 -4.69403,1.63262 -14.31483,-2.96463 z m -115.97282,-7.25708 c -1.13609,-1.13609 -0.73337,-6.0347 0.58333,-7.09557 C 324.71101,294.06062 340.40256,290 343.49039,290 c 2.73447,0 4.50961,1.82685 4.50961,4.64098 0,2.93342 -0.85264,3.38471 -11.48844,6.08065 -9.30555,2.35875 -12.70241,2.75418 -13.84489,1.6117 z M 404.5,298.92045 c -4.95,-1.01491 -9.09667,-1.8622 -9.21482,-1.88287 C 395.16703,297.01691 394.5887,296.1 394,295 c -1.20518,-2.2519 -0.0161,-5.39611 2.38986,-6.31936 1.82815,-0.70153 20.63421,3.09445 22.33868,4.50903 1.60607,1.33292 1.64609,5.0357 0.0715,6.61033 -1.50686,1.50686 -3.1552,1.40548 -14.3,-0.87955 z M 358.2,294.8 c -1.8601,-1.8601 -1.42274,-4.53058 1.02251,-6.2433 1.6546,-1.15892 4.79754,-1.5567 12.3,-1.5567 10.5943,0 12.47749,0.67917 12.47749,4.5 0,1.155 -0.54,2.64 -1.2,3.3 -1.65047,1.65047 -22.94953,1.65047 -24.6,0 z m -226,101 c -1.80988,-1.80988 -1.44027,-5.60104 0.65541,-6.72262 2.10463,-1.12636 22.39555,-1.65835 24.05823,-0.63075 1.86239,1.15102 1.27227,6.38351 -0.8479,7.51819 C 153.304,397.44285 133.70752,397.30752 132.2,395.8 Z m -18.7,-0.43533 c -1.1,-0.22183 -4.7,-0.90322 -8,-1.51419 -9.781034,-1.81089 -13.045537,-5.23683 -8.720085,-9.15131 1.639424,-1.48365 2.60633,-1.44634 12.249995,0.47278 11.17906,2.22466 12.97009,3.03649 12.97009,5.87907 0,3.77074 -3.18275,5.38595 -8.5,4.31365 z m 55.07143,-2.9361 c -4.02251,-4.02251 -1.08397,-6.57569 11.29567,-9.8144 9.79894,-2.56355 10.4703,-2.61881 12.25,-1.00819 2.52522,2.28529 2.37616,5.03548 -0.3671,6.7731 C 189.64383,389.71316 174.10927,394 171.38104,394 c -0.681,0 -1.94533,-0.70714 -2.80961,-1.57143 z M 72.5,383.4208 c -4.4,-1.95513 -8.566384,-3.79927 -9.258632,-4.09809 -1.869612,-0.80705 -2.647552,-5.12836 -1.230591,-6.8357 1.835705,-2.21189 3.551289,-1.89065 14.219863,2.66265 10.079236,4.30176 11.81027,6.03686 9.789575,9.81257 C 84.489208,387.82294 81.688336,387.50362 72.5,383.4208 Z M 203.2,381.8 c -0.66,-0.66 -1.19346,-2.3475 -1.18546,-3.75 0.0126,-2.21639 1.37811,-3.26458 10.43704,-8.01197 10.26027,-5.37695 10.4546,-5.43291 12.48546,-3.59501 4.37581,3.96006 2.37112,6.39145 -10.66208,12.93147 -7.84628,3.93725 -9.25475,4.24572 -11.07496,2.42551 z m -91.11002,-66.19158 c -0.86246,-1.0392 -1.08908,-4.14581 -0.75124,-10.29826 0.7744,-14.10264 1.23309,-15.45563 7.25644,-21.40416 L 124,278.56832 V 236.01208 193.45584 L 115.72911,185.22792 107.45822,177 h -5.51327 C 96.58725,177 96.278412,176.8448 91,171.5 86.399314,166.84145 85.013093,166 81.939148,166 c -4.683334,0 -7.192747,-2.64521 -6.759483,-7.12526 0.454283,-4.6974 4.612533,-7.04734 8.570335,-4.84332 2.163162,1.20462 2.816232,2.37829 3.060374,5.5 0.252474,3.22824 1.272123,4.94796 5.46584,9.21858 4.265792,4.34401 5.757233,5.25 8.642576,5.25 h 3.48711 l -3.59767,-3.75 c -3.193929,-3.32917 -3.644973,-4.45522 -4.019233,-10.03423 -0.407199,-6.07002 -0.58975,-6.43494 -5.355283,-10.70519 -4.752216,-4.25832 -5.174562,-4.4226 -11.480766,-4.46577 C 73.656096,145.00171 73.256629,144.84714 69.5,141 c -2.961342,-3.03269 -4.685941,-4 -7.131519,-4 -4.777658,0 -7.104939,-2.9106 -6.39671,-8 0.723519,-5.19928 8.72905,-6.91243 11.62784,-2.48832 1.037712,1.58375 1.435948,3.56052 1.077926,5.35064 -0.469741,2.3487 0.08674,3.47808 3.222482,6.54005 3.671281,3.58491 3.991347,3.69163 10.195127,3.39937 6.323056,-0.29789 6.408649,-0.34046 6.701969,-3.33394 0.580102,-5.92023 -6.414228,-13.20437 -13.605147,-14.16888 -3.600184,-0.48288 -5.173087,-1.64806 -12.163425,-9.01041 C 58.592259,110.61613 55,105.95491 55,104.87089 55,102.51429 59.270607,98 61.5,98 c 2.286107,0 6.5,4.53953 6.5,7.00229 0,1.15127 -1.206328,3.21119 -2.680728,4.57762 l -2.680728,2.48442 4.893136,4.96783 C 71.716254,121.28062 72.981956,122 76.272269,122 c 3.243746,0 4.740296,0.81811 9.537592,5.21383 L 91.5,132.42767 86.03416,126.71383 C 81.479942,121.95298 80.000949,121 77.166513,121 c -2.627724,0 -4.299786,-0.89798 -7.348092,-3.94628 -3.390976,-3.39098 -3.79162,-4.23528 -2.847169,-6 1.355957,-2.53363 5.532485,-2.71539 6.979058,-0.30372 0.999705,1.66667 1.099675,1.66667 2.09938,0 2.238161,-3.73137 8.36173,-1.08698 7.275946,3.14203 -0.254024,0.9894 2.104436,4.09736 6.130762,8.07908 L 96,128.44222 v 10.14403 c 0,8.62984 0.298539,10.52356 2,12.68662 1.43493,1.82422 2,4.05678 2,7.90191 v 5.35933 l 11,10.96589 11,10.96589 v -6.54585 c 0,-5.84346 -0.29508,-6.82507 -2.75,-9.14793 -1.5125,-1.43113 -3.82904,-2.75282 -5.14787,-2.93709 -3.20524,-0.44782 -4.95825,-3.25329 -3.48983,-5.58502 2.31381,-3.67416 7.3877,-2.17325 7.3877,2.18535 0,1.20476 1.35,3.48385 3,5.06465 2.82329,2.70489 3,3.32644 3,10.55223 0,6.16386 0.39442,8.17948 2,10.22064 1.92982,2.45337 2,4.05678 2,45.69472 v 43.15213 l -5.25,5.55425 -5.25,5.55426 v 13.13588 c 0,12.55752 -0.0919,13.14902 -2.08751,13.43415 -1.14812,0.16404 -2.64326,-0.37139 -3.32251,-1.18984 z m 3.46387,-150.69555 c 1.03052,-1.66742 -1.28721,-3.57951 -2.66672,-2.2 C 111.73321,163.86679 112.45541,166 114,166 c 0.48508,0 1.18431,-0.48921 1.55385,-1.08713 z M 83.5,159.5 c 0,-3.8068 -3.723329,-4.81974 -5.501733,-1.49676 -1.438109,2.68713 0.372256,5.22965 3.414228,4.79502 C 82.998999,162.57158 83.5,161.78 83.5,159.5 Z M 63.837492,133.1216 c 2.005204,-1.27101 1.054457,-5.6216 -1.228506,-5.6216 -2.743351,0 -4.334668,2.92068 -2.678553,4.91618 1.494065,1.80023 2.027795,1.8966 3.907059,0.70542 z m 24.059405,-9.72563 C 84.410381,119.87819 80.812377,117 79.901333,117 78.990289,117 77.684689,116.325 77,115.5 c -1.609692,-1.93956 -2.907766,-1.90393 -3.677102,0.10092 -0.778262,2.02812 1.299117,3.3641 5.261606,3.38377 2.476685,0.0123 4.250186,1.24691 9,6.26531 3.253523,3.4375 6.0811,5.86569 6.283505,5.39597 0.202405,-0.46971 -2.484595,-3.73221 -5.971112,-7.25 z M 72,112.5 c 0,-0.825 -0.675,-1.5 -1.5,-1.5 -0.825,0 -1.5,0.675 -1.5,1.5 0,0.825 0.675,1.5 1.5,1.5 0.825,0 1.5,-0.675 1.5,-1.5 z m 9,0 c 0,-0.825 -0.675,-1.5 -1.5,-1.5 -0.825,0 -1.5,0.675 -1.5,1.5 0,0.825 0.675,1.5 1.5,1.5 0.825,0 1.5,-0.675 1.5,-1.5 z M 64.690532,106.36408 C 65.51778,104.2083 63.741302,101.5 61.5,101.5 c -2.241302,0 -4.01778,2.7083 -3.190532,4.86408 0.820906,2.13924 5.560158,2.13924 6.381064,0 z m 76.040398,209.37713 c -0.2885,-0.75184 -0.3582,-6.69766 -0.15487,-13.21293 l 0.36968,-11.84594 -3.47287,-3.84405 L 134,282.99424 V 227.98843 172.98262 L 128.5,167 c -3.17696,-3.45574 -5.5,-6.90914 -5.5,-8.17625 0,-1.40483 -3.05645,-5.31705 -8.5,-10.87991 l -8.5,-8.6863 v -7.97378 c 0,-6.70379 -0.31854,-8.26206 -2,-9.78376 -1.1,-0.99549 -2,-2.36764 -2,-3.04923 0,-0.68159 -1.30554,-2.63685 -2.90121,-4.34501 -2.104405,-2.25278 -3.82094,-3.11549 -6.25,-3.1412 -4.372207,-0.0463 -6.958353,-1.56429 -11.293794,-6.62927 C 78.35207,100.59339 78,99.597373 78,94.278127 78,89.114911 77.648111,88.037051 75.195281,85.687091 73.545831,84.106818 71.261648,83 69.649827,83 66.70504,83 62,79.080424 62,76.627242 c 0,-4.655748 5.116536,-8.293832 9.382996,-6.671727 3.036976,1.154656 4.988408,4.516233 4.253384,7.326968 -0.379619,1.451664 0.497542,3.230232 2.910103,5.900648 C 81.71383,86.689006 82,87.527318 82,93.299933 c 0,5.968057 0.19648,6.486029 3.792163,9.997117 2.872966,2.80538 4.618781,3.70295 7.202392,3.70295 2.45741,0 4.301809,0.86415 6.601271,3.09288 3.123854,3.02776 3.245924,3.05692 5.797604,1.38499 C 106.82704,110.53853 108,109.2493 108,108.61291 108,107.97652 104.175,103.65071 99.5,99 94.825,94.349286 91,89.888224 91,89.086529 91,88.284834 90.061445,86.629856 88.914322,85.4088 c -1.710314,-1.820546 -1.883954,-2.597026 -0.964816,-4.314451 1.406091,-2.627304 5.619748,-2.767722 6.976564,-0.232489 0.716909,1.339557 0.595437,2.391534 -0.433013,3.75 -0.786198,1.038477 -1.443762,2.573075 -1.461254,3.410218 C 93.014312,88.859221 96.825,93.349286 101.5,98 c 4.675,4.65071 8.5,9.12388 8.5,9.94036 0,0.81648 1.10623,2.40141 2.4583,3.52208 1.35206,1.12066 2.75062,3.27416 3.1079,4.78555 0.52931,2.2391 0.0741,3.28564 -2.4583,5.65121 -2.89453,2.7039 -3.1079,3.3754 -3.1079,9.7809 v 6.87768 l 6.5,6.44222 6.5,6.44222 v -5.72111 C 123,140.81687 122.73529,140 121.14602,140 117.8074,140 114,135.47242 114,131.50229 c 0,-7.73457 8.87184,-11.35772 14.36364,-5.86593 2.94218,2.94219 3.33434,6.51867 1.13636,10.36364 -0.97495,1.70549 -1.44039,5.75247 -1.46456,12.73422 -0.0345,9.9713 0.0409,10.31813 2.93525,13.5 l 2.97068,3.26578 0.0293,-21.43173 0.0293,-21.43173 -8,-8.19608 c -7.61077,-7.79732 -8,-8.41596 -8,-12.71529 0,-4.33749 -0.28146,-4.768735 -7,-10.72517 -5.14882,-4.564772 -7,-6.867809 -7,-8.708629 0,-1.376462 -1.125,-3.839646 -2.5,-5.47374 C 100.125,75.183536 99,72.626659 99,71.135683 99,67.462109 90.68385,59.269472 86.5,58.821334 c -2.553935,-0.273555 -3.045645,-0.791862 -3.306984,-3.48586 -0.233092,-2.402822 0.154226,-3.310909 1.609123,-3.772675 2.955599,-0.938071 5.242706,0.411425 5.850877,3.452283 0.303879,1.519394 2.756265,4.933155 5.449746,7.586134 C 99.918271,66.359353 101,68.123951 101,70.589963 101,72.330794 101.675,74.315311 102.5,75 103.82119,76.096486 104,74.575951 104,62.244889 104,51.020396 103.70262,47.99809 102.5,47 c -1.90943,-1.584688 -1.93569,-5.393518 -0.048,-6.960174 3.55463,-2.950077 8.25735,2.413876 5.13812,5.860578 -1.34608,1.487409 -1.55924,4.507552 -1.38889,19.678337 0.11069,9.856692 0.35583,14.366637 0.54475,10.022099 0.25221,-5.799675 0.83748,-8.52714 2.20203,-10.261889 1.02219,-1.2995 1.64577,-3.176313 1.38573,-4.170696 -0.61075,-2.335519 1.91651,-4.412461 4.86121,-3.995019 C 119.45372,57.776961 118.38097,65 114.03254,65 110.27044,65 109,68.186 109,77.620533 v 8.963051 L 113.5,91 118,95.416416 V 88.708208 C 118,83.333333 117.60248,81.602477 116,80 c -2.49115,-2.491152 -2.55405,-5.188619 -0.17126,-7.345012 4.57109,-4.136782 11.81891,0.433391 9.33455,5.885976 C 124.54706,79.893434 123.58323,81 123.02144,81 122.38153,81 122,85.595782 122,93.303833 v 12.303837 l 3.5,3.39233 3.5,3.39233 v -6.07372 c 0,-4.17891 -0.46795,-6.462087 -1.5,-7.31861 -2.11209,-1.752875 -1.86357,-4.735056 0.5,-6 4.21964,-2.258285 8.14472,2.97515 4.5,6 -2.11577,1.75593 -2.11577,15.24407 0,17 1.0963,0.90985 1.5,0.93127 1.5,0.0796 0,-0.6409 1.99846,-3.30179 4.44101,-5.91308 3.95905,-4.23255 4.46695,-5.31627 4.68002,-9.98588 0.2272,-4.979204 0.0201,-5.46111 -4.19101,-9.750887 -4.39539,-4.477528 -4.43171,-4.572394 -4.64585,-12.135073 L 134.06833,70.672413 127.03417,63.965215 120,57.258017 V 50.251453 C 120,45.243347 119.57216,42.889814 118.5,42 c -2.25757,-1.87362 -1.90084,-6.715111 0.59314,-8.049847 5.46989,-2.927397 10.23764,2.939939 6.02916,7.419661 -1.69747,1.806877 -2.1223,3.514881 -2.1223,8.532578 0,6.245933 0.0241,6.298361 5.47985,11.935549 l 5.47984,5.662059 0.0202,-6.385329 c 0.0175,-5.540576 -0.31059,-6.691849 -2.47985,-8.702251 -3.04486,-2.82188 -3.22487,-6.687555 -0.44104,-9.471381 2.84298,-2.842975 7.6344,-2.260289 10.23987,1.245273 1.74127,2.342816 1.83811,3.068874 0.75731,5.678145 -0.68159,1.645508 -1.87305,3.235044 -2.6477,3.532303 C 138.28395,53.82827 138,56.956347 138,68.912852 c 0,14.49842 0.0787,15.065027 2.4684,17.781384 L 142.9368,89.5 142.9684,80.163446 143,70.826892 l 6.1586,-6.41354 c 5.95465,-6.201157 6.15281,-6.5771 5.98378,-11.352742 -0.14224,-4.018795 -0.73084,-5.495222 -3.1586,-7.922983 C 146.28598,39.439823 149.57903,31 157.5,31 c 7.95417,0 11.03676,8.041197 5.5,14.347219 -2.59361,2.953956 -3,4.200208 -3,9.199865 0,5.707246 -0.0787,5.864962 -6,12.031431 l -6,6.248377 v 17.232849 17.232849 l -4.5,4.81086 -4.5,4.81087 v 14.19783 c 0,14.13448 0.009,14.18975 2,12.38785 2.38725,-2.16043 2.67839,-7.6921 0.5,-9.5 -2.27466,-1.8878 -1.79981,-4.90627 0.97039,-6.16846 1.92957,-0.87917 2.84953,-0.81975 4.20227,0.27144 1.63322,1.31743 1.63762,1.26003 0.0772,-1.00759 C 144.6557,124.05223 146.03282,121 149.5,121 c 3.37994,0 5.22485,3.54157 3.0797,5.91193 -1.08535,1.1993 -1.5797,3.70386 -1.5797,8.00336 v 6.25782 l -6,6.24837 -6,6.24838 v 13.86124 13.86123 L 142.5,178 c 4.44645,-4.30967 4.83761,-9.39475 1,-13 -5.28333,-4.96343 -1.64313,-13.06134 5.25185,-11.68313 2.41039,0.4818 3.70066,-0.43248 10.49815,-7.43893 4.2625,-4.39353 7.75,-8.34368 7.75,-8.7781 0,-0.43443 -0.9,-1.60435 -2,-2.59984 -2.80202,-2.53579 -2.57072,-7.01699 0.5,-9.68695 1.95754,-1.70206 2.5,-3.12712 2.5,-6.56762 0,-3.96035 -0.5427,-4.96287 -5.5,-10.16008 l -5.5,-5.76618 v -7.537138 c 0,-5.479731 -0.40945,-7.87696 -1.5,-8.782032 -2.47205,-2.051619 -1.88611,-5.864989 1.01299,-6.592615 4.49604,-1.128436 7.43494,3.731091 3.98701,6.592615 -0.825,0.684689 -1.47971,1.977289 -1.45492,2.872445 C 159.12471,91.747105 170,79.028405 170,76.060617 c 0,-3.928026 -2.56012,-6.890879 -6.26301,-7.248228 -2.67194,-0.257859 -3.29109,-0.780685 -3.54692,-2.995131 -0.60604,-5.245809 6.21193,-6.119114 7.47105,-0.956957 0.35412,1.451835 1.47524,3.712885 2.49137,5.024558 L 172,72.269717 v -4.434858 c 0,-2.439173 -0.4881,-4.922958 -1.08466,-5.519524 -0.59657,-0.596566 -0.93407,-2.149066 -0.75,-3.45 0.46375,-3.277748 5.22387,-3.875129 6.83847,-0.858209 0.89809,1.678092 0.80676,2.633033 -0.43274,4.524748 -2.03171,3.100783 -2.03148,5.071391 3.6e-4,3.039555 1.85909,-1.85909 1.99275,-1.875039 4.49431,-0.536245 2.87375,1.537985 2.5285,5.788388 -0.56574,6.964816 -2.21756,0.843114 -2.5,1.529166 -2.5,6.07248 0,4.946764 -0.22236,5.352305 -6.5,11.854812 -6.74103,6.982492 -8.08965,10.508528 -5,13.072708 1.23585,1.02566 1.5,0.93766 1.5,-0.49974 0,-0.95955 3.6,-5.432869 8,-9.940716 l 8,-8.196084 v -6.494639 c 0,-5.910891 0.26964,-6.752974 3,-9.368821 1.65,-1.5808 3,-3.845247 3,-5.032104 C 190,60.605304 193.01547,58 196.32874,58 c 5.74582,0 8.88489,7.68672 4.68955,11.483444 -1.55095,1.403591 -2.95524,1.659981 -6.46048,1.179533 C 188.67766,69.857015 187,72.019357 187,80.404236 v 5.959224 l -8,8.196084 -8,8.196086 v 9.6288 c 0,9.02439 0.15693,9.76524 2.5,11.80252 1.73812,1.51128 2.5,3.19634 2.5,5.52932 0,2.92247 -1.41664,4.80303 -10.97546,14.56966 -9.90794,10.12335 -10.97784,11.57175 -11,14.89149 -0.0181,2.71347 -0.67985,4.19289 -2.52454,5.64392 -2.05819,1.61898 -2.5,2.83132 -2.5,6.86017 0,4.5491 -0.35206,5.24044 -5,9.81849 l -5,4.92482 v 47.49543 47.49542 l 3.6168,3.70394 3.61679,3.70393 0.13321,13.83823 0.1332,13.83823 -2.62225,0.3041 c -1.53077,0.17751 -2.8406,-0.2649 -3.14682,-1.06289 z m 9.16388,-154.11446 C 151.57275,159.60495 150.14652,157 147.36163,157 c -2.85387,0 -4.10432,2.40018 -2.35106,4.51273 1.54176,1.85771 3.40108,1.90112 4.88424,0.11402 z M 148,137.16935 c 0,-3.81039 -0.2052,-4.24394 -1.5,-3.16935 -0.83748,0.69505 -1.5,2.87489 -1.5,4.93535 0,2.79515 -0.72781,4.38776 -3,6.56465 -1.65,1.5808 -3,3.33368 -3,3.8953 0,0.56161 2.025,-0.96627 4.5,-3.3953 3.98672,-3.91267 4.5,-4.91992 4.5,-8.83065 z m -22.61908,-4.40059 c 1.49988,-2.39282 -1.32348,-5.23915 -4.26941,-4.30415 -2.07246,0.65777 -2.95149,4.36207 -1.40266,5.91091 1.1803,1.1803 4.51768,0.23491 5.67207,-1.60676 z m 20.17293,-0.85589 c 0.36954,-0.59793 0.27983,-1.47919 -0.19934,-1.95836 -1.18268,-1.18268 -3.78562,0.53891 -2.92361,1.93369 0.87355,1.41342 2.25789,1.42436 3.12295,0.0247 z M 172.5,130.60899 c 0,-2.88868 -3.0949,-4.44266 -5.01798,-2.51958 -2.27993,2.27993 -0.85138,5.09124 2.39573,4.71469 1.798,-0.20851 2.62225,-0.8985 2.62225,-2.19511 z M 151,124.44098 C 151,123.64844 150.325,123 149.5,123 c -1.50623,0 -2.05568,2.11099 -0.86052,3.30615 C 149.57272,127.23939 151,126.11163 151,124.44098 Z M 111.5,117 c 0,-1.83273 -0.60174,-2.58545 -2.25447,-2.82014 -2.45711,-0.34891 -3.85266,1.79561 -2.85699,4.39028 0.3614,0.9418 1.50471,1.44202 2.85699,1.25 C 110.89826,119.58545 111.5,118.83273 111.5,117 Z m 53.94345,-12.05903 c -4.56466,-4.76447 -3.85466,-7.963292 3.38988,-15.272809 C 172.225,86.246077 175,82.95078 175,82.34528 c 0,-0.6055 -3.6,2.587329 -8,7.095176 -4.4,4.507846 -8,9.04833 -8,10.089963 0,2.220161 8.3033,11.059691 8.84952,9.421021 0.20389,-0.61167 -0.87884,-2.41638 -2.40607,-4.01047 z M 131.77083,96.1875 C 131.99194,95.524167 131.24708,95 130.08333,95 c -2.07732,0 -2.69993,1.050068 -1.39583,2.354167 0.92647,0.926472 2.59622,0.294676 3.08333,-1.166667 z m 41.12681,-18.819122 c -0.10012,-2.805513 -0.11981,-2.794508 -0.89835,0.502158 -0.48191,2.040588 -3.10494,5.801831 -6.64764,9.532257 -5.69837,6.000323 -5.67484,5.98717 0.89835,-0.502157 5.36746,-5.298975 6.72903,-7.251384 6.64764,-9.532258 z m -13.34379,6.54449 c 1.03052,-1.667419 -1.28721,-3.57951 -2.66672,-2.2 C 155.73321,82.866792 156.45541,85 158,85 c 0.48508,0 1.18431,-0.48921 1.55385,-1.087132 z M 93,82.5 C 93,81.675 92.325,81 91.5,81 90.675,81 90,81.675 90,82.5 90,83.325 90.675,84 91.5,84 92.325,84 93,83.325 93,82.5 Z M 71.5,76 c 0,-1.832728 -0.601738,-2.585447 -2.254471,-2.820137 -2.457106,-0.348911 -3.852657,1.795603 -2.856989,4.390274 0.361403,0.941801 1.50471,1.442025 2.856989,1.25 C 70.898262,78.585447 71.5,77.832728 71.5,76 Z m 50.30963,0.25 C 121.62427,75.2875 120.80994,74.5 120,74.5 c -0.80994,0 -1.62427,0.7875 -1.80963,1.75 -0.23646,1.227849 0.30348,1.75 1.80963,1.75 1.50615,0 2.04609,-0.522151 1.80963,-1.75 z M 181,68.5 c 0,-0.833333 -0.88889,-1.5 -2,-1.5 -1.11111,0 -2,0.666667 -2,1.5 0,0.833333 0.88889,1.5 2,1.5 1.11111,0 2,-0.666667 2,-1.5 z m 17.82969,-2.25 c 1.31669,-2.560079 0.34473,-4.25 -2.44441,-4.25 -2.8742,0 -4.13364,2.393356 -2.37471,4.512735 1.65284,1.99155 3.7176,1.87898 4.81912,-0.262735 z M 165.30282,65.513695 C 165.41127,64.971227 164.7125,64.375731 163.75,64.190371 162.6554,63.97957 162,64.470042 162,65.5 c 0,1.739789 2.9553,1.752043 3.30282,0.01369 z M 116,61 c 0,-1.111111 -0.66667,-2 -1.5,-2 -1.52241,0 -2.05126,2.115404 -0.83333,3.333333 C 114.93446,63.601124 116,62.992243 116,61 Z m 59,-1 c 0,-1.111111 -0.66667,-2 -1.5,-2 -0.83333,0 -1.5,0.888889 -1.5,2 0,1.111111 0.66667,2 1.5,2 0.83333,0 1.5,-0.888889 1.5,-2 z M 87.809629,55.25 C 87.403696,53.142157 85.628947,53.275066 85.176676,55.447179 84.988034,56.353163 85.539273,57 86.5,57 c 1.029958,0 1.52043,-0.655397 1.309629,-1.75 z M 137.84839,50.11486 C 140.07689,48.702597 138.79415,45.5 136,45.5 c -1.62503,0 -2.59673,0.644502 -2.8347,1.880173 -0.3116,1.618028 1.2452,3.589201 2.8347,3.589201 0.275,0 1.10678,-0.384531 1.84839,-0.854514 z m -31.52373,-5.772851 c 0.90433,-0.904331 -1.33682,-3.45253 -2.43797,-2.771982 C 102.50795,42.422136 102.84363,45 104.33333,45 c 0.73334,0 1.62943,-0.296096 1.99133,-0.657991 z m 53.63551,-2.794021 c 2.01323,-2.425787 0.30166,-5.714568 -2.78746,-5.356127 -2.96929,0.344536 -4.04667,3.050153 -2.13284,5.356178 1.53539,1.850033 3.38489,1.850014 4.9203,-5.1e-5 z M 123.5,38 c 0,-2.850627 -3.15628,-4.059306 -4.11001,-1.573907 -0.9098,2.370891 0.3775,4.765333 2.35699,4.384119 C 122.854,40.597018 123.5,39.561437 123.5,38 Z m 32.08827,277.14282 c -0.71772,-1.1613 -0.0456,-16.85475 0.8933,-20.85672 0.69845,-2.97714 0.30101,-3.68562 -5.39494,-9.61737 l -6.14894,-6.40348 0.28116,-43.06292 0.28115,-43.06292 8.86861,-9.06214 c 7.08768,-7.24235 8.75469,-9.49776 8.30134,-11.23138 -0.86636,-3.31296 0.75286,-5.54986 11.47031,-15.84589 l 9.88885,-9.5 -0.0146,-13.56194 -0.0146,-13.56194 -3,-2.218 c -4.47536,-3.30878 -4.1244,-8.47666 0.75,-11.0436 1.89736,-0.99918 2.25,-2.0081 2.25,-6.437296 0,-4.996787 0.24737,-5.493915 5.08292,-10.214816 C 191.87844,86.733084 194.91948,82.925 195.8407,81 c 1.88088,-3.930307 5.62241,-4.798112 7.54511,-1.75 1.68037,2.663937 -0.43118,5.22961 -4.40305,5.35 -2.59774,0.07874 -4.32861,1.179142 -8.14102,5.175653 -4.38526,4.597038 -4.84183,5.51976 -4.84183,9.78533 0,3.739137 0.51518,5.187127 2.5,7.026597 2.87975,2.66887 3.42977,8.39589 1,10.41242 -0.825,0.68469 -1.5,1.92548 -1.5,2.7573 0,1.0065 0.66902,0.66189 2,-1.03017 2.9058,-3.69413 2.66405,-9.7845 -0.53951,-13.59171 -2.52797,-3.00433 -2.5321,-3.04069 -0.90839,-8.004895 1.76695,-5.402153 3.47966,-6.71908 6.58027,-5.05968 1.38061,0.738876 1.89286,1.882856 1.67756,3.746413 -0.25613,2.217013 -0.87414,2.737142 -3.55993,2.9961 -3.83007,0.369288 -4.37687,2.856862 -1.25,5.686642 2.53802,2.29687 2.8904,12.51614 0.5,14.5 -1.03096,0.85562 -1.5,3.13727 -1.5,7.29676 v 6.05187 L 193.5,130 c 2.39431,-2.24934 2.5,-2.85036 2.5,-14.21716 v -11.86852 l 4.4102,-4.714859 c 2.62396,-2.805233 4.54782,-5.886751 4.75,-7.608262 0.20431,-1.73974 1.45456,-3.722095 3.13563,-4.971769 2.57804,-1.916462 3.00545,-1.960706 5.4868,-0.567962 3.86064,2.166922 5.01057,6.089005 2.78234,9.489724 -1.57476,2.403387 -2.23623,2.643252 -6.09102,2.208761 -3.94942,-0.445156 -4.63439,-0.169971 -7.89918,3.173477 L 199,104.58433 v 11.20783 c 0,9.24291 0.26021,11.20784 1.48422,11.20784 2.48966,0 7.55249,-5.31781 8.09246,-8.5 0.54803,-3.22976 2.80154,-5.5 5.45946,-5.5 2.19968,0 4.96386,3.15949 4.96386,5.67375 0,2.88978 -3.45803,5.70124 -6.14737,4.99796 -1.61688,-0.42282 -3.24301,0.35169 -6.03576,2.87477 -2.43082,2.1961 -4.83654,3.45352 -6.60734,3.45352 -2.00161,0 -4.10991,1.34543 -7.49712,4.78435 -2.59183,2.63139 -4.71241,5.33139 -4.71241,6 0,2.14441 3.1362,1.30325 6.65278,-1.78435 2.22504,-1.95361 4.49827,-3 6.51735,-3 2.02272,0 3.90594,-0.86905 5.41745,-2.5 2.66191,-2.87225 3.3388,-3.00553 5.86875,-1.15559 1.38471,1.01252 1.66631,2.03081 1.14073,4.12491 -0.64737,2.5793 -0.98287,2.74227 -4.63648,2.25222 -3.81177,-0.51127 -3.8922,-0.462 -2.49716,1.5297 3.00019,4.28337 -2.50699,7.82928 -6.5197,4.19783 -1.56006,-1.41184 -1.93027,-1.34458 -4.12775,0.75 -1.32769,1.26551 -1.63792,1.69899 -0.68938,0.96328 3.51588,-2.72702 8.55556,0.97722 6.24158,4.58765 -1.12446,1.75447 -2.63937,1.86839 -9.36817,0.70448 -3.0096,-0.52058 -3.91153,-0.1745 -6.43709,2.47006 -1.6154,1.6915 -3.79185,3.07546 -4.83656,3.07546 -1.0447,0 -4.78551,2.77133 -8.3129,6.15851 -5.43279,5.21683 -6.41345,6.6812 -6.41345,9.57692 0,2.44492 -0.83244,4.25085 -2.92308,6.34149 L 160.15385,182 h 4.33418 c 3.61215,0 4.76547,-0.51255 6.92308,-3.07673 3.22862,-3.837 3.23234,-4.54496 0.0281,-5.34917 -2.17801,-0.54665 -2.51434,-1.1234 -2.25,-3.85841 0.25605,-2.64927 0.78335,-3.27028 2.99354,-3.52562 3.58655,-0.41435 4.85965,2.10954 3.84978,7.63209 l -0.78524,4.29416 2.32181,-2.18123 c 1.277,-1.19968 2.45886,-3.36335 2.62636,-4.80816 0.34387,-2.96611 3.89364,-4.12781 6.35959,-2.08125 2.93081,2.43236 0.34336,6.95432 -3.97923,6.95432 -1.4781,0 -4.08365,1.93648 -7.40029,5.5 l -5.11896,5.5 h -7.33211 c -6.98102,0 -7.48516,0.15791 -10.52828,3.29761 l -3.19617,3.2976 v 41.98656 41.98655 l 5.40482,5.33768 c 6.14826,6.07188 6.54894,7.33331 7.25637,22.844 l 0.46749,10.25 h -3.00532 c -1.65293,0 -3.24372,-0.38573 -3.53509,-0.85718 z m 29.8417,-144.25613 C 184.57786,169.50795 182,169.84363 182,171.33333 c 0,0.73334 0.2961,1.62943 0.65799,1.99133 0.90433,0.90433 3.45253,-1.33682 2.77198,-2.43797 z M 174,170 c 0,-1.11111 -0.66667,-2 -1.5,-2 -0.83333,0 -1.5,0.88889 -1.5,2 0,1.11111 0.66667,2 1.5,2 0.83333,0 1.5,-0.88889 1.5,-2 z m 14.29354,-21.95 c -0.19811,-0.2475 -2.03271,1.29918 -4.07687,3.43707 l -3.71667,3.88708 4.07687,-3.43708 c 2.24228,-1.89039 3.91478,-3.63957 3.71667,-3.88707 z m 11.26031,1.86287 c 1.03052,-1.66742 -1.28721,-3.57951 -2.66672,-2.2 C 195.73321,148.86679 196.45541,151 198,151 c 0.48508,0 1.18431,-0.48921 1.55385,-1.08713 z m -8.82468,-4.51704 c -0.3323,-0.33229 -1.1948,-0.36781 -1.91667,-0.0789 -0.79773,0.31922 -0.56078,0.55618 0.60417,0.60416 1.05416,0.0434 1.64479,-0.19293 1.3125,-0.52522 z m 3.39839,-2.14583 c 1.24387,-1.58606 1.2085,-1.62143 -0.37756,-0.37756 -0.9625,0.75485 -1.75,1.54235 -1.75,1.75 0,0.82304 0.82119,0.29331 2.12756,-1.37244 z m 10.68207,-1 c -0.40593,-2.10784 -2.18068,-1.97493 -2.63295,0.19718 C 201.98803,143.35316 202.53927,144 203.5,144 c 1.02996,0 1.52043,-0.6554 1.30963,-1.75 z m -3.9882,-2.94405 C 201.91435,138.22584 201.81923,138 200.27143,138 198.37521,138 196,139.76197 196,141.16862 c 0,1.01073 3.14235,-0.20325 4.82143,-1.86267 z M 211.75047,135.25 C 211.99459,134.51682 211.30531,134 210.08333,134 208.855,134 208,134.64569 208,135.57332 c 0,1.83788 3.12044,1.56887 3.75047,-0.32332 z M 216,118.96862 c 0,-2.28734 -2.62745,-3.74117 -4.1,-2.26862 -1.4359,1.4359 0.0341,4.3 2.20699,4.3 1.23609,0 1.89301,-0.70494 1.89301,-2.03138 z m -28.49447,-4.97757 C 188.60598,112.21048 186.93077,109 184.90123,109 c -2.18263,0 -3.42301,2.19787 -2.5396,4.5 0.64949,1.69255 4.19231,2.03075 5.1439,0.49105 z M 195,95.5 c 0,-0.825 -0.675,-1.5 -1.5,-1.5 -0.825,0 -1.5,0.675 -1.5,1.5 0,0.825 0.675,1.5 1.5,1.5 0.825,0 1.5,-0.675 1.5,-1.5 z m 19.53539,-2.611507 c 0.8928,-2.812949 -1.61093,-5.316679 -4.42388,-4.423884 -2.0456,0.649249 -2.95806,4.355507 -1.44484,5.868724 1.51321,1.513218 5.21947,0.600762 5.86872,-1.44484 z M 201.55385,81.912868 c 1.03052,-1.667419 -1.28721,-3.57951 -2.66672,-2.2 C 197.73321,80.866792 198.45541,83 200,83 c 0.48508,0 1.18431,-0.48921 1.55385,-1.087132 z"
       id="path2681" />
  </g>
</svg>
