<?xml version="1.0" encoding="UTF-8" standalone="no"?>
<!-- Created with Inkscape (http://www.inkscape.org/) -->

<svg
   version="1.1"
   id="svg18"
   width="666.66669"
   height="666.66669"
   viewBox="0 0 666.66669 666.66669"
   sodipodi:docname="logopetvetorizado.svg"
   inkscape:version="1.2.2 (b0a8486541, 2022-12-01)"
   xmlns:inkscape="http://www.inkscape.org/namespaces/inkscape"
   xmlns:sodipodi="http://sodipodi.sourceforge.net/DTD/sodipodi-0.dtd"
   xmlns="http://www.w3.org/2000/svg"
   xmlns:svg="http://www.w3.org/2000/svg">
  <defs
     id="defs22">
    <clipPath
       clipPathUnits="userSpaceOnUse"
       id="clipPath34">
      <path
         d="M 0,500 H 500 V 0 H 0 Z"
         id="path32" />
    </clipPath>
  </defs>
  <sodipodi:namedview
     id="namedview20"
     pagecolor="#505050"
     bordercolor="#eeeeee"
     borderopacity="1"
     inkscape:showpageshadow="0"
     inkscape:pageopacity="0"
     inkscape:pagecheckerboard="0"
     inkscape:deskcolor="#505050"
     showgrid="false"
     inkscape:zoom="1.002"
     inkscape:cx="333.33334"
     inkscape:cy="333.33334"
     inkscape:window-width="1600"
     inkscape:window-height="838"
     inkscape:window-x="0"
     inkscape:window-y="0"
     inkscape:window-maximized="1"
     inkscape:current-layer="g26">
    <inkscape:page
       x="0"
       y="0"
       id="page24"
       width="666.66669"
       height="666.66669" />
  </sodipodi:namedview>
  <g
     id="g26"
     inkscape:groupmode="layer"
     inkscape:label="Page 1"
     transform="matrix(1.3333333,0,0,-1.3333333,0,666.66667)">
    <g
       id="g28"
       style="fill:#000000">
      <g
         id="g30"
         clip-path="url(#clipPath34)"
         style="fill:#000000">
        <g
           id="g36"
           transform="translate(260.3691,374.3042)"
           style="fill:#000000">
          <path
             d="M 0,0 C 0.006,0.928 -0.605,1.632 -1.414,1.628 -2.271,1.625 -2.971,0.966 -2.996,0.137 -3.023,-0.784 -2.347,-1.487 -1.449,-1.468 -0.595,-1.45 -0.005,-0.853 0,0 m 21.263,-50.331 c 0.014,0.901 -0.59,1.562 -1.457,1.593 -0.864,0.03 -1.525,-0.609 -1.547,-1.494 -0.024,-0.91 0.553,-1.538 1.454,-1.583 0.86,-0.044 1.536,0.603 1.55,1.484 m -39.059,36.374 c -0.831,-0.005 -1.704,-0.824 -1.684,-1.579 0.02,-0.801 0.787,-1.536 1.588,-1.524 0.899,0.013 1.514,0.649 1.493,1.546 -0.019,0.872 -0.639,1.562 -1.397,1.557 m 27.434,-12.84 c 0.937,0.005 1.492,0.577 1.478,1.522 -0.013,0.889 -0.595,1.554 -1.371,1.569 -0.894,0.017 -1.611,-0.686 -1.61,-1.577 0.002,-0.928 0.588,-1.519 1.503,-1.514 M -19.883,4.057 c 0.025,0.87 -0.628,1.619 -1.437,1.648 -0.872,0.031 -1.609,-0.611 -1.641,-1.433 -0.034,-0.847 0.732,-1.68 1.546,-1.679 0.77,10e-4 1.511,0.709 1.532,1.464 M 46.303,-5.4 c 0.007,0.898 -0.62,1.578 -1.454,1.578 -0.825,-10e-4 -1.574,-0.694 -1.61,-1.489 -0.039,-0.848 0.719,-1.639 1.555,-1.622 0.874,0.017 1.502,0.656 1.509,1.533 m -16.64,-8.735 c -0.913,0.005 -1.672,-0.699 -1.648,-1.529 0.022,-0.803 0.765,-1.558 1.542,-1.566 0.849,-0.01 1.559,0.673 1.558,1.5 0,0.902 -0.628,1.591 -1.452,1.595 m 4.18,9.569 c 0.969,0.002 1.54,0.545 1.531,1.455 -0.009,0.912 -0.618,1.551 -1.476,1.547 -0.933,-0.004 -1.652,-0.681 -1.63,-1.535 0.021,-0.849 0.687,-1.469 1.575,-1.467 m -10.164,-42.6 c 0.87,-0.001 1.571,0.664 1.568,1.489 -0.004,0.841 -0.682,1.555 -1.503,1.582 -0.882,0.028 -1.608,-0.681 -1.603,-1.566 0.005,-0.867 0.654,-1.504 1.538,-1.505 M 40.866,2.257 C 39.941,2.236 39.292,1.552 39.331,0.638 c 0.037,-0.873 0.713,-1.512 1.571,-1.487 0.851,0.026 1.518,0.733 1.487,1.578 -0.035,0.911 -0.667,1.546 -1.523,1.528 M -8.431,14.218 c -0.905,-0.022 -1.581,-0.66 -1.579,-1.49 0.003,-0.858 0.795,-1.64 1.619,-1.598 0.89,0.044 1.514,0.706 1.49,1.578 -0.027,0.912 -0.654,1.531 -1.53,1.51 M 2.48,-12.629 c 1.045,0.013 1.73,0.679 1.735,1.685 0.006,1.022 -0.78,1.857 -1.738,1.846 -1.011,-0.011 -1.809,-0.809 -1.79,-1.79 0.02,-1.069 0.727,-1.756 1.793,-1.741 M 5.888,16.445 C 5.885,17.788 4.993,18.791 3.792,18.801 2.483,18.813 1.476,17.833 1.472,16.546 1.467,15.161 2.404,14.118 3.637,14.138 4.979,14.16 5.891,15.094 5.888,16.445 M 37.99,-51.862 c 1.486,0.002 2.573,1.006 2.582,2.384 0.01,1.47 -0.972,2.432 -2.492,2.439 -1.54,0.007 -2.581,-0.943 -2.575,-2.353 0.005,-1.427 1.057,-2.472 2.485,-2.47 M 19.65,-70.717 c 0.001,-1.44 1.016,-2.41 2.526,-2.413 1.42,-0.003 2.508,1.14 2.484,2.609 -0.02,1.3 -1.129,2.302 -2.565,2.318 -1.412,0.016 -2.447,-1.047 -2.445,-2.514 m 37.482,65.596 c 1.431,-0.008 2.537,1.115 2.53,2.571 -0.007,1.368 -1.069,2.416 -2.439,2.405 -1.472,-0.012 -2.537,-1.035 -2.533,-2.431 0.005,-1.434 1.063,-2.536 2.442,-2.545 M -5.362,-37.752 c -1.475,0.012 -2.589,-0.986 -2.614,-2.342 -0.026,-1.41 1.034,-2.522 2.433,-2.553 1.481,-0.034 2.659,1.043 2.663,2.435 0.004,1.459 -0.993,2.447 -2.482,2.46 m -26.154,26.74 c 0.005,1.536 -0.944,2.593 -2.328,2.592 -1.467,-10e-4 -2.676,-1.111 -2.668,-2.45 0.009,-1.377 1.133,-2.535 2.47,-2.546 1.476,-0.011 2.522,0.984 2.526,2.404 m 47.89,20.418 c 0.01,1.518 -0.945,2.579 -2.337,2.596 -1.537,0.019 -2.629,-0.99 -2.625,-2.425 0.004,-1.44 1.046,-2.546 2.415,-2.564 1.473,-0.019 2.538,0.981 2.547,2.393 M 4.253,-47.859 c -1.666,-0.007 -2.74,-1.01 -2.752,-2.569 -0.012,-1.602 1.109,-2.674 2.775,-2.652 1.627,0.022 2.73,1.095 2.711,2.638 -0.018,1.586 -1.082,2.59 -2.734,2.583 m 27.709,63.432 c 0.002,1.656 -1.027,2.83 -2.489,2.842 -1.57,0.012 -2.875,-1.252 -2.864,-2.773 0.012,-1.52 1.169,-2.734 2.629,-2.756 1.633,-0.025 2.722,1.049 2.724,2.687 m -1.65,-36.622 c 2.592,2.4 5.133,4.761 7.414,7.382 0.32,0.368 0.486,0.799 0.481,1.296 -0.013,1.214 0,2.428 -0.029,3.641 -0.02,0.806 -1.725,2.975 -2.502,3.239 -0.426,0.145 -0.792,-0.092 -1.174,-0.193 -1.631,-0.43 -3.088,0.434 -3.348,2 -0.289,1.735 0.731,3.188 2.373,3.385 1.611,0.194 3.051,-1.011 2.942,-2.677 -0.079,-1.198 0.33,-2.025 1.219,-2.68 1.348,-0.99 1.855,-2.272 1.672,-3.937 -0.104,-0.961 0.045,-1.949 0.07,-2.925 0.026,-1.015 -0.453,-1.785 -1.145,-2.489 -2.268,-2.308 -4.582,-4.571 -6.953,-6.774 -0.518,-0.481 -1.047,-0.976 -1.113,-1.747 -0.02,-0.22 -0.123,-0.509 0.159,-0.626 0.219,-0.091 0.36,0.131 0.497,0.268 2.86,2.859 5.716,5.723 8.578,8.581 0.579,0.578 0.833,1.24 0.822,2.08 -0.04,3.405 -0.037,6.81 -0.022,10.214 0.003,0.637 -0.178,1.05 -0.758,1.39 -1.206,0.708 -1.617,1.772 -1.278,2.991 0.346,1.246 1.459,2.15 2.634,2.14 1.152,-0.009 2.224,-0.798 2.602,-1.915 0.426,-1.257 0.069,-2.456 -1.113,-3.159 -0.702,-0.417 -0.844,-0.94 -0.839,-1.662 0.025,-3.303 0.003,-6.607 0.044,-9.911 0.015,-1.246 -0.326,-2.245 -1.236,-3.167 -3.032,-3.071 -6.135,-6.067 -9.26,-9.04 -1.123,-1.068 -1.47,-3.245 -0.451,-4.31 1.952,-2.041 4.013,-3.978 6.157,-6.083 0.06,1.35 0.393,2.607 -0.792,3.586 -0.259,0.214 -0.448,0.525 -0.728,0.698 -2.152,1.329 -2.265,3.399 -2.09,5.595 0.048,0.611 0.321,1.075 0.716,1.515 2.35,2.608 5.002,4.911 7.476,7.394 0.644,0.648 0.952,1.31 0.936,2.226 -0.034,2.056 0.023,4.113 0.027,6.169 0.002,0.942 -0.03,1.879 -0.194,2.818 -0.274,1.578 0.922,3.026 2.518,3.147 1.578,0.12 2.969,-1.192 2.958,-2.79 -0.011,-1.615 -1.367,-2.914 -2.984,-2.684 -1.012,0.145 -1.103,-0.259 -1.089,-1.074 0.037,-2.123 -0.005,-4.248 0.012,-6.372 0.004,-0.654 -0.208,-1.128 -0.714,-1.574 -2.023,-1.786 -3.873,-3.75 -5.736,-5.701 -0.51,-0.536 -1.004,-1.101 -1.574,-1.567 -0.771,-0.63 -0.963,-1.411 -1.091,-2.371 -0.268,-2.008 0.727,-3.23 2.23,-4.271 0.039,0.046 0.122,0.101 0.115,0.142 -0.272,1.754 0.711,2.86 1.875,3.984 2.936,2.831 5.772,5.765 8.685,8.62 0.727,0.714 1.104,1.468 1.044,2.498 -0.115,1.984 0.04,3.975 -0.139,5.961 -0.087,0.971 0.183,1.858 0.95,2.558 0.82,0.75 1.584,1.563 2.4,2.318 0.686,0.633 1.073,1.358 0.991,2.318 -0.23,2.7 2.091,4.351 4.008,4.694 2.02,0.36 4.234,-0.963 5.08,-3.033 0.757,-1.855 0.103,-4.066 -1.603,-5.42 -1.668,-1.322 -3.817,-1.445 -5.512,-0.116 -0.782,0.614 -1.221,0.418 -1.77,-0.158 -0.372,-0.391 -0.758,-0.768 -1.145,-1.144 -0.843,-0.819 -1.24,-1.779 -1.181,-2.987 0.091,-1.884 -0.051,-3.775 0.154,-5.658 0.121,-1.111 -0.252,-1.996 -1.072,-2.799 -3.277,-3.207 -6.492,-6.477 -9.758,-9.694 -0.637,-0.626 -0.795,-1.27 -0.772,-2.157 0.105,-4.009 0.136,-8.021 0.122,-12.032 -0.004,-1.08 0.208,-1.741 1.304,-2.274 1.64,-0.795 2.41,-2.333 2.333,-4.169 -0.076,-1.81 -0.892,-3.245 -2.561,-4.059 -0.646,-0.314 -1.162,-0.59 -1.148,-1.428 0.008,-0.487 -0.354,-0.852 -0.696,-1.193 -3.766,-3.767 -7.515,-7.55 -11.303,-11.294 -0.559,-0.552 -0.69,-1.028 -0.462,-1.776 0.748,-2.455 -0.077,-4.43 -2.388,-5.527 -0.928,-0.441 -1.096,-1.04 -1.005,-1.927 0.173,-1.713 0.177,-3.429 0.029,-5.147 -0.053,-0.611 -0.307,-1.067 -0.737,-1.491 -1.804,-1.771 -3.55,-3.604 -5.393,-5.333 -0.883,-0.829 -1.252,-1.706 -1.227,-2.926 0.26,-13.111 0.232,-26.225 0.117,-39.336 -0.075,-8.461 -0.033,-16.921 -0.121,-25.381 -0.011,-1.026 0.277,-1.802 1.03,-2.499 1.186,-1.098 2.302,-2.274 3.453,-3.411 0.663,-0.654 0.94,-1.383 0.847,-2.36 -0.123,-1.263 -0.222,-2.559 0.271,-3.798 0.084,-0.21 0.071,-0.465 0.075,-0.699 0.067,-4.078 0.136,-8.155 0.191,-12.232 0.017,-1.3 -0.094,-1.424 -1.336,-1.445 -3.701,-0.064 -2.961,0.005 -3.007,2.855 -0.054,3.303 -0.003,6.608 -0.01,9.911 -0.002,0.685 0.192,1.313 0.362,1.968 0.482,1.851 0.542,3.819 -1.078,4.972 -0.871,0.619 -1.563,1.482 -2.376,2.19 -1.124,0.978 -1.568,2.175 -1.565,3.665 0.021,13.08 0.061,26.16 -0.021,39.24 -0.054,8.629 -0.125,17.257 -0.094,25.887 0.012,3.437 0.024,6.876 0.154,10.31 0.052,1.372 -0.357,2.355 -1.375,3.261 -1.585,1.409 -3.013,2.995 -4.598,4.404 -1.239,1.102 -1.825,2.408 -1.685,4.019 0.092,1.069 -0.272,1.83 -1.043,2.575 -3.348,3.23 -6.631,6.526 -9.955,9.779 -0.861,0.843 -1.162,1.853 -1.158,3.015 0.008,3.001 -0.02,6.001 0.014,9.001 0.009,0.764 -0.215,1.275 -0.897,1.639 -1.249,0.666 -1.931,1.761 -2.146,3.135 -0.122,0.78 -0.51,1.343 -1.075,1.876 -1.003,0.949 -1.946,1.962 -2.893,2.968 -0.709,0.753 -1.593,1.062 -2.566,0.868 -2.613,-0.522 -4.727,0.107 -6.429,2.269 -1.036,1.317 -2.301,2.459 -3.496,3.646 -0.644,0.64 -0.712,1.431 -0.719,2.24 -0.018,2.124 -0.033,4.248 0.01,6.371 0.019,0.908 -0.227,1.603 -0.923,2.222 -0.93,0.829 -1.79,1.739 -2.637,2.654 -0.542,0.586 -1.07,0.717 -1.87,0.493 -2.693,-0.757 -5.222,0.726 -5.875,3.35 -0.642,2.576 0.968,5.092 3.63,5.763 3.003,0.757 6.738,-2.279 5.459,-5.756 -0.451,-1.227 -0.237,-1.93 0.713,-2.728 1.079,-0.906 2.001,-1.998 3.005,-2.994 0.597,-0.592 0.771,-1.312 0.766,-2.119 -0.014,-2.326 0.004,-4.652 -0.024,-6.978 -0.008,-0.698 0.248,-1.198 0.747,-1.677 1.361,-1.307 2.694,-2.645 3.999,-4.009 0.387,-0.405 0.79,-0.576 1.329,-0.567 1.078,0.017 2.161,-0.049 3.235,0.023 1.108,0.076 1.937,-0.309 2.672,-1.119 0.929,-1.023 1.952,-1.958 2.901,-2.963 0.429,-0.453 0.745,-0.462 1.136,0.027 0.468,0.588 1.057,1.03 1.76,1.322 1.376,0.571 1.712,2.339 0.647,3.403 -3.457,3.455 -6.904,6.922 -10.39,10.347 -0.885,0.869 -1.569,1.748 -1.41,3.07 0.067,0.555 -0.307,0.823 -0.757,1.068 -1.285,0.7 -1.757,1.755 -1.442,3.104 0.259,1.108 1.289,1.926 2.511,1.992 1.263,0.07 2.327,-0.568 2.751,-1.648 0.505,-1.288 0.172,-2.416 -0.973,-3.301 -1.123,-0.868 -1.173,-1.978 -0.089,-3.062 3.385,-3.385 6.763,-6.777 10.189,-10.12 1.009,-0.985 1.642,-2.037 1.428,-3.476 -0.121,-0.815 0.384,-1.134 1.021,-1.395 1.769,-0.724 2.875,-1.989 3.023,-3.939 0.164,-2.165 -1.023,-4.072 -3.09,-4.827 -0.802,-0.293 -0.991,-0.722 -0.984,-1.49 0.029,-2.764 0.023,-5.528 -0.007,-8.292 -0.01,-0.87 0.274,-1.533 0.9,-2.147 2.77,-2.712 5.506,-5.459 8.255,-8.193 0.164,-0.163 0.342,-0.313 0.57,-0.522 0.257,0.463 0.151,0.903 0.152,1.316 0.012,2.091 -0.025,4.181 0.02,6.27 0.019,0.87 -0.187,1.24 -1.165,1.272 -2.567,0.083 -4.661,1.751 -5.337,4.076 -0.743,2.554 0.142,5.263 2.212,6.767 2.162,1.571 5.469,1.341 7.477,-0.52 2.134,-1.979 2.62,-4.973 1.016,-7.333 -0.83,-1.22 -1.118,-2.485 -1.1,-3.894 0.051,-4.178 0.107,-8.356 0.136,-12.534 0.006,-0.83 0.277,-1.477 0.866,-2.066 1.093,-1.091 2.129,-2.239 3.199,-3.373 0.459,0.444 0.326,0.8 0.326,1.111 0.007,9.675 -0.003,19.351 0.013,29.026 10e-4,0.792 -0.209,1.413 -0.766,1.993 -3.082,3.21 -6.17,6.414 -9.421,9.453 -0.767,0.717 -1.209,1.519 -1.116,2.58 0.006,0.067 0.003,0.135 0.003,0.203 -0.007,5.294 0.6,3.688 -3.088,7.388 -2.236,2.244 -4.498,4.463 -6.75,6.692 -0.677,0.67 -0.703,1.533 -0.569,2.361 0.161,0.999 -0.016,1.794 -0.872,2.387 -0.109,0.076 -0.181,0.205 -0.291,0.279 -1.874,1.278 -2.512,3.067 -2.197,5.259 0.132,0.919 -0.269,1.572 -0.93,2.206 -1.823,1.752 -3.593,3.558 -5.35,5.376 -0.597,0.617 -1.132,0.867 -2.031,0.546 -1.52,-0.544 -2.893,0.211 -3.385,1.683 -0.483,1.447 0.22,2.932 1.636,3.462 1.41,0.527 3.014,-0.184 3.587,-1.594 0.142,-0.349 0.218,-0.712 0.129,-1.086 -0.213,-0.894 0.156,-1.51 0.799,-2.127 2.043,-1.96 4.019,-3.989 6.04,-5.973 0.542,-0.532 0.813,-1.14 0.794,-1.891 -0.012,-0.472 0.055,-0.955 -0.025,-1.414 -0.309,-1.756 0.756,-2.725 1.958,-3.658 0.276,0.263 0.171,0.55 0.171,0.802 0.008,6.304 -0.002,12.608 0.016,18.912 0.002,0.742 -0.15,1.246 -0.886,1.62 -1.18,0.599 -1.601,1.819 -1.234,3.108 0.343,1.203 1.397,2.025 2.6,2.028 1.206,0.002 2.284,-0.825 2.616,-2.007 0.37,-1.317 -0.042,-2.441 -1.22,-3.099 -0.542,-0.303 -0.76,-0.678 -0.759,-1.289 0.01,-7.855 0.003,-15.71 0.006,-23.565 0,-0.679 0.094,-1.339 0.713,-1.801 0.394,0.31 0.242,0.711 0.243,1.05 0.006,2.899 0.038,5.8 -0.04,8.697 -0.033,1.25 0.329,2.236 1.251,3.048 0.279,0.245 0.503,0.553 0.791,0.782 0.78,0.62 1.099,1.253 0.721,2.333 -0.496,1.418 0.592,2.91 2.053,3.124 1.628,0.238 3.215,-0.926 3.367,-2.471 0.147,-1.505 -1.082,-3.068 -2.548,-2.853 -2.025,0.297 -2.827,-1.184 -3.935,-2.261 -0.372,-0.362 -0.388,-0.912 -0.388,-1.43 0.003,-3.607 0,-7.214 -0.005,-10.821 -10e-4,-0.486 0.069,-0.925 0.439,-1.296 1.806,-1.815 3.597,-3.646 5.403,-5.461 0.28,-0.281 0.61,-0.79 0.948,-0.654 0.45,0.182 0.205,0.777 0.208,1.187 0.02,2.494 -0.01,4.989 0.02,7.484 0.007,0.686 -0.19,1.103 -0.835,1.428 -1.706,0.86 -2.433,2.618 -1.964,4.521 0.431,1.752 1.859,2.9 3.649,2.933 2,0.037 3.443,-0.973 3.969,-2.78 0.541,-1.86 -0.139,-3.69 -1.787,-4.606 C 3.918,-14.62 3.699,-14.97 3.7,-15.586 3.709,-20.609 3.699,-25.632 3.679,-30.655 c -0.003,-0.758 0.236,-1.353 0.801,-1.875 1.479,-1.367 2.924,-2.771 4.59,-4.358 0,1.277 0,2.302 -10e-4,3.327 0,1.416 -0.035,2.833 0.014,4.248 0.028,0.823 -0.202,1.367 -0.957,1.81 -1.397,0.818 -1.677,2.525 -0.738,3.852 0.886,1.252 2.747,1.511 3.949,0.55 1.21,-0.967 1.403,-2.818 0.405,-3.974 -0.151,-0.176 -0.326,-0.379 -0.532,-0.454 -0.897,-0.327 -1.028,-0.995 -1.014,-1.85 0.04,-2.393 0.068,-4.789 -0.014,-7.18 -0.038,-1.108 0.226,-1.968 1.106,-2.644 0.445,-0.341 0.733,-0.868 1.35,-1.151 0.107,3.313 2.976,4.567 4.857,6.491 1.269,1.297 2.128,2.49 1.94,4.375 -0.127,1.264 -0.034,2.555 0.102,3.835 0.106,0.982 -0.21,1.858 -0.942,2.563 -1.287,1.239 -2.51,2.551 -3.862,3.715 -1.254,1.078 -1.83,2.356 -1.773,3.985 0.076,2.187 -0.112,4.38 0.133,6.566 0.109,0.976 -0.327,1.744 -1.017,2.423 C 9.41,-3.775 6.79,-1.103 4.1,1.497 3.028,2.532 2.512,3.67 2.604,5.175 c 0.132,2.184 0.118,4.378 0.213,6.565 0.037,0.839 -0.272,1.369 -0.973,1.827 -1.657,1.082 -2.123,2.806 -1.301,4.477 0.736,1.498 2.5,2.227 4.215,1.724 C 6.074,19.381 6.907,18.509 7.13,17.152 7.36,15.75 7.054,14.435 5.731,13.745 4.64,13.175 4.418,12.415 4.456,11.299 4.533,9.077 4.499,6.85 4.487,4.625 4.483,3.869 4.737,3.259 5.271,2.727 c 2.217,-2.215 4.419,-4.447 6.64,-6.66 0.245,-0.244 0.477,-0.712 0.877,-0.539 0.339,0.147 0.167,0.609 0.169,0.929 0.013,2.461 -0.01,4.922 0.018,7.382 0.007,0.699 -0.209,1.077 -0.897,1.359 -2.172,0.89 -3.222,3.067 -2.742,5.482 0.401,2.025 2.148,3.473 4.332,3.592 2.166,0.119 4.128,-1.321 4.76,-3.492 C 19.064,8.593 18.217,6.524 16.122,5.412 15.402,5.03 15.225,4.536 15.227,3.795 c 0.016,-6.439 0.013,-12.878 0.003,-19.316 -0.001,-0.718 0.219,-1.299 0.729,-1.812 1.064,-1.069 2.098,-2.169 3.166,-3.28 0.408,0.463 0.287,0.851 0.288,1.198 0.005,3.81 0.016,7.619 -0.025,11.428 -0.013,1.197 0.384,2.127 1.243,2.961 2.201,2.136 4.333,4.344 6.531,6.484 0.683,0.665 0.976,1.377 0.94,2.329 -0.063,1.616 -0.063,3.237 -0.012,4.853 0.024,0.789 -0.226,1.203 -0.981,1.514 -3.251,1.342 -4.603,4.831 -3.141,7.947 1.476,3.15 5.14,4.449 8.191,2.856 1.999,-1.044 2.983,-2.808 3.091,-5.003 0.113,-2.289 -0.762,-4.206 -2.79,-5.354 -0.97,-0.55 -1.298,-1.152 -1.25,-2.226 0.089,-1.985 0.016,-3.977 0.057,-5.965 0.019,-0.98 -0.312,-1.755 -1.005,-2.435 -2.141,-2.102 -4.235,-4.252 -6.403,-6.326 -0.814,-0.78 -1.195,-1.611 -1.189,-2.75 0.037,-7.382 0.005,-14.765 0.05,-22.148 0.008,-1.31 -0.361,-2.336 -1.312,-3.238 -1.59,-1.507 -3.103,-3.093 -4.676,-4.617 -0.575,-0.557 -0.846,-1.206 -0.846,-1.98 -0.002,-6.472 0.001,-12.945 0.006,-19.417 0,-0.063 0.039,-0.126 0.06,-0.188 1.423,0.452 3.244,2.856 3.238,4.272 -0.002,0.439 -0.037,0.88 0.003,1.314 0.111,1.205 -0.058,2.138 -1.297,2.855 -1.251,0.723 -1.219,2.753 -0.165,3.834 1.105,1.131 3.123,1.076 4.171,-0.113 1.002,-1.136 0.874,-3.026 -0.406,-3.812 -0.988,-0.607 -1.387,-1.384 -1.154,-2.425 0.612,-2.741 -0.596,-4.664 -2.631,-6.279 -0.445,-0.353 -0.809,-0.81 -1.221,-1.208 -0.615,-0.594 -0.771,-1.289 -0.5,-2.221 1.447,1.38 2.838,2.683 4.203,4.014 3.394,3.304 2.803,2.252 2.852,6.704 0.016,1.416 -0.024,2.833 0.013,4.247 0.018,0.709 -0.181,1.184 -0.826,1.573 -1.323,0.798 -1.692,2.233 -1.024,3.587 0.582,1.18 2.138,1.737 3.493,1.252 1.28,-0.457 1.97,-1.765 1.698,-3.182 -0.145,-0.759 -0.598,-1.29 -1.249,-1.624 -0.662,-0.341 -0.874,-0.838 -0.861,-1.554 0.04,-2.224 -0.011,-4.451 0.067,-6.673 0.046,-1.318 -0.396,-2.332 -1.327,-3.239 -2.148,-2.094 -4.248,-4.238 -6.379,-6.35 -0.502,-0.499 -0.796,-1.035 -0.795,-1.777 0.02,-6.136 0.014,-12.271 0.019,-18.407 0,-0.223 0.033,-0.448 0.068,-0.884 1.76,1.681 3.37,3.24 4.853,4.925 0.285,0.323 0.228,0.762 0.228,1.166 -0.001,1.416 -0.044,2.833 0.007,4.247 0.029,0.778 -0.221,1.217 -0.945,1.565 -1.974,0.949 -2.974,2.859 -2.661,4.867 0.331,2.122 1.919,3.691 4.077,4.074 0.843,0.149 1.622,-0.056 2.352,-0.401 0.663,-0.314 1.104,-0.152 1.615,0.313 3.04,2.775 5.816,5.809 8.686,8.751 0.659,0.675 1.334,1.336 1.996,2.008 0.857,0.869 0.825,1.098 -0.222,1.691 -2.54,1.441 -3.332,3.961 -2.038,6.452 0.471,0.906 1.158,1.57 2.115,1.931 0.696,0.263 0.973,0.766 0.977,1.484 0.015,1.854 0.037,3.706 -0.153,5.555 -0.054,0.52 -0.327,0.86 -0.67,1.198 -1.991,1.965 -3.962,3.952 -5.972,5.899 -0.902,0.874 -1.341,1.851 -1.308,3.139 0.07,2.797 0.013,5.596 0.045,8.394 0.008,0.7 -0.156,1.173 -0.8,1.577 -1.248,0.785 -1.605,1.914 -1.184,3.223 0.353,1.094 1.425,1.828 2.654,1.815 1.241,-0.013 2.286,-0.756 2.616,-1.861 0.375,-1.256 -0.028,-2.608 -1.196,-3.252 -1.436,-0.792 -0.635,-1.97 -0.702,-3.023"
             style="fill:#000000;fill-opacity:1;fill-rule:nonzero;stroke:none"
             id="path38" />
        </g>
        <g
           id="g40"
           transform="translate(400.5576,272.3071)"
           style="fill:#000000">
          <path
             d="m 0,0 c 8.595,0 17.189,0 25.784,-0.001 1.4,0 1.405,-0.005 1.405,-1.383 0.001,-12.269 -0.004,-24.537 0.013,-36.806 0.002,-0.765 -0.207,-1.352 -0.752,-1.887 -1.369,-1.347 -2.713,-2.72 -4.044,-4.106 -0.424,-0.442 -0.873,-0.66 -1.503,-0.66 -15.707,0.012 -31.413,0.016 -47.12,-0.006 -0.891,-0.001 -1.165,0.285 -1.152,1.163 0.044,2.932 0.015,5.864 0.016,8.797 0.001,1.445 0.004,1.451 1.468,1.452 13.415,0.002 26.829,10e-4 40.244,10e-4 1.787,0 1.787,10e-4 1.787,1.821 0,0.843 -0.023,1.687 0.004,2.529 0.021,0.639 -0.232,0.946 -0.884,0.914 -0.336,-0.017 -0.674,0.001 -1.011,0.001 h -34.481 c -1.679,0 -1.68,0.003 -1.68,1.649 -0.001,2.798 -0.003,5.595 10e-4,8.393 0.002,1.345 0.008,1.352 1.344,1.353 11.73,0.002 23.459,0.001 35.189,0.001 1.517,0 1.517,0.002 1.518,1.562 0,0.943 -0.035,1.888 0.009,2.83 0.035,0.763 -0.292,1.026 -1.016,0.989 -0.706,-0.034 -1.415,-0.006 -2.123,-0.006 -12.842,0.001 -25.684,0 -38.525,0.001 -1.844,0 -1.844,10e-4 -1.844,1.885 -10e-4,2.731 -0.002,5.461 0.001,8.191 0.002,1.316 0.007,1.322 1.366,1.322 C -17.324,0.001 -8.662,0 0,0"
             style="fill:#000000;fill-opacity:1;fill-rule:nonzero;stroke:none"
             id="path42" />
        </g>
        <g
           id="g44"
           transform="translate(144.3872,261.521)"
           style="fill:#000000">
          <path
             d="m 0,0 h -2.086 c -2.36,0 -4.72,-0.002 -7.079,0.001 -1.472,0.002 -1.484,0.014 -1.486,1.445 -0.003,2.764 -0.002,5.528 0,8.292 0,1.63 0.002,1.632 1.594,1.632 9.202,0.001 18.404,0.001 27.606,0.001 8.461,0 16.922,0 25.383,-0.001 1.46,0 1.474,-0.013 1.476,-1.455 C 45.412,7.083 45.413,4.252 45.407,1.42 45.404,0.08 45.325,0.002 43.964,0.001 30.11,0 16.256,0 2.402,0 2.065,0 1.728,-0.012 1.391,-0.004 0.859,0.008 0.567,-0.21 0.57,-0.775 0.578,-2.089 0.577,-3.404 0.574,-4.719 0.572,-5.236 0.848,-5.44 1.336,-5.432 c 0.337,0.005 0.674,-0.004 1.011,-0.004 11.966,-0.001 23.933,0 35.899,-0.001 1.521,0 1.524,-0.003 1.525,-1.504 0.002,-2.798 0.003,-5.596 0,-8.393 -10e-4,-1.467 -0.005,-1.473 -1.457,-1.473 -12.033,-0.001 -24.067,0 -36.101,-0.001 -1.646,0 -1.646,-0.001 -1.647,-1.662 0,-0.945 0.025,-1.889 -0.005,-2.832 -0.023,-0.702 0.281,-0.99 0.964,-0.943 0.303,0.021 0.607,0.002 0.911,0.002 13.752,0 27.505,0 41.258,-0.001 1.713,0 1.714,-0.002 1.715,-1.756 10e-4,-2.798 -0.023,-5.596 0.013,-8.393 0.011,-0.899 -0.27,-1.237 -1.217,-1.236 -16.113,0.024 -32.226,0.02 -48.338,0.007 -0.657,0 -1.149,0.201 -1.605,0.671 -1.408,1.452 -2.839,2.883 -4.283,4.298 -0.441,0.432 -0.64,0.899 -0.638,1.519 0.015,5.056 0.019,10.112 -0.005,15.168 -0.003,0.711 0.277,1.198 0.756,1.675 3.083,3.067 6.148,6.151 9.218,9.231 0.258,0.26 0.504,0.532 0.756,0.798 z"
             style="fill:#000000;fill-opacity:1;fill-rule:nonzero;stroke:none"
             id="path46" />
        </g>
        <g
           id="g48"
           transform="translate(122.1953,250.4321)"
           style="fill:#000000">
          <path
             d="m 0,0 c -0.1,0.522 -0.413,0.697 -0.64,0.928 -1.3,1.319 -2.6,2.64 -3.928,3.932 -0.469,0.455 -0.694,0.946 -0.674,1.605 0.035,1.144 -0.043,2.293 0.025,3.435 0.056,0.955 -0.337,1.204 -1.236,1.203 -10.307,-0.023 -20.614,-0.023 -30.921,0 -0.92,0.002 -1.245,-0.301 -1.231,-1.226 0.042,-2.794 0.013,-5.59 0.015,-8.386 C -38.588,0.003 -38.586,0 -37.064,0 -25.073,0 -13.082,0 -1.09,0 Z m -39.163,10.89 c -0.473,0.289 -0.852,0.193 -1.21,0.194 -2.832,0.009 -5.663,0.02 -8.494,-0.002 -0.759,-0.006 -1.093,0.245 -1.085,1.052 0.03,3.101 0.025,6.202 0.003,9.303 -0.005,0.722 0.243,1.084 0.995,1.023 0.235,-0.019 0.472,-0.001 0.708,-0.001 15.775,0 31.55,-0.008 47.324,0.02 1.031,0.002 1.78,-0.285 2.477,-1.04 C 2.79,20.104 4.099,18.835 5.406,17.569 5.9,17.09 6.132,16.576 6.13,15.878 6.113,9.036 6.114,2.193 6.13,-4.649 6.132,-5.344 5.909,-5.862 5.413,-6.343 4.01,-7.705 2.616,-9.077 1.274,-10.498 c -0.606,-0.643 -1.257,-0.886 -2.133,-0.884 -12,0.021 -24,0.014 -35.999,0.013 -1.731,0 -1.731,-10e-4 -1.732,-1.705 -10e-4,-2.763 -0.023,-5.528 0.012,-8.291 0.011,-0.873 -0.292,-1.185 -1.177,-1.174 -2.999,0.04 -6,0.046 -8.999,-0.002 -0.949,-0.015 -1.205,0.341 -1.202,1.241 0.027,6.774 0.024,13.55 0.002,20.324 -0.002,0.738 0.244,1.267 0.758,1.777 3.087,3.062 6.15,6.148 9.219,9.228 0.259,0.259 0.503,0.531 0.814,0.861"
             style="fill:#000000;fill-opacity:1;fill-rule:nonzero;stroke:none"
             id="path50" />
        </g>
        <g
           id="g52"
           transform="translate(338.7383,227.4736)"
           style="fill:#000000">
          <path
             d="m 0,0 c -8.628,0 -17.255,0.009 -25.883,-0.015 -0.795,-0.002 -1.411,0.199 -1.989,0.753 -1.507,1.447 -3.047,2.858 -4.598,4.257 -0.468,0.422 -0.632,0.893 -0.631,1.51 0.013,9.773 0.008,19.547 0.013,29.32 0,0.291 -0.129,0.692 0.157,0.844 0.369,0.196 0.595,-0.21 0.827,-0.423 3.544,-3.264 7.076,-6.542 10.627,-9.797 0.498,-0.455 0.655,-0.958 0.652,-1.606 -0.018,-3.977 -0.009,-7.953 -0.008,-11.931 0,-1.511 0.002,-1.514 1.484,-1.515 h 44.89 c 0.337,0 0.675,-0.014 1.011,-10e-4 0.658,0.024 0.98,-0.223 0.974,-0.942 C 27.503,7.286 27.49,4.118 27.531,0.95 27.545,-0.044 26.964,-0.004 26.286,-0.004 17.727,0.002 9.166,0 0.606,0 Z"
             style="fill:#000000;fill-opacity:1;fill-rule:nonzero;stroke:none"
             id="path54" />
        </g>
        <g
           id="g56"
           transform="translate(321.1094,316.1841)"
           style="fill:#000000">
          <path
             d="m 0,0 c 0.011,-0.894 0.66,-1.58 1.491,-1.576 0.868,0.005 1.503,0.661 1.497,1.549 C 2.982,0.908 2.379,1.542 1.517,1.524 0.616,1.505 -0.011,0.875 0,0 M 6.104,3.422 C 7.019,3.42 7.631,4.027 7.623,4.927 7.616,5.835 7.08,6.401 6.209,6.418 5.272,6.437 4.501,5.754 4.518,4.921 4.533,4.098 5.248,3.423 6.104,3.422 M -4.287,33.444 c 0,0.915 -0.625,1.621 -1.436,1.626 -0.873,0.005 -1.542,-0.64 -1.556,-1.501 -0.016,-0.912 0.582,-1.572 1.447,-1.597 0.917,-0.026 1.546,0.573 1.545,1.472 m 4.789,10.134 c 0.058,0.818 -0.538,1.568 -1.305,1.642 -0.939,0.09 -1.726,-0.513 -1.788,-1.371 -0.06,-0.843 0.587,-1.608 1.412,-1.667 0.854,-0.063 1.624,0.577 1.681,1.396 m -19.599,-63.42 c -0.018,0.883 -0.614,1.539 -1.398,1.541 -0.859,0.003 -1.707,-0.781 -1.685,-1.557 0.023,-0.788 0.812,-1.559 1.588,-1.55 0.872,0.009 1.514,0.68 1.495,1.566 m 18.208,14.96 c -0.014,0.878 -0.615,1.541 -1.4,1.544 -0.855,0.004 -1.674,-0.773 -1.667,-1.58 0.007,-0.807 0.766,-1.546 1.579,-1.539 0.862,0.007 1.503,0.686 1.488,1.575 m -10.14,-16.204 c -0.023,0.884 -0.701,1.588 -1.499,1.553 -0.852,-0.038 -1.625,-0.835 -1.583,-1.632 0.045,-0.841 0.755,-1.5 1.59,-1.477 0.871,0.024 1.514,0.696 1.492,1.556 M 9.059,18.941 c -1.25,0.017 -2.14,-0.766 -2.158,-1.899 -0.019,-1.221 0.788,-2.087 1.953,-2.096 1.207,-0.009 1.986,0.726 2.013,1.9 0.029,1.231 -0.705,2.08 -1.808,2.095 m -21.029,0.22 c 1.453,0.002 2.58,1.079 2.542,2.431 -0.04,1.431 -1.06,2.554 -2.338,2.571 -1.476,0.019 -2.62,-1.063 -2.616,-2.478 0.003,-1.512 0.972,-2.525 2.412,-2.524 M 7.199,38.756 c -1.637,0.015 -2.908,-1.167 -2.901,-2.699 0.006,-1.526 1.265,-2.845 2.708,-2.835 1.599,0.011 2.793,1.153 2.813,2.691 0.022,1.625 -1.087,2.829 -2.62,2.843 M -15.328,-9.225 c 0.822,-0.255 1.442,0.074 1.987,0.623 0.903,0.909 1.81,1.814 2.688,2.746 0.841,0.892 1.814,1.364 3.068,1.177 0.397,-0.059 0.809,-0.008 1.211,-0.041 0.802,-0.065 1.289,0.208 1.604,1.021 0.464,1.194 1.468,1.719 2.646,1.587 1.266,-0.141 2.142,-0.945 2.425,-2.227 0.251,-1.134 -0.285,-2.381 -1.272,-2.959 -0.999,-0.586 -2.304,-0.454 -3.204,0.323 -1.842,1.592 -4.404,1.481 -6.14,-0.264 -0.809,-0.812 -1.651,-1.594 -2.421,-2.441 -0.642,-0.705 -1.382,-1.072 -2.327,-0.931 -1.323,0.199 -2.264,-0.318 -3.176,-1.283 -2.036,-2.155 -4.181,-4.209 -6.304,-6.28 -0.644,-0.629 -1.056,-1.322 -0.913,-2.236 0.433,-2.783 -0.395,-5.008 -2.776,-6.625 -0.654,-0.444 -1.189,-1.062 -1.779,-1.6 0.054,-0.091 0.108,-0.18 0.161,-0.271 1.867,0 3.734,-0.004 5.599,0.009 0.154,10e-4 0.344,0.083 0.456,0.19 1.238,1.189 2.488,2.369 3.685,3.6 0.535,0.549 0.461,1.313 0.413,2.023 -0.04,0.59 -0.515,0.503 -0.908,0.548 -1.812,0.204 -2.772,1.17 -2.744,2.748 0.023,1.208 0.616,2.041 1.699,2.527 1.028,0.461 1.998,0.294 2.821,-0.447 0.864,-0.776 1.306,-1.778 0.857,-2.907 -0.4,-1.01 -0.455,-2.024 -0.432,-3.071 0.022,-1.072 -0.345,-1.925 -1.195,-2.652 -1.047,-0.896 -2.006,-1.901 -2.956,-2.904 -0.673,-0.712 -1.433,-1.048 -2.419,-1.017 -1.683,0.053 -3.37,0.05 -5.055,0.049 -0.494,0 -1.015,0.047 -1.456,-0.314 0.182,-0.348 0.485,-0.205 0.717,-0.206 2.158,-0.014 4.316,0.011 6.472,-0.02 0.802,-0.012 1.421,0.254 1.98,0.817 2.279,2.297 4.566,4.586 6.879,6.849 0.431,0.421 0.327,0.8 0.214,1.277 -0.427,1.826 0.726,3.346 2.561,3.437 1.112,0.055 1.999,-0.333 2.526,-1.331 0.528,-1 0.512,-2.021 -0.16,-2.962 -0.664,-0.929 -1.579,-1.453 -2.71,-1.078 -0.983,0.326 -1.559,-0.065 -2.192,-0.724 -2.195,-2.285 -4.442,-4.519 -6.643,-6.798 -0.552,-0.572 -1.234,-0.697 -1.936,-0.702 -2.662,-0.02 -5.326,-0.037 -7.987,0.041 -0.881,0.025 -1.557,-0.135 -2.167,-0.787 -0.851,-0.91 -1.736,-1.794 -2.663,-2.627 -0.954,-0.856 -1.292,-1.875 -1.286,-3.143 0.05,-11.192 0.067,-22.384 0.082,-33.576 0.011,-7.72 0.022,-15.44 -0.015,-23.159 -0.007,-1.326 0.454,-2.31 1.408,-3.194 1.854,-1.717 3.627,-3.521 5.474,-5.247 1.033,-0.964 1.539,-2.066 1.445,-3.497 -0.07,-1.045 -0.237,-2.131 0.781,-2.962 0.405,-0.332 0.338,-1.005 0.341,-1.542 0.026,-3.674 0.056,-7.348 0.048,-11.022 -0.005,-1.781 -0.083,-1.84 -1.81,-1.821 -2.851,0.03 -2.495,-0.42 -2.517,2.528 -0.024,3.473 0.002,6.944 -0.006,10.417 -0.002,0.729 0.146,1.367 0.605,1.976 0.727,0.963 0.45,3.363 -0.408,4.224 -2.167,2.171 -4.33,4.346 -6.502,6.513 -0.805,0.801 -1.196,1.724 -1.188,2.891 0.137,18.642 0.152,37.285 -0.029,55.926 -0.029,3.023 0.646,5.304 3.017,7.331 2.887,2.468 5.39,5.38 8.163,7.99 1.16,1.092 1.642,2.279 1.353,3.773 -0.322,1.67 0.15,2.937 1.355,4.179 4.064,4.185 8.331,8.161 12.467,12.272 1.14,1.134 1.661,2.302 1.638,3.912 -0.074,5.393 -0.05,10.787 -0.021,16.18 0.005,0.868 -0.227,1.314 -1.114,1.591 -2.225,0.693 -3.32,2.173 -3.349,4.273 -0.033,2.316 0.924,3.759 3.238,4.553 0.984,0.338 1.28,0.84 1.239,1.834 -0.074,1.818 -0.008,3.64 -0.021,5.461 -0.005,0.826 0.268,1.502 0.888,2.061 2.48,2.235 4.558,4.877 7.102,7.048 0.483,0.411 0.466,0.923 0.502,1.464 0.098,1.462 0.973,2.414 2.359,2.604 1.224,0.168 2.295,-0.484 2.792,-1.703 0.537,-1.311 0.169,-2.625 -0.958,-3.406 -0.94,-0.65 -1.916,-0.632 -2.842,-0.025 -0.591,0.386 -1.027,0.313 -1.517,-0.141 -2.301,-2.133 -4.43,-4.436 -6.63,-6.669 -0.386,-0.392 -0.437,-0.892 -0.436,-1.408 0.006,-1.955 0.033,-3.911 0,-5.865 -0.012,-0.721 0.271,-1.082 0.928,-1.35 1.737,-0.709 2.591,-2.121 2.741,-3.924 0.152,-1.841 -0.454,-3.392 -2.116,-4.386 -0.398,-0.239 -0.688,-0.476 -0.685,-1.007 0.019,-4.045 0.015,-8.091 0.023,-12.136 10e-4,-0.056 0.056,-0.113 0.108,-0.211 0.757,0.264 0.8,0.893 0.8,1.536 -10e-4,2.866 0.016,5.732 -0.027,8.596 -0.014,0.885 0.216,1.601 0.929,2.116 1.453,1.047 2.018,2.44 1.766,4.209 -0.081,0.562 -0.107,1.155 -0.024,1.715 0.286,1.929 -0.592,3.244 -2.013,4.429 -1.972,1.645 -2.005,2.854 -0.263,4.719 0.436,0.467 0.42,0.939 0.353,1.489 -0.183,1.514 0.543,2.728 1.827,3.099 1.343,0.388 2.695,-0.214 3.307,-1.472 0.604,-1.24 0.231,-2.612 -0.922,-3.504 -0.72,-0.557 -1.525,-0.609 -2.294,-0.276 -0.965,0.419 -1.464,-0.111 -1.918,-0.771 -0.464,-0.677 -0.355,-1.357 0.2,-1.934 0.631,-0.655 1.297,-1.276 1.953,-1.906 0.746,-0.715 1.115,-1.554 1.065,-2.617 -0.064,-1.38 -0.053,-2.764 -0.035,-4.146 0.016,-1.255 -0.321,-2.333 -1.384,-3.087 -0.996,-0.707 -1.334,-1.632 -1.278,-2.865 0.094,-2.119 0.017,-4.246 0.027,-6.37 0.001,-0.251 -0.121,-0.602 0.18,-0.729 0.29,-0.123 0.489,0.173 0.667,0.356 1.008,1.041 1.999,2.098 3.001,3.145 0.396,0.415 0.341,0.931 0.341,1.432 10e-4,4.686 0.025,9.372 -0.018,14.058 -0.014,1.439 0.366,2.572 1.483,3.569 1.608,1.434 3.063,3.038 4.609,4.542 0.41,0.399 0.504,0.787 0.413,1.346 -0.313,1.917 -0.013,3.629 1.774,4.794 1.782,1.16 4.213,0.939 5.675,-0.548 1.541,-1.568 1.749,-3.941 0.504,-5.752 C 9.554,31.701 7.193,30.953 5.295,32.001 4.104,32.659 3.449,32.363 2.658,31.51 1.307,30.052 -0.105,28.651 -1.497,27.232 -1.851,26.873 -1.989,26.454 -1.988,25.953 -1.98,21.268 -1.97,16.582 -1.994,11.896 c -0.004,-0.751 0.269,-0.967 0.996,-1.017 1.267,-0.086 2.28,0.214 3.126,1.232 0.772,0.93 1.656,1.776 2.55,2.594 0.559,0.511 0.725,1.013 0.599,1.774 -0.337,2.037 0.755,3.592 2.807,4.167 1.687,0.474 3.462,-0.47 4.241,-2.255 0.75,-1.719 0.127,-3.701 -1.478,-4.68 C 9.739,13.036 8.579,13.095 7.455,13.607 6.728,13.939 6.182,13.835 5.647,13.276 4.669,12.254 3.639,11.28 2.69,10.231 2.004,9.473 1.228,9.033 0.203,9.201 -1.678,9.51 -3.038,8.793 -4.278,7.371 -5.802,5.621 -7.542,4.059 -9.184,2.412 -9.421,2.174 -9.678,1.939 -9.851,1.657 c -0.655,-1.07 -0.197,-1.8 1.028,-1.912 1.502,-0.138 2.541,0.455 3.492,1.574 2.705,3.182 2.734,3.187 6.858,3.115 C 2.639,4.415 3.354,4.485 3.647,5.847 3.966,7.332 5.144,7.903 6.578,7.674 7.888,7.466 8.908,6.238 8.902,4.881 8.896,3.592 7.974,2.498 6.683,2.233 5.941,2.082 5.249,2.273 4.655,2.663 3.788,3.231 2.864,3.396 1.863,3.332 0.821,3.264 -0.221,3.193 -1.264,3.15 -1.897,3.124 -2.314,2.762 -2.718,2.338 -3.601,1.411 -4.526,0.521 -5.371,-0.439 -6.075,-1.24 -6.89,-1.614 -7.954,-1.511 c -0.5,0.049 -1.01,0.006 -1.516,-0.003 -0.347,-0.007 -0.581,-0.145 -0.584,-0.538 -0.003,-0.387 0.208,-0.529 0.566,-0.557 1.652,-0.127 3.216,-0.103 4.377,1.417 0.819,1.073 1.765,2.052 3.348,1.872 0.447,-0.052 0.671,0.35 0.905,0.701 0.902,1.36 2.129,1.75 3.474,1.142 C 3.905,1.941 4.553,0.591 4.176,-0.73 3.785,-2.099 2.564,-2.876 1.062,-2.729 c -0.892,0.087 -1.467,0.604 -1.909,1.332 -0.634,1.047 -1.495,1.184 -2.441,0.334 -0.65,-0.584 -1.234,-1.244 -1.85,-1.867 -0.734,-0.742 -1.579,-1.088 -2.652,-0.876 -1.417,0.28 -2.613,-0.054 -3.615,-1.217 -1.009,-1.172 -2.179,-2.205 -3.264,-3.312 -0.248,-0.252 -0.601,-0.442 -0.659,-0.89"
             style="fill:#000000;fill-opacity:1;fill-rule:nonzero;stroke:none"
             id="path58" />
        </g>
        <g
           id="g60"
           transform="translate(333.0732,272.3071)"
           style="fill:#000000">
          <path
             d="m 0,0 c 8.597,0 17.192,-0.01 25.788,0.015 0.898,0.003 1.598,-0.191 2.259,-0.841 1.441,-1.416 2.95,-2.765 4.454,-4.117 0.489,-0.439 0.696,-0.921 0.693,-1.586 -0.021,-4.955 -0.028,-9.911 0.005,-14.866 0.006,-0.886 -0.292,-1.179 -1.168,-1.169 -3.337,0.035 -6.675,0.031 -10.011,0.002 -0.839,-0.007 -1.117,0.308 -1.107,1.132 0.034,2.933 -0.024,5.867 0.033,8.798 0.02,0.999 -0.337,1.251 -1.284,1.249 -11.091,-0.026 -22.182,-0.003 -33.271,-0.037 -1.16,-0.003 -2.024,0.309 -2.876,1.119 -3.224,3.064 -6.522,6.052 -9.79,9.07 -0.247,0.229 -0.499,0.455 -0.727,0.703 -0.263,0.286 -0.204,0.486 0.203,0.514 C -26.497,0.006 -26.192,0 -25.889,0 -17.26,0 -8.63,0 0,0"
             style="fill:#000000;fill-opacity:1;fill-rule:nonzero;stroke:none"
             id="path62" />
        </g>
        <g
           id="g64"
           transform="translate(229.0298,337.3057)"
           style="fill:#000000">
          <path
             d="M 0,0 C -0.017,0.962 -0.576,1.511 -1.5,1.477 -2.504,1.439 -3.015,0.934 -2.996,-0.005 -2.979,-0.902 -2.366,-1.508 -1.475,-1.508 -0.541,-1.509 0.017,-0.938 0,0 M 6.421,0.004 C 6.393,0.863 5.659,1.581 4.864,1.526 3.988,1.466 3.28,0.765 3.308,-0.015 3.34,-0.917 4.062,-1.559 4.986,-1.504 c 0.848,0.05 1.462,0.695 1.435,1.508 m 24.662,-36.688 c -0.022,0.902 -0.672,1.548 -1.53,1.519 -0.897,-0.031 -1.565,-0.685 -1.551,-1.52 0.014,-0.82 0.754,-1.571 1.547,-1.568 0.814,0.003 1.555,0.761 1.534,1.569 m -38.708,21.408 c 1.521,-0.038 2.514,0.889 2.542,2.371 0.029,1.547 -0.839,2.582 -2.186,2.608 -1.475,0.027 -2.699,-1.034 -2.753,-2.386 -0.055,-1.375 1.04,-2.56 2.397,-2.593 M 8.643,-33.745 c 0.062,1.555 -1.044,2.802 -2.522,2.844 -1.672,0.047 -2.881,-0.974 -2.98,-2.515 -0.099,-1.549 1.14,-2.957 2.65,-3.007 1.529,-0.052 2.79,1.132 2.852,2.678 M -5.274,5.454 c 0.002,1.678 -1.073,2.857 -2.608,2.86 -1.659,0.003 -2.783,-1.064 -2.803,-2.66 -0.021,-1.636 1.094,-2.861 2.618,-2.878 1.641,-0.018 2.791,1.084 2.793,2.678 m 28.487,-49.658 c -0.939,1.36 -1.966,2.275 -2.974,3.193 -2.889,2.631 -2.895,2.618 -2.889,6.527 0.008,4.836 0.372,4.377 -3.478,7.887 -0.921,0.839 -1.796,1.732 -2.652,2.638 -0.596,0.632 -1.278,0.929 -2.148,0.919 -2.36,-0.024 -4.719,0.004 -7.079,-0.024 -0.866,-0.01 -1.556,0.255 -2.164,0.882 -1.383,1.43 -2.835,2.791 -4.191,4.245 -0.604,0.647 -1.17,0.842 -2.04,0.612 -4.018,-1.061 -6.291,2.74 -5.766,5.245 0.408,1.948 1.578,3.25 3.47,3.854 1.893,0.604 3.481,-0.045 4.736,-1.445 1.269,-1.417 1.635,-3.103 0.815,-4.88 -0.354,-0.765 -0.288,-1.263 0.328,-1.842 1.251,-1.177 2.457,-2.405 3.637,-3.654 0.628,-0.664 1.344,-0.952 2.243,-0.935 2.258,0.042 4.516,0.08 6.774,0.067 1.856,-0.009 1.678,-0.021 1.895,1.812 0.369,3.119 -0.755,5.294 -3.014,7.495 -2.364,2.301 -4.588,4.008 -8.035,3.351 -0.807,-0.154 -1.492,0.254 -2.073,0.84 -2.16,2.178 -4.335,4.341 -6.505,6.508 -0.242,0.242 -0.539,0.507 -0.533,0.835 0.02,1.016 -0.653,1.304 -1.427,1.664 -2.489,1.154 -3.363,3.997 -2.002,6.293 1.293,2.183 4.244,2.85 6.356,1.436 C -3.355,7.88 -2.897,4.774 -4.518,2.711 -5.04,2.047 -5.739,1.678 -6.506,1.381 -7.368,1.048 -7.5,0.638 -6.977,-0.142 c 0.242,-0.358 0.569,-0.664 0.879,-0.971 1.798,-1.777 3.616,-3.533 5.393,-5.33 0.455,-0.46 0.959,-0.556 1.549,-0.57 1.38,-0.031 2.761,0.083 4.141,-0.088 0.747,-0.092 1.333,-0.406 1.844,-0.937 1.8,-1.869 3.602,-3.737 5.423,-5.585 0.471,-0.477 0.594,-1.023 0.59,-1.653 -0.012,-2.022 -0.01,-4.045 -0.009,-6.068 0,-0.524 -0.032,-1.066 0.45,-1.449 0.34,0.224 0.236,0.522 0.236,0.77 0.007,2.359 -0.005,4.719 0.002,7.078 0.003,0.815 -0.223,1.517 -0.817,2.099 -2.12,2.075 -4.253,4.136 -6.33,6.253 -0.696,0.709 -1.432,1.085 -2.416,0.951 -0.033,-0.005 -0.068,0.003 -0.101,-0.003 -2.233,-0.371 -4.019,0.309 -5.33,2.202 -0.367,0.528 -0.972,0.818 -1.497,1.186 -1.501,1.05 -1.75,2.702 -0.633,4.007 1.076,1.259 2.882,1.373 4.036,0.256 1.218,-1.179 1.141,-3.06 -0.255,-4.158 -0.586,-0.462 -0.551,-0.732 -0.105,-1.259 0.985,-1.165 2.284,-1.306 3.599,-1.063 1.589,0.293 2.666,-0.272 3.727,-1.406 2.072,-2.214 4.255,-4.325 6.422,-6.448 0.727,-0.713 1.033,-1.502 1.013,-2.522 -0.054,-2.797 -0.036,-5.596 -0.035,-8.393 0,-0.454 -0.081,-0.938 0.243,-1.348 0.46,0.165 0.303,0.523 0.304,0.781 0.011,3.675 -0.003,7.349 0.015,11.023 0.003,0.767 -0.28,1.342 -0.819,1.872 -2.425,2.389 -4.848,4.781 -7.226,7.217 -0.725,0.743 -1.445,1.18 -2.541,1.105 C 3.604,-2.673 2.697,-2.086 2.226,-0.965 1.819,0.004 2.122,1.156 2.969,1.987 3.876,2.878 5.263,3.035 6.316,2.365 7.411,1.669 7.979,0.366 7.47,-0.783 7.105,-1.608 7.338,-2.08 7.894,-2.627 c 2.569,-2.531 5.097,-5.104 7.687,-7.614 0.734,-0.713 1.077,-1.467 1.067,-2.489 -0.037,-4.045 0.002,-8.091 -0.042,-12.136 -0.01,-0.946 0.184,-1.723 0.942,-2.319 1.745,-1.372 2.446,-3.081 2.005,-5.335 -0.229,-1.171 -0.052,-2.42 -0.088,-3.633 -0.023,-0.777 0.346,-1.366 0.853,-1.876 4.782,-4.8 9.571,-9.592 14.366,-14.379 0.2,-0.2 0.396,-0.566 0.73,-0.425 0.285,0.121 0.149,0.485 0.15,0.738 0.013,2.528 0.003,5.056 0.021,7.584 0.005,0.69 -0.233,1.221 -0.732,1.697 -1,0.953 -1.985,1.924 -2.934,2.929 -0.514,0.546 -1.013,0.727 -1.784,0.538 -1.399,-0.343 -2.668,0.395 -3.177,1.696 -0.476,1.217 0.085,2.681 1.298,3.38 1.184,0.683 2.522,0.423 3.461,-0.648 0.656,-0.747 0.64,-1.619 0.427,-2.484 -0.15,-0.61 0.003,-1.027 0.434,-1.44 1.069,-1.028 2.099,-2.095 3.172,-3.118 0.783,-0.745 1.14,-1.615 1.124,-2.703 -0.043,-2.763 10e-4,-5.528 -0.061,-8.291 -0.026,-1.177 0.29,-2.098 1.283,-2.782 0.88,-0.607 1.179,-1.519 1.183,-2.553 0.009,-2.157 0.033,-4.314 0.031,-6.472 -0.014,-17.427 -0.045,-34.855 -0.028,-52.283 0.002,-1.804 -0.602,-3.17 -1.991,-4.295 -2.022,-1.636 -3.653,-3.681 -5.538,-5.465 -0.72,-0.682 -0.787,-3.207 -0.146,-4.004 0.379,-0.47 0.594,-0.962 0.614,-1.559 0.126,-3.739 0.223,-7.478 0.154,-11.219 -0.008,-0.436 -0.106,-0.871 -0.122,-1.308 -0.02,-0.587 -0.336,-0.867 -0.885,-0.878 -0.842,-0.019 -1.685,-0.02 -2.527,0.004 -0.661,0.02 -0.933,0.399 -0.933,1.057 0.005,4.045 -0.01,8.09 -0.009,12.135 0,0.549 0.079,1.146 0.482,1.507 0.771,0.691 0.785,1.536 0.649,2.415 -0.232,1.49 0.2,2.676 1.326,3.706 1.939,1.773 3.8,3.633 5.71,5.438 0.653,0.617 0.938,1.311 0.937,2.232 -0.019,19.248 -0.023,38.496 0.01,57.743 0.003,1.29 -0.404,2.237 -1.31,3.118 -3.386,3.287 -6.735,6.612 -10.08,9.94 -0.449,0.446 -0.94,0.569 -1.541,0.588 -2.053,0.065 -4.095,-0.383 -6.156,-0.051 -0.777,0.125 -1.398,0.402 -1.943,0.954 -2.247,2.281 -4.524,4.533 -6.754,6.831 -0.548,0.566 -1.016,0.682 -1.765,0.375 -1.91,-0.784 -3.902,-0.186 -5.139,1.43 -1.185,1.548 -1.163,3.865 0.051,5.468 1.147,1.514 3.239,2.098 5.1,1.425 1.88,-0.682 3.046,-2.479 2.908,-4.505 -0.018,-0.266 -0.03,-0.57 -0.162,-0.783 -0.685,-1.1 -0.177,-1.791 0.642,-2.573 1.999,-1.907 3.934,-3.884 5.833,-5.892 0.685,-0.725 1.407,-1.051 2.394,-1.007 1.296,0.057 2.596,0.014 4.122,0.014"
             style="fill:#000000;fill-opacity:1;fill-rule:nonzero;stroke:none"
             id="path66" />
        </g>
        <g
           id="g68"
           transform="translate(217.5015,244.9619)"
           style="fill:#000000">
          <path
             d="m 0,0 c 0,5.157 0.016,10.314 -0.016,15.471 -0.005,0.845 0.259,1.452 0.857,2.042 3.213,3.174 6.402,6.373 9.574,9.589 0.558,0.565 1.129,0.846 1.944,0.842 6.64,-0.026 13.28,-0.013 19.92,-0.016 1.336,-0.001 1.361,-0.027 1.363,-1.357 0.005,-2.898 0.005,-5.797 0,-8.696 -0.002,-1.253 -0.059,-1.313 -1.313,-1.313 -6.505,-0.005 -13.011,-0.002 -19.516,-0.004 -1.452,0 -1.456,-0.005 -1.456,-1.466 -0.002,-10.213 0,-20.426 -0.002,-30.639 0,-1.503 -0.004,-1.505 -1.52,-1.506 -2.831,-0.002 -5.662,-0.004 -8.494,0.001 -1.315,0.002 -1.339,0.026 -1.34,1.378 C -0.002,-10.449 0,-5.225 0,0"
             style="fill:#000000;fill-opacity:1;fill-rule:nonzero;stroke:none"
             id="path70" />
        </g>
        <g
           id="g72"
           transform="translate(208.0747,272.8911)"
           style="fill:#000000">
          <path
             d="m 0,0 c 3.908,0 7.816,0.002 11.724,-0.004 0.293,-0.001 0.714,0.135 0.846,-0.143 0.178,-0.373 -0.273,-0.562 -0.492,-0.783 -3.228,-3.252 -6.474,-6.485 -9.696,-9.743 -0.488,-0.494 -1.005,-0.71 -1.696,-0.706 -4.144,0.02 -8.288,0.027 -12.432,-0.004 -0.907,-0.006 -1.267,0.304 -1.256,1.229 0.034,2.998 0.033,5.997 0,8.995 -0.01,0.87 0.294,1.181 1.177,1.174 C -7.883,-0.02 -3.941,0 0,0"
             style="fill:#000000;fill-opacity:1;fill-rule:nonzero;stroke:none"
             id="path74" />
        </g>
        <g
           id="g76"
           transform="translate(276.8398,163.0264)"
           style="fill:#000000">
          <path
             d="m 0,0 c 0,-1.652 0.025,-3.305 -0.012,-4.955 -0.015,-0.726 0.213,-1.034 0.977,-1.025 2.629,0.03 5.259,-0.003 7.888,0.021 1.165,0.011 2.326,1.175 2.335,2.339 0.022,2.561 0.021,5.124 0,7.685 C 11.179,5.074 9.607,6.847 8.63,6.863 6.11,6.907 3.579,7.086 1.112,6.278 0.3,6.013 -0.031,5.594 -0.011,4.752 0.027,3.169 0.001,1.584 0,0 m -4.923,-15.9 c -0.393,0.347 -0.434,0.809 -0.434,1.294 0.002,7.076 0.01,14.152 -0.009,21.228 -0.003,1.038 0.448,1.507 1.416,1.887 4.457,1.752 9.101,1.533 13.748,1.589 1.838,0.022 3.154,-0.475 4.394,-1.838 2.767,-3.041 2.299,-1.638 2.345,-5.795 0.026,-2.426 -0.016,-4.853 0.016,-7.278 0.01,-0.802 -0.355,-1.348 -0.8,-1.981 -1.5,-2.126 -3.471,-2.736 -6.007,-2.545 -2.747,0.208 -5.522,0.048 -8.285,0.047 -1.46,0 -1.461,-10e-4 -1.461,-1.51 -0.001,-1.28 -0.001,-2.56 -0.001,-3.842 0,-0.438 0.021,-0.88 -0.27,-1.256 z"
             style="fill:#000000;fill-opacity:1;fill-rule:nonzero;stroke:none"
             id="path78" />
        </g>
        <g
           id="g80"
           transform="translate(5.7266,174.2305)"
           style="fill:#000000">
          <path
             d="M 0,0 C 1.083,1.013 2.185,2.005 3.24,3.045 3.805,3.602 4.421,3.877 5.219,3.875 11.253,3.86 17.288,3.872 23.322,3.863 24.483,3.861 24.694,3.647 24.704,2.511 24.728,-0.322 24.849,-0.049 22.247,-0.052 18.1,-0.055 13.954,-0.049 9.807,-0.054 8.252,-0.056 6.73,-1.57 6.728,-3.117 6.722,-6.421 6.744,-9.725 6.712,-13.028 c -0.007,-0.767 0.275,-1.291 0.762,-1.874 1.136,-1.36 2.476,-1.801 4.245,-1.738 3.738,0.133 7.483,0.045 11.225,0.037 1.639,-0.002 1.761,-0.138 1.765,-1.8 0.005,-2.092 0.005,-2.093 -2.113,-2.093 -5.259,0 -10.518,0.029 -15.777,-0.023 -1.142,-0.011 -1.977,0.336 -2.768,1.136 -1.302,1.318 -2.696,2.543 -4.051,3.808 z"
             style="fill:#000000;fill-opacity:1;fill-rule:nonzero;stroke:none"
             id="path82" />
        </g>
        <g
           id="g84"
           transform="translate(235.2671,162.3447)"
           style="fill:#000000">
          <path
             d="m 0,0 c 0,2.426 0.023,4.853 -0.012,7.278 -0.014,0.999 0.377,1.559 1.355,1.817 1.692,0.446 3.369,0.952 5.047,1.455 0.928,0.277 1.873,0.168 2.812,0.178 1.718,0.018 3.438,-0.04 5.154,0.022 1.019,0.037 1.855,-0.192 2.495,-1.012 0.42,-0.537 0.916,-0.694 1.594,-0.434 3.557,1.362 7.261,1.617 11.027,1.446 0.73,-0.033 1.278,-0.244 1.78,-0.764 3.073,-3.178 2.538,-1.78 2.574,-6.094 0.031,-3.673 0.009,-7.346 0.004,-11.018 -0.002,-1.377 -0.115,-1.478 -1.509,-1.483 -0.843,-0.003 -1.686,-0.006 -2.528,10e-4 -1.221,0.009 -1.296,0.082 -1.298,1.343 -0.004,3.943 0,7.885 -0.002,11.827 C 28.492,6.334 27.408,7.33 25.617,7.42 23.694,7.517 21.882,7.065 20.048,6.611 19.304,6.427 19.096,6.066 19.1,5.344 c 0.026,-4.145 0.014,-8.289 0.012,-12.434 -10e-4,-1.5 -0.021,-1.515 -1.534,-1.519 -0.708,-0.002 -1.418,0.041 -2.122,-0.01 -0.976,-0.071 -1.31,0.356 -1.303,1.303 0.026,4.143 0,8.288 0.019,12.432 0.003,0.68 -0.148,1.234 -0.64,1.73 C 13.174,7.207 12.816,7.402 12.301,7.407 10.346,7.427 8.413,7.404 6.5,6.831 5.611,6.565 5.335,6.178 5.343,5.287 5.381,1.109 5.362,-3.068 5.358,-7.247 5.356,-8.548 5.295,-8.603 3.976,-8.609 3.066,-8.613 2.154,-8.57 1.247,-8.62 0.326,-8.67 -0.021,-8.286 -0.01,-7.379 0.02,-4.919 0,-2.459 0,0"
             style="fill:#000000;fill-opacity:1;fill-rule:nonzero;stroke:none"
             id="path86" />
        </g>
        <g
           id="g88"
           transform="translate(197.3818,178.0986)"
           style="fill:#000000">
          <path
             d="m 0,0 c 2.965,0 5.93,0.005 8.895,-0.003 1.328,-0.003 1.503,-0.189 1.523,-1.524 0.036,-2.393 0.036,-2.393 -2.347,-2.393 -4.177,0 -8.355,0.003 -12.533,-0.002 -1.695,-0.002 -3.092,-1.412 -3.093,-3.112 -0.003,-3.336 0.019,-6.672 -0.016,-10.007 -0.008,-0.781 0.319,-1.278 0.815,-1.844 1.146,-1.304 2.494,-1.674 4.203,-1.62 3.77,0.119 7.546,0.043 11.32,0.033 1.451,-0.004 1.63,-0.197 1.651,-1.628 0.033,-2.264 0.033,-2.264 -2.263,-2.264 -5.323,0 -10.647,0.015 -15.97,-0.015 -0.876,-0.005 -1.537,0.252 -2.153,0.871 -1.188,1.193 -2.427,2.337 -3.669,3.474 -0.561,0.513 -0.836,1.101 -0.834,1.863 0.012,4.347 0.01,8.693 0.002,13.039 -0.002,0.719 0.257,1.278 0.768,1.792 3.31,3.333 3.304,3.34 8.041,3.34 z"
             style="fill:#000000;fill-opacity:1;fill-rule:nonzero;stroke:none"
             id="path90" />
        </g>
        <g
           id="g92"
           transform="translate(215.9189,163.5391)"
           style="fill:#000000">
          <path
             d="m 0,0 c 0,-1.279 -0.02,-2.559 0.006,-3.837 0.026,-1.31 1.147,-2.416 2.427,-2.42 2.053,-0.008 4.106,-0.007 6.159,0 1.179,0.003 2.411,1.133 2.429,2.326 0.037,2.624 0.037,5.25 10e-4,7.874 C 11.007,5.088 9.784,6.199 8.64,6.205 6.755,6.213 4.871,6.208 2.986,6.207 0.897,6.207 0.002,5.315 -0.002,3.23 -0.004,2.153 -0.002,1.077 0,0 m 5.487,-9.804 c -2.156,0 -4.312,0.022 -6.467,-0.011 -0.759,-0.012 -1.296,0.277 -1.896,0.732 -2.001,1.517 -2.741,3.396 -2.526,5.931 0.233,2.741 0.078,5.519 0.038,8.28 -0.012,0.847 0.354,1.408 0.85,2.055 1.493,1.947 3.357,2.547 5.791,2.408 3.558,-0.204 7.138,-0.066 10.707,-0.042 0.726,0.005 1.231,-0.292 1.805,-0.708 2.14,-1.549 2.884,-3.531 2.651,-6.173 -0.237,-2.674 -0.07,-5.385 -0.043,-8.079 0.009,-0.8 -0.255,-1.408 -0.817,-1.974 -2.393,-2.409 -2.383,-2.42 -5.748,-2.42 -1.449,0 -2.897,0 -4.345,10e-4"
             style="fill:#000000;fill-opacity:1;fill-rule:nonzero;stroke:none"
             id="path94" />
        </g>
        <g
           id="g96"
           transform="translate(406.6182,163.5107)"
           style="fill:#000000">
          <path
             d="m 0,0 h -0.003 c 0,1.278 0.022,2.558 -0.007,3.835 -0.029,1.338 -1.118,2.394 -2.44,2.398 -2.053,0.008 -4.105,0.007 -6.157,0 -1.168,-0.004 -2.41,-1.148 -2.426,-2.335 -0.037,-2.59 -0.036,-5.182 -0.001,-7.772 0.015,-1.216 1.282,-2.353 2.514,-2.355 1.885,-0.005 3.769,-0.003 5.654,-0.001 1.921,0.001 2.859,0.949 2.865,2.898 C 0.003,-2.222 0,-1.111 0,0 m -5.425,9.566 c 2.192,0 4.383,-0.014 6.574,0.008 0.654,0.008 1.15,-0.207 1.62,-0.66 2.56,-2.47 2.568,-2.462 2.568,-5.979 0,-2.798 -0.019,-5.596 0.012,-8.394 C 5.357,-6.225 5.05,-6.752 4.597,-7.349 3.096,-9.323 1.222,-9.98 -1.262,-9.83 c -3.527,0.214 -7.076,0.071 -10.616,0.041 -0.797,-0.007 -1.352,0.299 -1.985,0.767 -2.103,1.554 -2.795,3.53 -2.578,6.12 0.221,2.644 0.062,5.322 0.042,7.985 -0.006,0.793 0.32,1.365 0.801,1.986 1.552,2.008 3.466,2.887 6.032,2.531 1.356,-0.188 2.759,-0.034 4.141,-0.034"
             style="fill:#000000;fill-opacity:1;fill-rule:nonzero;stroke:none"
             id="path98" />
        </g>
        <g
           id="g100"
           transform="translate(450.4893,162.6592)"
           style="fill:#000000">
          <path
             d="m 0,0 c -1.516,0 -3.032,-0.026 -4.547,0.012 -0.77,0.019 -1.126,-0.241 -1.081,-1.044 0.04,-0.739 -0.005,-1.482 0.012,-2.223 0.025,-1.178 1.123,-2.32 2.321,-2.334 2.594,-0.03 5.188,-0.002 7.781,-0.015 0.692,-0.004 0.964,0.299 0.951,0.981 -0.026,1.246 -0.03,2.493 10e-4,3.739 C 5.454,-0.229 5.197,0.019 4.548,0.007 3.032,-0.019 1.517,-0.001 0,0 m 1.548,-8.924 c -2.527,0 -5.055,0.015 -7.582,-0.01 -0.715,-0.006 -1.298,0.173 -1.829,0.671 -3.28,3.079 -2.747,1.907 -2.802,6.058 -0.014,1.044 -0.026,2.092 0.038,3.133 0.077,1.252 0.385,1.527 1.627,1.544 1.617,0.022 3.235,0.007 4.853,0.007 2.831,10e-4 5.662,0.024 8.492,-0.012 0.835,-0.011 1.107,0.277 1.102,1.112 -0.012,2.302 -1.332,3.679 -3.63,3.68 -3.707,0 -7.414,-0.004 -11.121,0.002 -1.207,0.002 -1.371,0.198 -1.363,1.54 0.009,1.427 0.163,1.614 1.406,1.615 4.954,0.005 9.908,-0.007 14.863,0.012 0.69,0.002 1.226,-0.199 1.703,-0.701 0.882,-0.928 1.79,-1.832 2.711,-2.722 0.519,-0.502 0.758,-1.081 0.756,-1.8 C 10.764,1.026 10.777,-3.152 10.763,-7.331 10.758,-8.635 10.445,-8.919 9.131,-8.922 6.604,-8.929 4.075,-8.924 1.548,-8.924"
             style="fill:#000000;fill-opacity:1;fill-rule:nonzero;stroke:none"
             id="path102" />
        </g>
        <g
           id="g104"
           transform="translate(52.9058,164.5176)"
           style="fill:#000000">
          <path
             d="M 0,0 C 1.479,0 2.959,0.037 4.436,-0.015 5.331,-0.046 5.632,0.308 5.582,1.172 5.527,2.109 5.527,3.056 5.581,3.993 5.633,4.89 5.337,5.264 4.385,5.245 1.933,5.195 -0.521,5.237 -2.975,5.225 -4.42,5.216 -5.457,4.141 -5.467,2.677 -5.471,2.139 -5.435,1.599 -5.475,1.063 -5.533,0.289 -5.233,-0.032 -4.436,-0.011 -2.958,0.028 -1.479,0 0,0 m 1.272,8.56 c 2.561,0 5.122,0.005 7.682,-0.003 1.283,-0.005 1.558,-0.272 1.564,-1.534 0.011,-2.526 0.005,-5.053 0.003,-7.581 0,-1.827 -0.238,-2.064 -2.117,-2.066 -4.145,-0.005 -8.289,-10e-4 -12.433,-0.003 -1.436,-0.001 -1.436,-0.004 -1.439,-1.467 -0.004,-2.136 1.395,-3.529 3.546,-3.53 3.707,0 7.413,0.005 11.119,-0.003 1.239,-0.003 1.324,-0.115 1.325,-1.555 10e-4,-1.485 -0.073,-1.595 -1.273,-1.597 -5.02,-0.007 -10.041,0.004 -15.061,-0.012 -0.653,-0.002 -1.172,0.178 -1.614,0.664 -0.634,0.698 -1.237,1.446 -1.966,2.031 -1.238,0.992 -1.511,2.226 -1.456,3.742 0.101,2.759 0.056,5.525 0.014,8.288 -0.016,0.945 0.251,1.667 0.944,2.326 2.94,2.796 1.629,2.239 5.603,2.296 1.852,0.026 3.706,0.004 5.559,0.004"
             style="fill:#000000;fill-opacity:1;fill-rule:nonzero;stroke:none"
             id="path106" />
        </g>
        <g
           id="g108"
           transform="translate(133.4888,162.6602)"
           style="fill:#000000">
          <path
             d="m 0,0 c -0.84,0 -1.681,0.014 -2.521,-0.002 -3.56,-0.069 -2.95,0.599 -2.997,-3.141 -0.015,-1.145 1.215,-2.435 2.349,-2.448 2.587,-0.029 5.175,0.002 7.763,-0.018 0.707,-0.005 0.948,0.311 0.935,0.978 -0.022,1.21 -0.03,2.421 0.004,3.63 C 5.554,-0.271 5.287,0.027 4.537,0.01 3.025,-0.026 1.512,-0.001 0,0 m 1.689,-8.925 c -2.526,0 -5.053,0.017 -7.578,-0.01 -0.758,-0.007 -1.353,0.23 -1.908,0.742 -2.667,2.461 -2.675,2.453 -2.675,6.099 0,0.943 -0.01,1.886 0.005,2.829 0.022,1.374 0.366,1.733 1.756,1.737 C -4.568,2.486 -0.425,2.465 3.717,2.494 4.306,2.498 5.218,2.131 5.415,2.897 5.645,3.795 5.804,4.839 5.113,5.703 4.282,6.741 3.351,7.353 1.864,7.3 -1.803,7.171 -5.477,7.254 -9.148,7.261 c -1.217,0.002 -1.322,0.139 -1.323,1.56 -0.002,1.442 0.107,1.591 1.297,1.593 5.018,0.007 10.037,-0.005 15.055,0.011 C 6.54,10.427 6.988,10.128 7.496,9.751 10.204,7.737 11.289,5.188 10.927,1.75 10.611,-1.248 10.866,-4.306 10.858,-7.337 10.855,-8.7 10.633,-8.919 9.267,-8.923 6.741,-8.93 4.215,-8.925 1.689,-8.925"
             style="fill:#000000;fill-opacity:1;fill-rule:nonzero;stroke:none"
             id="path110" />
        </g>
        <g
           id="g112"
           transform="translate(345.1396,162.6602)"
           style="fill:#000000">
          <path
             d="m 0,0 h -2.521 c -3.161,0 -3.161,0 -3.11,-3.147 0.02,-1.221 1.11,-2.425 2.319,-2.442 2.589,-0.034 5.179,-0.003 7.769,-0.017 0.685,-0.003 0.971,0.284 0.956,0.97 -0.025,1.177 -0.044,2.357 0.008,3.532 C 5.456,-0.289 5.193,0.046 4.338,0.015 2.895,-0.039 1.446,0 0,0 m 1.547,-8.925 c -2.527,0 -5.055,0.018 -7.582,-0.011 -0.759,-0.008 -1.295,0.319 -1.91,0.725 -2.25,1.482 -3.044,3.5 -2.655,6.116 0.127,0.858 0.019,1.749 0.02,2.625 0.004,1.744 0.204,1.944 1.995,1.948 2.055,0.003 4.11,10e-4 6.166,10e-4 2.258,0 4.516,0.022 6.773,-0.011 C 5.127,2.457 5.332,2.734 5.443,3.509 5.687,5.212 4.623,6.102 3.559,7.038 3.225,7.331 2.793,7.255 2.394,7.256 -1.481,7.259 -5.356,7.255 -9.232,7.26 c -1.307,0.001 -1.345,0.052 -1.348,1.5 -0.002,1.566 0.054,1.652 1.314,1.654 4.954,0.007 9.908,-0.006 14.861,0.013 0.691,0.002 1.226,-0.198 1.703,-0.7 C 8.18,8.799 9.088,7.895 10.008,7.004 10.525,6.503 10.765,5.928 10.763,5.206 10.75,1.027 10.764,-3.151 10.752,-7.329 10.748,-8.639 10.446,-8.92 9.128,-8.923 6.601,-8.93 4.073,-8.925 1.547,-8.925"
             style="fill:#000000;fill-opacity:1;fill-rule:nonzero;stroke:none"
             id="path114" />
        </g>
        <g
           id="g116"
           transform="translate(415.0469,162.3672)"
           style="fill:#000000">
          <path
             d="m 0,0 c 0.001,2.46 0.024,4.919 -0.012,7.378 -0.013,0.926 0.353,1.436 1.241,1.679 1.623,0.444 3.232,0.941 4.85,1.405 0.355,0.101 0.723,0.22 1.085,0.222 3.57,0.019 7.142,0.015 10.712,0.021 0.47,0 0.845,-0.204 1.167,-0.521 0.719,-0.71 1.432,-1.426 2.151,-2.136 0.408,-0.402 0.584,-0.88 0.583,-1.453 -0.006,-4.683 -0.014,-9.366 0.007,-14.048 0.004,-0.867 -0.329,-1.225 -1.198,-1.188 -0.976,0.041 -1.955,0.048 -2.93,-0.002 -0.938,-0.046 -1.242,0.377 -1.237,1.265 0.02,4.009 0.01,8.018 0.007,12.026 C 16.425,6.41 15.465,7.396 13.716,7.374 11.335,7.344 8.947,7.566 6.6,6.824 5.643,6.521 5.329,6.117 5.34,5.142 5.386,1.032 5.363,-3.078 5.356,-7.188 5.354,-8.515 5.234,-8.625 3.915,-8.632 3.039,-8.636 2.16,-8.588 1.288,-8.644 0.336,-8.706 -0.036,-8.359 -0.017,-7.377 0.033,-4.919 0,-2.459 0,0"
             style="fill:#000000;fill-opacity:1;fill-rule:nonzero;stroke:none"
             id="path118" />
        </g>
        <g
           id="g120"
           transform="translate(88.5356,161.8945)"
           style="fill:#000000">
          <path
             d="m 0,0 c 0,-2.324 -0.023,-4.649 0.011,-6.974 0.013,-0.855 -0.274,-1.241 -1.167,-1.196 -0.975,0.05 -1.956,0.054 -2.93,-10e-4 -0.951,-0.053 -1.254,0.41 -1.249,1.271 0.011,2.256 0.001,4.513 0,6.771 -0.001,1.853 0.01,3.706 -0.005,5.559 -0.011,1.34 -1.085,2.43 -2.415,2.415 -2.515,-0.032 -5.042,0.223 -7.517,-0.578 -0.87,-0.283 -1.166,-0.654 -1.158,-1.547 0.039,-4.143 0.02,-8.287 0.015,-12.431 -0.002,-1.362 -0.085,-1.441 -1.423,-1.447 -0.943,-0.005 -1.888,0.021 -2.83,-0.007 -0.76,-0.023 -1.113,0.277 -1.111,1.061 0.012,5.054 0.009,10.108 0.004,15.161 0,0.749 0.355,1.172 1.064,1.392 3.248,1.006 6.465,2.043 9.966,1.766 2.176,-0.173 4.377,-0.047 6.567,-0.024 0.654,0.007 1.147,-0.209 1.616,-0.663 C -0.007,8.059 0,8.067 0,4.548 0,3.032 0,1.516 0,0"
             style="fill:#000000;fill-opacity:1;fill-rule:nonzero;stroke:none"
             id="path122" />
        </g>
        <g
           id="g124"
           transform="translate(156.3574,153.7354)"
           style="fill:#000000">
          <path
             d="m 0,0 c -2.662,0 -5.324,0.028 -7.985,-0.016 -0.962,-0.015 -1.335,0.33 -1.313,1.293 0.032,1.365 0.167,1.618 1.321,1.622 C -3.798,2.916 0.381,2.97 4.558,2.881 6.53,2.838 7.697,4.509 7.218,6.423 7.032,7.167 5.851,7.942 4.927,7.945 1.793,7.954 -1.341,7.948 -4.474,7.95 c -2.543,10e-4 -4.588,2.069 -4.589,4.638 v 0.202 c -10e-4,3.568 0.004,3.564 2.587,6.005 0.393,0.373 0.814,0.551 1.354,0.55 5.324,-0.008 10.648,-0.021 15.972,0.009 1.058,0.007 1.208,-0.542 1.207,-1.403 -0.001,-0.867 -0.082,-1.538 -1.205,-1.533 -4.111,0.019 -8.222,0.007 -12.333,0.003 -1.194,0 -2.213,-0.519 -2.402,-1.414 -0.237,-1.124 -0.32,-2.279 0.663,-3.199 0.394,-0.369 0.844,-0.37 1.316,-0.37 3.336,0 6.672,0.004 10.008,-0.002 C 10.15,11.433 12.263,9.297 12.268,7.24 12.269,7.038 12.237,6.83 12.273,6.635 12.733,4.119 11.802,2.224 9.79,0.717 9.188,0.266 8.642,-0.019 7.885,-0.011 5.257,0.017 2.628,0 0,0"
             style="fill:#000000;fill-opacity:1;fill-rule:nonzero;stroke:none"
             id="path126" />
        </g>
        <g
           id="g128"
           transform="translate(482.0596,153.7354)"
           style="fill:#000000">
          <path
             d="m 0,0 c -2.661,0 -5.323,-0.005 -7.984,0.002 -1.17,0.004 -1.313,0.163 -1.32,1.363 -0.008,1.272 0.184,1.531 1.302,1.534 4.245,0.016 8.49,0.006 12.734,0.011 1.023,0.002 2.207,0.779 2.462,1.592 0.389,1.24 -0.056,2.477 -1.102,3.17 -0.429,0.284 -0.89,0.275 -1.36,0.276 -3.2,0.002 -6.4,-0.004 -9.601,0.004 -1.936,0.004 -4.152,2.184 -4.201,4.116 -0.006,0.236 -0.006,0.472 -0.003,0.707 0.047,4.086 -0.418,2.829 2.588,6.018 0.373,0.396 0.812,0.553 1.351,0.552 5.323,-0.008 10.647,-0.022 15.969,0.01 1.068,0.007 1.201,-0.548 1.192,-1.405 -0.009,-0.844 -0.018,-1.544 -1.177,-1.536 -4.144,0.027 -8.288,0.01 -12.432,0.007 -1.129,-10e-4 -2.125,-0.629 -2.372,-1.484 -0.329,-1.139 0.081,-2.633 0.869,-3.235 0.385,-0.294 0.822,-0.262 1.257,-0.262 3.302,-0.003 6.603,0.002 9.904,-0.004 2.112,-0.003 4.142,-2.058 4.145,-4.179 V 6.55 C 12.221,3.065 12.212,3.075 9.701,0.669 9.201,0.189 8.668,-0.062 7.984,0 7.951,0.003 7.917,0 7.883,0 Z"
             style="fill:#000000;fill-opacity:1;fill-rule:nonzero;stroke:none"
             id="path130" />
        </g>
        <g
           id="g132"
           transform="translate(317.6719,164.9258)"
           style="fill:#000000">
          <path
             d="m 0,0 c 0.001,-2.189 -0.019,-4.379 0.011,-6.568 0.01,-0.796 -0.31,-1.368 -0.782,-1.993 -1.598,-2.112 -3.579,-2.894 -6.268,-2.69 -3.316,0.251 -6.665,0.074 -10,0.049 -0.731,-0.005 -1.272,0.229 -1.784,0.747 -2.642,2.669 -2.652,2.66 -2.652,6.403 0,3.537 -0.004,7.073 0.003,10.611 0.003,1.484 0.121,1.588 1.621,1.592 0.809,0.002 1.621,-0.043 2.425,0.011 0.96,0.066 1.307,-0.309 1.298,-1.28 -0.037,-4.008 -0.008,-8.017 -0.02,-12.026 -0.003,-0.739 0.163,-1.35 0.686,-1.926 0.642,-0.703 1.333,-1.02 2.298,-0.981 1.682,0.068 3.368,0.017 5.053,0.02 1.861,0.003 2.954,1.114 2.955,3.006 0.002,3.907 -0.002,7.814 0.003,11.722 10e-4,1.36 0.091,1.446 1.422,1.453 0.808,0.005 1.619,-0.038 2.424,0.011 C -0.352,8.22 0.029,7.837 0.013,6.872 -0.026,4.582 0,2.291 0,0"
             style="fill:#000000;fill-opacity:1;fill-rule:nonzero;stroke:none"
             id="path134" />
        </g>
        <g
           id="g136"
           transform="translate(370.249,173.0771)"
           style="fill:#000000">
          <path
             d="M 0,0 C 2.428,-0.001 4.854,-0.025 7.281,0.012 8.207,0.026 8.522,-0.35 8.528,-1.249 8.543,-3.473 8.551,-3.494 6.304,-3.494 3.067,-3.495 -0.169,-3.49 -3.404,-3.496 c -1.7,-0.003 -2.648,-0.97 -2.65,-2.691 -0.003,-2.258 -0.008,-4.517 0.002,-6.776 0.007,-1.342 1.499,-2.839 2.845,-2.844 3.337,-0.01 6.674,-10e-4 10.012,-0.006 1.418,-10e-4 1.517,-0.105 1.526,-1.464 0.014,-2.065 0.014,-2.066 -2.097,-2.066 -4.146,0 -8.293,0.016 -12.438,-0.012 -0.804,-0.006 -1.43,0.203 -1.96,0.816 -0.572,0.662 -1.143,1.349 -1.819,1.893 -1.201,0.963 -1.502,2.157 -1.452,3.646 0.099,2.861 0.047,5.729 0.018,8.595 -0.008,0.801 0.248,1.408 0.812,1.975 2.406,2.419 2.394,2.43 5.852,2.43 z"
             style="fill:#000000;fill-opacity:1;fill-rule:nonzero;stroke:none"
             id="path138" />
        </g>
        <g
           id="g140"
           transform="translate(102.875,173.0771)"
           style="fill:#000000">
          <path
             d="M 0,0 C 2.425,-0.001 4.851,-0.025 7.275,0.012 8.2,0.026 8.512,-0.34 8.514,-1.244 c 0.002,-2.249 0.033,-2.25 -2.196,-2.25 -3.267,-10e-4 -6.534,0.005 -9.801,-0.003 -1.555,-0.004 -2.581,-1.024 -2.584,-2.554 -0.006,-2.257 -0.008,-4.513 0.001,-6.769 0.004,-1.399 1.565,-2.982 2.958,-2.987 3.3,-0.01 6.601,0.003 9.902,-0.01 0.549,-0.002 1.182,0.155 1.521,-0.505 0.243,-0.473 0.143,-2.46 -0.125,-2.766 -0.23,-0.261 -0.539,-0.25 -0.839,-0.25 -4.648,-0.002 -9.296,0.002 -13.945,-0.005 -0.549,-0.001 -0.96,0.22 -1.329,0.607 -0.906,0.95 -1.816,1.898 -2.75,2.821 -0.513,0.506 -0.753,1.075 -0.749,1.8 0.016,3.266 0.016,6.534 -0.002,9.801 -0.004,0.689 0.231,1.212 0.711,1.704 2.544,2.603 2.536,2.61 6.166,2.61 z"
             style="fill:#000000;fill-opacity:1;fill-rule:nonzero;stroke:none"
             id="path142" />
        </g>
        <g
           id="g144"
           transform="translate(322.2324,161.9922)"
           style="fill:#000000">
          <path
             d="m 0,0 c -0.002,2.393 -0.025,4.785 0.012,7.178 0.012,0.815 -0.278,1.157 -1.1,1.184 -0.766,0.026 -1.587,0.029 -1.569,1.21 0.02,1.356 0.114,1.584 1.47,1.487 1.104,-0.08 1.489,0.358 1.564,1.382 0.101,1.375 0.311,2.743 0.431,4.117 0.068,0.785 0.44,1.162 1.221,1.156 0.742,-0.006 1.484,-0.003 2.225,-0.004 0.752,-0.002 1.1,-0.378 1.095,-1.131 C 5.338,15.063 5.37,13.546 5.342,12.03 5.329,11.345 5.562,11.046 6.276,11.076 7.218,11.116 8.163,11.067 9.106,11.088 9.808,11.104 10.2,10.83 10.191,10.095 10.182,9.398 10.35,8.582 9.304,8.48 8.4,8.393 7.491,8.344 6.583,8.317 5.669,8.291 5.319,7.915 5.329,6.947 5.376,2.365 5.353,-2.218 5.348,-6.801 5.347,-8.152 5.244,-8.249 3.921,-8.256 3.012,-8.261 2.1,-8.225 1.192,-8.266 0.322,-8.305 -0.019,-7.941 -0.009,-7.076 0.02,-4.718 0.001,-2.358 0,0"
             style="fill:#000000;fill-opacity:1;fill-rule:nonzero;stroke:none"
             id="path146" />
        </g>
        <g
           id="g148"
           transform="translate(38.9385,163.333)"
           style="fill:#000000">
          <path
             d="m 0,0 c 0,-2.763 -0.021,-5.526 0.012,-8.288 0.011,-0.931 -0.29,-1.38 -1.283,-1.321 -0.974,0.056 -1.955,0.036 -2.931,0.005 -0.755,-0.023 -1.131,0.268 -1.131,1.05 0.008,5.762 0.006,11.524 0.004,17.284 0,0.722 0.348,1.032 1.064,1.017 1.011,-0.021 2.023,-0.04 3.032,0.007 C -0.301,9.797 0.019,9.383 0.01,8.49 -0.017,5.66 0,2.83 0,0"
             style="fill:#000000;fill-opacity:1;fill-rule:nonzero;stroke:none"
             id="path150" />
        </g>
        <g
           id="g152"
           transform="translate(464.625,163.4326)"
           style="fill:#000000">
          <path
             d="M 0,0 C 0,2.761 -0.005,5.522 0.002,8.283 0.005,9.524 0.112,9.632 1.31,9.643 2.285,9.651 3.263,9.624 4.238,9.647 4.969,9.666 5.288,9.312 5.309,8.62 5.315,8.418 5.321,8.217 5.321,8.015 5.322,2.66 5.325,-2.694 5.32,-8.048 5.319,-9.615 5.229,-9.695 3.658,-9.697 2.85,-9.699 2.039,-9.656 1.234,-9.708 0.32,-9.767 -0.026,-9.413 -0.014,-8.485 0.024,-5.657 0,-2.829 0,0"
             style="fill:#000000;fill-opacity:1;fill-rule:nonzero;stroke:none"
             id="path154" />
        </g>
        <g
           id="g156"
           transform="translate(387.0703,163.3037)"
           style="fill:#000000">
          <path
             d="m 0,0 c 0,-2.795 -0.02,-5.59 0.012,-8.384 0.009,-0.857 -0.281,-1.238 -1.171,-1.195 -1.008,0.049 -2.021,0.04 -3.029,0.003 -0.788,-0.028 -1.112,0.345 -1.117,1.08 -0.007,1.246 -0.01,2.491 -0.01,3.737 -10e-4,4.31 -0.005,8.619 0.002,12.929 0.002,1.494 0.12,1.6 1.609,1.603 0.842,0.002 1.685,-0.032 2.525,0.008 C -0.307,9.821 0.019,9.449 0.01,8.585 -0.019,5.724 -0.001,2.861 0,0"
             style="fill:#000000;fill-opacity:1;fill-rule:nonzero;stroke:none"
             id="path158" />
        </g>
        <g
           id="g160"
           transform="translate(114.4854,163.4951)"
           style="fill:#000000">
          <path
             d="M 0,0 C -0.001,2.761 0.026,5.521 -0.016,8.282 -0.03,9.218 0.248,9.661 1.246,9.595 2.15,9.534 3.066,9.53 3.971,9.596 4.963,9.668 5.314,9.201 5.3,8.295 5.292,7.757 5.307,7.218 5.307,6.679 5.308,1.764 5.31,-3.152 5.305,-8.068 5.304,-9.688 5.224,-9.759 3.586,-9.76 2.745,-9.761 1.901,-9.731 1.062,-9.767 0.274,-9.8 -0.015,-9.459 -0.008,-8.687 0.014,-5.791 0,-2.896 0,0"
             style="fill:#000000;fill-opacity:1;fill-rule:nonzero;stroke:none"
             id="path162" />
        </g>
        <g
           id="g164"
           transform="translate(46.5112,177.0332)"
           style="fill:#000000">
          <path
             d="m 0,0 c -0.174,0.797 0.29,1.295 1.087,1.674 1.58,0.75 3.136,1.553 4.688,2.36 0.618,0.32 1.193,0.366 1.821,0.037 1.698,-0.89 3.413,-1.75 5.11,-2.641 0.724,-0.381 1.088,-2.148 0.589,-2.762 C 12.919,-1.796 12.492,-1.535 12.107,-1.356 10.674,-0.688 9.224,-0.05 7.835,0.701 7.033,1.136 6.359,1.115 5.576,0.706 4.294,0.036 2.982,-0.576 1.668,-1.18 0.158,-1.873 -0.008,-1.757 0,0"
             style="fill:#000000;fill-opacity:1;fill-rule:nonzero;stroke:none"
             id="path166" />
        </g>
        <g
           id="g168"
           transform="translate(36.292,174.793)"
           style="fill:#000000">
          <path
             d="M 0,0 C -2.95,0.014 -2.681,-0.294 -2.686,2.72 -2.69,4.917 -2.687,4.921 -0.443,4.916 3.03,4.91 2.629,5.208 2.646,1.854 2.655,0.002 2.646,0.002 0.806,0 Z"
             style="fill:#000000;fill-opacity:1;fill-rule:nonzero;stroke:none"
             id="path170" />
        </g>
        <g
           id="g172"
           transform="translate(467.3418,179.71)"
           style="fill:#000000">
          <path
             d="M 0,0 C 2.729,0.009 2.616,0.167 2.607,-2.647 2.6,-4.917 2.605,-4.929 0.338,-4.914 -3.055,-4.893 -2.702,-5.301 -2.716,-2.281 -2.726,0 -2.718,0 -0.402,0 Z"
             style="fill:#000000;fill-opacity:1;fill-rule:nonzero;stroke:none"
             id="path174" />
        </g>
        <g
           id="g176"
           transform="translate(384.457,174.7939)"
           style="fill:#000000">
          <path
             d="m 0,0 c -2.787,0.021 -2.717,-0.356 -2.704,2.758 0.009,2.138 0.023,2.158 2.117,2.158 0.74,0 1.482,-0.004 2.223,-0.009 0.659,-0.005 0.987,-0.323 0.977,-1 C 2.601,2.998 2.58,2.087 2.622,1.18 2.662,0.296 2.263,-0.051 1.415,-0.004 0.944,0.022 0.472,0.001 0,0"
             style="fill:#000000;fill-opacity:1;fill-rule:nonzero;stroke:none"
             id="path178" />
        </g>
        <g
           id="g180"
           transform="translate(117.1357,174.7939)"
           style="fill:#000000">
          <path
             d="M 0,0 C -3.012,0.01 -2.632,-0.251 -2.649,2.644 -2.662,4.916 -2.651,4.917 -0.421,4.916 0.251,4.915 0.924,4.908 1.597,4.907 2.255,4.907 2.606,4.567 2.622,3.923 2.644,2.981 2.64,2.04 2.634,1.099 2.629,0.295 2.206,-0.048 1.413,-0.003 0.943,0.023 0.471,0.002 0,0"
             style="fill:#000000;fill-opacity:1;fill-rule:nonzero;stroke:none"
             id="path182" />
        </g>
      </g>
    </g>
  </g>
</svg>
